<svg width="20" height="20" viewBox="0 0 20 20" fill="none" xmlns="http://www.w3.org/2000/svg">
<path d="M1.40039 7.16907C1.44258 7.07236 1.58929 6.8874 1.69944 6.8874H3.82651V2.32769C3.82651 2.30516 3.93385 2.1432 3.96807 2.11738C4.03088 2.06903 4.15134 2.03757 4.23102 2.02865C5.04004 1.93805 6.00749 2.09766 6.83386 2.02725C7.03869 1.99861 7.27212 2.24507 7.27212 2.43332V3.71865H8.67829V2.3629C8.67829 2.25117 8.91828 2.02114 9.05046 2.03147C9.89839 2.0709 10.8096 1.9681 11.65 2.02678C11.8253 2.03898 12.123 2.1601 12.123 2.3629V3.71865H13.5291V2.43332C13.5291 2.19765 13.7574 2.04696 13.9674 2.02725C14.7998 1.94885 15.7561 2.08593 16.6021 2.03147C16.7258 2.02725 16.9743 2.2169 16.9743 2.32769V6.88693H19.1013C19.2279 6.88693 19.3362 7.07893 19.4004 7.1686V18.7169C19.2823 18.938 19.1726 18.9822 18.9274 19H1.83818C1.60757 18.9793 1.51007 18.9164 1.40039 18.7169V7.16907ZM9.45075 2.80324V4.22941C9.45075 4.30405 9.21451 4.50967 9.11374 4.49042C8.4069 4.4538 7.63491 4.55004 6.93604 4.49511C6.80058 4.48432 6.49825 4.39418 6.49825 4.22941V2.85628L6.44575 2.80371H4.59991V18.2249H16.2009V2.80324H14.355L14.3025 2.85582V4.22894C14.3025 4.30358 14.0663 4.5092 13.9655 4.48995C13.2568 4.44348 12.4487 4.56271 11.7522 4.49511C11.6322 4.48338 11.3496 4.36226 11.3496 4.22941V2.80324H9.45075ZM3.82605 7.66198H2.17379V18.2245H3.82605V7.66198ZM18.6261 7.66198H16.9738V18.2245H18.6261V7.66198Z" fill="#00646E"/>
<path d="M1.19922 7.12774L1.21582 7.08965C1.24819 7.01548 1.31061 6.92579 1.37891 6.8543C1.414 6.81759 1.45696 6.78002 1.50488 6.74981C1.55029 6.72119 1.61753 6.68834 1.69824 6.68829V6.88848L1.65527 6.89629C1.55296 6.93324 1.43633 7.0852 1.39941 7.16973V18.7176C1.50905 18.917 1.60651 18.9801 1.83691 19.0008H18.9268L19.0869 18.9803C19.2269 18.95 19.3108 18.8835 19.3994 18.7176V7.16973C19.3432 7.09119 19.253 6.93406 19.1465 6.89629L19.1006 6.8875V6.68731C19.2603 6.68741 19.3716 6.8023 19.4248 6.86407C19.4829 6.93159 19.5429 7.02521 19.5625 7.05254L19.5996 7.10528V18.7674L19.5762 18.8123C19.5081 18.9398 19.428 19.0431 19.3086 19.1102C19.1949 19.174 19.0679 19.1908 18.9414 19.2L18.9336 19.201H1.82812L1.81934 19.2C1.69125 19.1885 1.57154 19.1634 1.46484 19.0945C1.35768 19.0253 1.28616 18.9262 1.22461 18.8143L1.19922 18.7693V7.12774ZM3.8252 7.66289V18.2254H2.17285V7.66289H3.8252ZM18.625 7.66289V18.2254H16.9727V7.66289H18.625ZM17.1729 18.0252H18.4248V7.86309H17.1729V18.0252ZM2.37305 18.0252H3.625V7.86309H2.37305V18.0252ZM16.9736 2.32891C16.9736 2.21825 16.7255 2.02828 16.6016 2.03204C15.7556 2.08648 14.7992 1.94981 13.9668 2.02813L13.8877 2.0418C13.7032 2.08699 13.5283 2.22806 13.5283 2.43438V3.71954H12.1221V2.36407C12.1221 2.18661 11.8941 2.07105 11.7197 2.03692L11.6494 2.02715C10.914 1.97581 10.1241 2.04837 9.37012 2.04082L9.0498 2.03204C8.91762 2.02171 8.67773 2.25234 8.67773 2.36407V3.71954H7.27148V2.43438C7.27148 2.26953 7.0922 2.05941 6.91016 2.02911L6.83301 2.02813C6.0068 2.09853 5.0394 1.93861 4.23047 2.02911L4.0918 2.05938C4.04405 2.07438 3.99809 2.09388 3.9668 2.11797C3.93248 2.14402 3.8252 2.3064 3.8252 2.32891V6.88848H1.69824V6.68829H3.62598V2.32891C3.62598 2.29505 3.6342 2.26826 3.63672 2.26055C3.64058 2.24875 3.64525 2.23829 3.64844 2.23125C3.65487 2.2171 3.66231 2.20296 3.66895 2.19121C3.68271 2.16687 3.69947 2.139 3.7168 2.11309C3.73426 2.08697 3.75401 2.05972 3.77246 2.03594C3.78516 2.01958 3.81285 1.98545 3.84473 1.96075V1.95977C3.90343 1.91458 3.97545 1.88578 4.03223 1.86797C4.09226 1.84916 4.15528 1.83677 4.20801 1.83086C4.63054 1.78357 5.09052 1.80144 5.53418 1.8211C5.98423 1.84104 6.4181 1.86272 6.81543 1.82891V1.82989C6.99977 1.80839 7.16408 1.90515 7.26855 2.00664C7.37489 2.1101 7.4707 2.26732 7.4707 2.43438V3.51934H8.47754V2.36407C8.47754 2.27577 8.51946 2.19902 8.5498 2.15313C8.58498 2.09997 8.63084 2.0486 8.67871 2.00469C8.72654 1.96084 8.78273 1.91893 8.8418 1.8875C8.89445 1.8595 8.97169 1.82914 9.05762 1.83379L9.05859 1.83282L9.06152 1.83379C9.06268 1.83387 9.06427 1.83273 9.06543 1.83282L9.06445 1.83379C9.4772 1.85266 9.90636 1.8365 10.3457 1.82305C10.7837 1.80964 11.2315 1.7978 11.6631 1.82793C11.7811 1.83618 11.9299 1.87851 12.0537 1.95196C12.1709 2.02154 12.3223 2.15572 12.3223 2.36407V3.51934H13.3281V2.43438C13.3281 2.24587 13.4211 2.09637 13.54 1.99688C13.6565 1.89957 13.8052 1.84234 13.9473 1.82891L14.2764 1.8084C14.6085 1.79645 14.9509 1.80791 15.2861 1.8211C15.7384 1.8389 16.1776 1.85919 16.5879 1.83282L16.5947 1.83184V1.83282L16.6514 1.83575C16.7065 1.8431 16.757 1.86163 16.7959 1.87969C16.8523 1.90592 16.908 1.94096 16.957 1.9793C17.0057 2.01737 17.0537 2.06376 17.0918 2.11407C17.1249 2.15779 17.1729 2.23466 17.1729 2.32891V6.68731H19.1006V6.8875H16.9736V2.32891ZM14.3018 4.2293V2.85625L14.3545 2.8045H16.2002V18.2254H4.59863V2.8045H6.44434L6.49707 2.85723V4.23028C6.49717 4.395 6.80011 4.48511 6.93555 4.4959C7.63414 4.55073 8.40576 4.45448 9.1123 4.49102C9.20053 4.50787 9.39297 4.35256 9.43945 4.26348L9.4502 4.23028V2.8045H11.3486V4.23028C11.3488 4.36301 11.6309 4.48403 11.751 4.4959C12.4475 4.5635 13.2561 4.44454 13.9648 4.49102C14.0531 4.50737 14.2442 4.35251 14.291 4.26348L14.3018 4.2293ZM14.502 4.2293C14.502 4.28592 14.4814 4.33211 14.4688 4.35625C14.4542 4.3841 14.4359 4.40937 14.4189 4.43047C14.3847 4.47299 14.3411 4.51462 14.2969 4.55059C14.2528 4.58646 14.201 4.62208 14.1475 4.64825C14.1072 4.6679 14.0339 4.69646 13.9512 4.68829V4.69024C13.6099 4.66788 13.2426 4.68528 12.8613 4.70098C12.4854 4.71646 12.0955 4.73045 11.7314 4.69512C11.6364 4.68576 11.5087 4.64066 11.4062 4.58282C11.3534 4.55295 11.2961 4.51282 11.249 4.4627C11.204 4.41472 11.1485 4.3357 11.1484 4.23028V3.00371H9.64941V4.23028C9.64939 4.28685 9.62883 4.33212 9.61621 4.35625C9.60167 4.38403 9.58433 4.40939 9.56738 4.43047C9.53316 4.47299 9.48949 4.51461 9.44531 4.55059C9.40119 4.5865 9.34953 4.62303 9.2959 4.64922C9.25617 4.66862 9.18394 4.69635 9.10254 4.68926V4.69121C8.7596 4.67345 8.39905 4.68728 8.02734 4.7C7.65984 4.71258 7.28108 4.72358 6.91895 4.69512C6.82817 4.68785 6.69486 4.65694 6.5791 4.60137C6.52078 4.57333 6.45533 4.53356 6.40234 4.47832C6.34794 4.42154 6.2969 4.33775 6.29688 4.23028V3.00469H4.79883V18.0262H16V3.00371H14.502V4.2293Z" fill="#00646E"/>
</svg>
