<svg width="20" height="20" viewBox="0 0 20 20" fill="none" xmlns="http://www.w3.org/2000/svg">
<path d="M11.666 16.9013V12.268C11.666 11.9366 11.9346 11.668 12.266 11.668H16.8993C17.2307 11.668 17.4993 11.9366 17.4993 12.268V16.9013C17.4993 17.2327 17.2307 17.5013 16.8993 17.5013H12.266C11.9346 17.5013 11.666 17.2327 11.666 16.9013Z" stroke="#00646E" stroke-width="1.2"/>
<path d="M2.5 16.9013V12.268C2.5 11.9366 2.76863 11.668 3.1 11.668H7.73333C8.0647 11.668 8.33333 11.9366 8.33333 12.268V16.9013C8.33333 17.2327 8.0647 17.5013 7.73333 17.5013H3.1C2.76863 17.5013 2.5 17.2327 2.5 16.9013Z" stroke="#00646E" stroke-width="1.2"/>
<path d="M11.666 7.73333V3.1C11.666 2.76863 11.9346 2.5 12.266 2.5H16.8993C17.2307 2.5 17.4993 2.76863 17.4993 3.1V7.73333C17.4993 8.0647 17.2307 8.33333 16.8993 8.33333H12.266C11.9346 8.33333 11.666 8.0647 11.666 7.73333Z" stroke="#00646E" stroke-width="1.2"/>
<path d="M2.5 7.73333V3.1C2.5 2.76863 2.76863 2.5 3.1 2.5H7.73333C8.0647 2.5 8.33333 2.76863 8.33333 3.1V7.73333C8.33333 8.0647 8.0647 8.33333 7.73333 8.33333H3.1C2.76863 8.33333 2.5 8.0647 2.5 7.73333Z" stroke="#00646E" stroke-width="1.2"/>
</svg>
