<svg width="24" height="24" viewBox="0 0 24 24" fill="none" xmlns="http://www.w3.org/2000/svg">
<path d="M14.1218 14.1213C15.2933 12.9497 15.2933 11.0503 14.1218 9.87868C12.9502 8.70711 11.0507 8.70711 9.87913 9.87868C8.70756 11.0503 8.70756 12.9497 9.87913 14.1213C11.0507 15.2929 12.9502 15.2929 14.1218 14.1213Z" stroke="#00646E" stroke-width="1.5" stroke-miterlimit="1.5" stroke-linecap="round" stroke-linejoin="round"/>
<path fill-rule="evenodd" clip-rule="evenodd" d="M9.87966 9.87936C9.87966 9.87936 7.0774 9.88855 5.63702 8.46515C4.22846 7.05518 2.77253 5.67137 4.22281 4.22251C5.60096 2.84577 7.03214 4.20766 8.46545 5.63672C9.87118 7.0382 9.87966 9.87936 9.87966 9.87936Z" stroke="#00646E" stroke-width="1.5" stroke-miterlimit="1.5" stroke-linecap="round" stroke-linejoin="round"/>
<path fill-rule="evenodd" clip-rule="evenodd" d="M14.1206 9.87966C14.1206 9.87966 14.1114 7.0774 15.5349 5.63702C16.9448 4.22846 18.3286 2.77253 19.7775 4.22281C21.1542 5.60096 19.7923 7.03214 18.3633 8.46545C16.9618 9.87118 14.1206 9.87966 14.1206 9.87966Z" stroke="#00646E" stroke-width="1.5" stroke-miterlimit="1.5" stroke-linecap="round" stroke-linejoin="round"/>
<path fill-rule="evenodd" clip-rule="evenodd" d="M9.87936 14.1203C9.87936 14.1203 9.88855 16.9226 8.46515 18.363C7.05518 19.7715 5.67137 21.2275 4.22251 19.7772C2.84577 18.399 4.20766 16.9679 5.63672 15.5346C7.0382 14.1288 9.87936 14.1203 9.87936 14.1203Z" stroke="#00646E" stroke-width="1.5" stroke-miterlimit="1.5" stroke-linecap="round" stroke-linejoin="round"/>
<path fill-rule="evenodd" clip-rule="evenodd" d="M14.1203 14.1206C14.1203 14.1206 16.9226 14.1114 18.363 15.5349C19.7715 16.9448 21.2275 18.3286 19.7772 19.7775C18.399 21.1542 16.9679 19.7923 15.5346 18.3633C14.1288 16.9618 14.1203 14.1206 14.1203 14.1206Z" stroke="#00646E" stroke-width="1.5" stroke-miterlimit="1.5" stroke-linecap="round" stroke-linejoin="round"/>
</svg>
