<svg width="56" height="33" viewBox="0 0 56 33" fill="none" xmlns="http://www.w3.org/2000/svg">
<path d="M9.74281 10.2488C10.5326 9.7274 11.5088 9.15701 12.47 9.5586C13.7383 7.24026 15.2576 5.47734 18.1808 6.43027C23.8903 8.29256 19.456 15.7622 13.7836 14.0632C12.0463 13.5432 10.9289 12.0634 9.19298 11.7462C8.79809 13.874 8.08647 15.8806 8.81866 18.0397C10.0952 21.8024 15.5661 20.976 18.0396 18.8292C19.6959 17.3917 20.6695 14.2103 23.361 15.8534C23.8683 16.1638 26.5571 18.6141 26.8067 18.5542C28.0942 17.1303 29.2432 14.488 31.5879 15.7172C32.1925 16.0344 34.869 18.5447 35.1761 18.5202C36.5089 17.4121 37.152 15.1033 39.28 15.4314C40.5099 15.6206 42.4528 17.9103 43.6059 18.5542C43.6717 16.5749 42.4953 14.9426 41.552 13.3104L43.5579 11.0778C44.1297 10.9771 45.5722 14.2143 45.6531 14.8228C45.7833 15.7976 45.6983 16.7505 45.1759 17.5931C44.8838 18.0642 42.9025 20.4111 42.5049 20.6589C40.344 22.0066 38.5492 18.0574 36.8229 18.1377C35.7356 18.188 35.0774 20.0313 34.193 20.5731C32.2035 21.7915 30.8817 19.4296 29.4763 18.4957C27.4552 17.1521 26.8944 20.0354 25.5603 20.716C23.2897 21.8745 21.6704 18.0329 19.9565 18.1336C19.1776 18.1799 17.3129 20.471 16.5985 21.0741C14.4678 22.8751 11.7351 23.9056 8.9832 22.7771C5.41685 21.3137 5.28248 17.0364 5.83368 13.7896C2.85144 17.0064 2.4593 21.4117 3.63985 25.4956C3.86335 26.2689 4.25961 26.9754 4.39809 27.735C4.37204 27.9174 2.37429 30.4631 2.13434 30.6728C2.01505 30.7776 1.98077 30.8484 1.78881 30.8048C-1.30038 24.0594 -0.735466 15.9827 6.2368 12.0117C6.60701 9.59944 8.06179 7.02517 8.4745 4.70411C8.55677 4.23717 8.37578 3.55923 8.6459 3.24068C9.44664 2.97114 10.863 1.36341 11.5143 1.18508C11.7913 1.10884 11.8749 1.1633 11.938 1.47232L9.74281 10.2502V10.2488ZM19.1996 11.8783C19.53 11.4059 17.5378 9.67567 17.1086 9.40068C15.6483 8.46409 14.0304 8.32387 12.758 9.63755C14.8558 10.453 16.7398 12.6842 19.1996 11.8783Z" fill="white"/>
<path d="M48.1803 20.1397C46.5061 18.4693 47.7155 14.3091 48.3709 12.3216C48.9728 10.4974 50.1437 8.70319 50.1876 6.80414C50.6374 6.53324 53.115 4.85744 53.4071 4.94048C53.8335 5.06164 53.3742 6.47878 53.2754 6.84498C52.2347 10.6744 49.4239 15.5098 49.7941 19.5598C49.8325 19.9831 50.407 20.9306 49.609 20.8449C49.3183 20.8135 48.3914 20.3507 48.1803 20.1411V20.1397Z" fill="white"/>
<path d="M43.6096 25.3594L46.079 30.2602C46.1901 30.3446 46.419 29.8681 46.4711 29.7673C47.1937 28.3502 47.7326 26.8024 48.4086 25.3607H50.3282V32.7119H48.4086V27.4027C48.1768 27.5606 48.0041 28.0398 47.8793 28.3066C47.3021 29.5359 46.6768 31.4704 45.9693 32.5363C45.6978 32.946 45.4812 33.0196 45.2275 32.5363L42.6511 27.675V32.7119H41.8284V25.9733C41.8284 25.8658 41.461 25.6003 41.5542 25.3607H43.6109L43.6096 25.3594Z" fill="white"/>
<path d="M31.5444 25.9037V27.8096L31.1234 27.7238C30.6038 26.3529 29.2683 25.5429 27.7819 25.7757C27.0182 25.8955 26.5123 26.4087 27.1636 27.0527C28.4991 28.3704 33.0307 28.4467 31.7075 31.5791C30.9932 33.2698 28.3441 33.2086 26.8838 32.6395C25.3098 32.0256 25.6471 31.5219 25.6484 29.9863C26.201 29.8515 26.223 30.5812 26.4958 30.9828C26.9072 31.5886 27.3555 32.0392 28.0863 32.2625C29.7728 32.777 31.8529 31.7887 29.6686 30.5553C28.2673 29.7631 25.6964 29.4894 25.6388 27.4706C25.5566 24.5995 29.7632 24.7847 31.5444 25.9037Z" fill="white"/>
<path d="M22.4938 29.5795V25.3594H23.3164V32.8467L22.5226 32.8167L17.8319 26.993V32.7105H17.1463V25.972C17.1463 25.9216 16.7994 25.6711 16.7363 25.5622V25.3594H18.9973L22.4938 29.5795Z" fill="white"/>
<path d="M15.5006 32.7079L13.5756 32.6466L13.0463 31.4323L9.97082 31.3425C9.46624 32.0395 9.69659 32.9543 8.50781 32.7079L11.7492 25.2383L12.2785 25.3594L15.5006 32.7092V32.7079ZM10.2903 30.5311H12.6212L11.4544 27.8071C11.1692 27.7486 11.2652 27.9228 11.1884 28.0821C10.8223 28.8431 10.57 29.732 10.2903 30.5311Z" fill="white"/>
<path d="M40.1803 32.7079L38.2552 32.6466L37.726 31.4323L34.6505 31.3425C34.1459 32.0395 34.3763 32.9543 33.1875 32.7079L36.4289 25.2383L36.9581 25.3594L40.1803 32.7092V32.7079ZM34.97 30.5311H37.3009C36.9527 29.7225 36.6442 28.8757 36.2657 28.0821C36.1889 27.9215 36.2849 27.7499 35.9997 27.8085L34.97 30.5325V30.5311Z" fill="white"/>
<path d="M55.1254 2.21611L54.2807 3.96405C52.8479 3.7408 51.3232 4.63383 49.9808 4.53036C49.7765 4.51403 49.5846 4.63655 49.6408 4.32753L51.0106 3.43858L50.1838 2.81645C50.5128 0.958243 52.4448 -0.231556 54.3013 0.0379863C54.3479 0.242185 54.2259 0.336117 54.1381 0.487224C53.4046 1.77096 52.8616 1.2836 51.559 1.53545C51.666 1.81996 52.6477 2.21475 52.8616 2.21475H55.124L55.1254 2.21611Z" fill="white"/>
<path d="M40.0085 8.23946C42.9839 7.70855 42.9414 12.1492 40.1223 11.7381C38.2315 11.4631 38.1493 8.57163 40.0085 8.23946Z" fill="white"/>
</svg>
