<?xml version="1.0" encoding="UTF-8"?>
<svg id="Layer_1" xmlns="http://www.w3.org/2000/svg" version="1.1" viewBox="0 0 258 146">
  <!-- Generator: Adobe Illustrator 30.0.0, SVG Export Plug-In . SVG Version: 2.1.1 Build 123)  -->
  <defs>
    <style>
      .st0 {
        fill: #faf8f8;
      }
    </style>
  </defs>
  <path class="st0" d="M241.6,118.99c-.37.08-.68-.43-.91-.68-3.04-3.16-6.37-8.32-9.23-11.92-7.99-10.05-16.32-20.9-25.04-30.26-7.63-8.18-17.07-15.69-25.74-22.78-7.81-6.39-15.91-12.43-23.68-18.86,8.26-6.76,16.79-13.18,25.04-19.94,6.05-4.97,11.52-9.64,16.74-14.54H2c-1.1,0-2,.89-2,1.99v142c0,1.1.9,2,2,2h254c1.1,0,2-.9,2-2v-45.79c-5.49,6.91-10.87,13.9-16.4,20.78Z"/>
</svg>