<svg width="18" height="18" viewBox="0 0 18 18" fill="none" xmlns="http://www.w3.org/2000/svg">
<g clip-path="url(#clip0_6180_9582)">
<path d="M0.75 15.25V2.75C0.75 1.64543 1.64543 0.75 2.75 0.75H15.25C16.3546 0.75 17.25 1.64543 17.25 2.75V15.25C17.25 16.3546 16.3546 17.25 15.25 17.25H2.75C1.64543 17.25 0.75 16.3546 0.75 15.25Z" stroke="black" stroke-width="1.2"/>
<path d="M11.25 5.25L12.75 5.25H14.25" stroke="black" stroke-width="1.2" stroke-linecap="round" stroke-linejoin="round"/>
<path d="M11.25 11.625H12.75L14.25 11.625" stroke="black" stroke-width="1.2" stroke-linecap="round" stroke-linejoin="round"/>
<path d="M11.25 13.875H12.75L14.25 13.875" stroke="black" stroke-width="1.2" stroke-linecap="round" stroke-linejoin="round"/>
<path d="M3.75 5.25H5.25M6.75 5.25H5.25M5.25 5.25V3.75M5.25 5.25V6.75" stroke="black" stroke-width="1.2" stroke-linecap="round" stroke-linejoin="round"/>
<path d="M4.18957 13.8107L5.25023 12.75M6.31089 11.6893L5.25023 12.75M5.25023 12.75L4.18957 11.6893M5.25023 12.75L6.31089 13.8107" stroke="black" stroke-width="1.2" stroke-linecap="round" stroke-linejoin="round"/>
</g>
<defs>
<clipPath id="clip0_6180_9582">
<rect width="18" height="18" fill="white"/>
</clipPath>
</defs>
</svg>
