<svg width="92" height="69" viewBox="0 0 92 69" fill="none" xmlns="http://www.w3.org/2000/svg">
<path d="M0 2C0 0.895432 0.895431 0 2 0H89.2319C90.3365 0 91.2319 0.895431 91.2319 2V66.1117C91.2319 67.2162 90.3365 68.1117 89.2319 68.1117H2C0.895432 68.1117 0 67.2162 0 66.1117V2Z" fill="#021C3B"/>
<path d="M26.4685 27.2136C27.3172 26.643 28.3661 26.0189 29.3989 26.4583C30.7617 23.9214 32.3941 21.9923 35.5351 23.0351C41.6698 25.0729 36.9052 33.2467 30.8103 31.3876C28.9437 30.8186 27.7429 29.1993 25.8778 28.8522C25.4535 31.1806 24.6888 33.3763 25.4756 35.7389C26.8472 39.8564 32.7256 38.9521 35.3834 36.6029C37.1631 35.0299 38.2091 31.5485 41.1011 33.3465C41.6463 33.6862 44.5354 36.3676 44.8035 36.302C46.1869 34.7438 47.4215 31.8524 49.9408 33.1976C50.5905 33.5447 53.4664 36.2916 53.7964 36.2648C55.2284 35.0522 55.9194 32.5257 58.2059 32.8847C59.5274 33.0918 61.6151 35.5974 62.8541 36.302C62.9248 34.1361 61.6607 32.3499 60.6471 30.5638L62.8025 28.1208C63.4169 28.0106 64.9668 31.553 65.0537 32.2189C65.1937 33.2855 65.1023 34.3282 64.541 35.2503C64.2272 35.7657 62.0983 38.3339 61.6711 38.605C59.3492 40.0798 57.4207 35.7583 55.5658 35.8462C54.3975 35.9013 53.6903 37.9183 52.74 38.5112C50.6023 39.8444 49.1821 37.2599 47.672 36.238C45.5004 34.7677 44.8978 37.9228 43.4643 38.6676C41.0245 39.9353 39.2846 35.7315 37.443 35.8417C36.6062 35.8924 34.6025 38.3995 33.8349 39.0594C31.5455 41.0302 28.6092 42.1579 25.6523 40.923C21.8204 39.3216 21.676 34.6411 22.2682 31.0882C19.0638 34.6083 18.6425 39.4288 19.911 43.8978C20.1511 44.744 20.5769 45.5171 20.7257 46.3483C20.6977 46.5479 18.5511 49.3336 18.2933 49.563C18.1651 49.6777 18.1283 49.7552 17.9221 49.7075C14.6028 42.3262 15.2097 33.4881 22.7014 29.1427C23.0992 26.503 24.6623 23.6861 25.1058 21.1462C25.1942 20.6352 24.9997 19.8934 25.2899 19.5448C26.1503 19.2498 27.6722 17.4905 28.372 17.2954C28.6696 17.212 28.7595 17.2716 28.8273 17.6097L26.4685 27.2151V27.2136ZM36.6297 28.9967C36.9848 28.4798 34.8441 26.5864 34.383 26.2855C32.814 25.2606 31.0755 25.1072 29.7083 26.5447C31.9624 27.437 33.9867 29.8786 36.6297 28.9967Z" fill="white"/>
<path d="M67.7688 38.0416C65.97 36.2138 67.2694 31.6614 67.9736 29.4865C68.6204 27.4903 69.8786 25.5269 69.9257 23.4489C70.409 23.1524 73.0712 21.3186 73.385 21.4095C73.8432 21.5421 73.3496 23.0928 73.2436 23.4936C72.1253 27.684 69.1051 32.9753 69.5029 37.407C69.5441 37.8703 70.1614 38.9071 69.304 38.8133C68.9917 38.779 67.9957 38.2725 67.7688 38.0431V38.0416Z" fill="white"/>
<path d="M62.8575 43.75L65.5109 49.1128C65.6303 49.2052 65.8763 48.6838 65.9323 48.5735C66.7087 47.0228 67.2877 45.329 68.014 43.7515H70.0766V51.7957H68.014V45.986C67.765 46.1588 67.5794 46.6831 67.4453 46.9751C66.8251 48.3203 66.1533 50.4371 65.3931 51.6035C65.1013 52.0519 64.8686 52.1323 64.596 51.6035L61.8277 46.2839V51.7957H60.9438V44.4218C60.9438 44.3042 60.5489 44.0137 60.6491 43.7515H62.859L62.8575 43.75Z" fill="white"/>
<path d="M49.8921 44.3464V46.4319L49.4398 46.338C48.8815 44.8379 47.4465 43.9516 45.8494 44.2063C45.0288 44.3374 44.4852 44.899 45.185 45.6036C46.62 47.0456 51.4892 47.1291 50.0674 50.5568C49.2999 52.4069 46.4535 52.3399 44.8844 51.7172C43.1931 51.0454 43.5556 50.4942 43.557 48.8139C44.1508 48.6664 44.1743 49.4648 44.4675 49.9043C44.9095 50.5672 45.3913 51.0603 46.1765 51.3046C47.9886 51.8677 50.2236 50.7862 47.8767 49.4365C46.371 48.5696 43.6086 48.2701 43.5467 46.061C43.4583 42.9193 47.9783 43.1219 49.8921 44.3464Z" fill="white"/>
<path d="M40.1668 48.368V43.75H41.0507V51.9432L40.1977 51.9104L35.1576 45.5376V51.7942H34.421V44.4203C34.421 44.3652 34.0482 44.0911 33.9805 43.972V43.75H36.4099L40.1668 48.368Z" fill="white"/>
<path d="M32.6543 51.791L30.5859 51.7239L30.0172 50.3952L26.7126 50.2968C26.1704 51.0596 26.418 52.0606 25.1406 51.791L28.6235 43.6172L29.1921 43.7498L32.6543 51.7925V51.791ZM27.0559 49.409H29.5605L28.3067 46.4282C28.0003 46.3641 28.1034 46.5548 28.0209 46.7291C27.6275 47.5618 27.3564 48.5346 27.0559 49.409Z" fill="white"/>
<path d="M59.1739 51.791L57.1054 51.7239L56.5367 50.3952L53.2321 50.2968C52.69 51.0596 52.9375 52.0606 51.6602 51.791L55.143 43.6172L55.7117 43.7498L59.1739 51.7925V51.791ZM53.5754 49.409H56.08C55.7058 48.5241 55.3743 47.5976 54.9677 46.7291C54.8852 46.5533 54.9883 46.3656 54.6818 46.4297L53.5754 49.4105V49.409Z" fill="white"/>
<path d="M75.2319 18.425L74.3244 20.3378C72.7848 20.0935 71.1465 21.0707 69.7042 20.9575C69.4846 20.9396 69.2784 21.0737 69.3388 20.7355L70.8106 19.7627L69.9222 19.082C70.2758 17.0486 72.3516 15.7466 74.3465 16.0416C74.3966 16.265 74.2654 16.3678 74.1711 16.5332C73.3829 17.9379 72.7995 17.4046 71.3999 17.6802C71.5148 17.9915 72.5697 18.4235 72.7995 18.4235H75.2304L75.2319 18.425Z" fill="white"/>
<path d="M58.988 25.0171C62.185 24.4361 62.1394 29.2954 59.1103 28.8455C57.0787 28.5446 56.9903 25.3805 58.988 25.0171Z" fill="white"/>
</svg>
