<svg width="155" height="20" viewBox="0 0 155 20" fill="none" xmlns="http://www.w3.org/2000/svg">
<path d="M1.41569 12.8401L2.2521 14.2611C3.10892 15.4397 4.73839 16.7877 6.04147 17.416C7.17369 17.9636 8.42066 18.1044 9.50443 18.6936C10.0909 18.2243 10.7794 18.2817 11.4221 18.0496C14.0639 17.0901 15.8515 15.4188 17.3356 13.0331C17.3892 12.7776 17.2821 12.8766 17.1775 12.8115C16.6114 12.4725 15.9892 12.6576 16.0529 11.7346C16.1014 11.0411 16.5043 11.3149 16.9531 11.4791C17.2005 11.5704 18.348 12.1727 18.5214 12.3135C19.0926 12.7802 18.478 13.505 18.2052 13.9222C15.9586 17.3587 13.4238 19.0795 9.39732 19.8356C6.07207 19.0352 3.67248 18.0548 1.49219 15.2989C1.20914 14.9417 0.0208164 13.3355 0.00296607 13.0383C-0.0199843 12.6889 0.0896663 12.423 0.352321 12.2092C0.653226 11.9641 2.50456 10.9629 2.67541 11.4948C2.92786 12.2744 2.00985 12.6941 1.41569 12.8428V12.8401Z" fill="white"/>
<path d="M17.4669 7.76344C16.2123 5.64628 14.6057 4.01669 12.3285 3.0598C11.5406 2.72867 10.8572 2.61655 10.0794 2.36625C9.88305 2.30367 9.70965 2.04294 9.52604 2.06119C9.36284 2.07683 9.11039 2.35321 8.86303 2.42621C8.28672 2.59569 7.70786 2.65045 7.11625 2.85382C4.64526 3.6986 2.67918 5.49505 1.2894 7.70086C1.91672 8.08153 3.08208 8.42831 2.56952 9.40084C2.26862 9.62247 0.256636 8.57171 0.108733 8.25362C-0.0570198 7.89902 -0.00346962 7.66175 0.159733 7.3254C0.58814 6.45977 2.31452 4.44169 3.06933 3.79507C4.99462 2.14201 7.12645 1.61272 9.5133 1C13.4557 1.67269 16.0159 3.47176 18.2038 6.81176C18.5481 7.33844 19.0913 7.95638 18.4053 8.52999C18.1477 8.7438 16.4367 9.58597 16.1817 9.40084C15.6946 8.51696 16.758 7.9642 17.4618 7.76344H17.4669Z" fill="white"/>
<path d="M5.20766 12.6117C5.32496 12.7265 5.54681 13.2975 5.75082 13.5504C6.82949 14.8932 7.44149 14.4134 8.83637 14.8228C9.07097 14.8906 9.33618 15.1852 9.48408 15.1617C9.59373 15.1435 9.81049 14.8932 10.0502 14.8228C11.3227 14.4499 12.1336 14.8697 13.1357 13.6807C13.8039 12.8881 13.7529 12.0746 15.1758 12.5804C15.3441 12.8151 13.2862 15.0574 12.9266 15.2895C12.154 15.7901 10.9376 15.8344 10.0298 15.9726C9.02507 16.1264 9.31578 16.0221 8.32381 15.8657C6.61783 15.5971 6.19963 15.7536 4.98835 14.33C4.78945 14.0953 3.68783 12.6013 3.83829 12.4475C4.20039 12.4735 4.9399 12.3484 5.20766 12.6091V12.6117Z" fill="white"/>
<path d="M13.8086 8.37886C13.6046 8.20417 13.2373 7.40111 12.9492 7.1117C11.9955 6.14959 11.0239 6.5798 10.0192 6.20174C9.78204 6.11309 9.52703 5.79238 9.39698 5.82106C9.30773 5.84192 9.12158 6.10526 8.86658 6.20174C8.14491 6.4729 7.3289 6.2591 6.55114 6.69713C5.42912 7.32811 5.52347 9.07763 3.83789 8.47794C4.4601 7.27335 5.50052 5.66723 6.86479 5.32567C7.4105 5.19009 8.11941 5.21355 8.68807 5.10665C8.93287 5.05972 9.21593 4.81724 9.40208 4.80159C9.61884 4.78334 10.0064 5.07797 10.3022 5.13012C10.8633 5.2318 11.5773 5.20052 12.1255 5.34914C13.4031 5.69591 14.4512 7.30464 15.1728 8.35018C15.1601 8.64481 14.0738 8.60049 13.8111 8.37626L13.8086 8.37886Z" fill="white"/>
<path d="M11.859 10.7564C10.9869 11.2101 10.1658 11.8593 9.63027 12.7093C8.91371 11.9506 8.18695 11.2049 7.27148 10.6939C8.09515 10.1281 8.97236 9.5701 9.50277 8.67578L11.8565 10.7564H11.859Z" fill="white"/>
<path d="M52.2999 5.8738C55.6937 6.25404 56.4483 9.8423 53.6755 11.6697L55.4554 14.8961L53.4697 14.8075L51.8124 11.9908L50.2274 11.9502V14.8961H48.4258V5.8738C49.6678 5.97347 51.0867 5.73721 52.3035 5.8738H52.2999ZM50.2238 10.2964C51.3756 10.289 53.6249 10.6323 53.5635 8.91201C53.5022 7.19171 51.2997 7.78606 50.2238 7.71961V10.2964Z" fill="white"/>
<path d="M61.4952 5.87591C63.6542 6.13432 64.9179 7.62205 64.3005 9.84441C63.9936 10.9445 63.3835 11.0294 62.8744 11.8305L64.6544 14.8982L62.6686 14.8096C61.4952 13.6431 61.524 11.4392 59.4227 11.9523V14.8982H57.6211V5.87591C58.8559 5.98297 60.2929 5.73194 61.4988 5.87591H61.4952ZM59.4227 10.2985C60.4228 10.3096 62.5964 10.5458 62.6866 9.10239C62.8022 7.21966 60.625 7.78817 59.4227 7.71803V10.2985Z" fill="white"/>
<path d="M29.3047 14.9012V5.87891H32.4603C32.7022 5.87891 34.0272 6.2333 34.3486 6.34405C37.7822 7.54752 37.8616 12.8302 34.6013 14.3253C34.2764 14.473 33.0849 14.9012 32.8213 14.9012H29.3047ZM31.1063 13.2437C33.2835 13.1514 35.1934 12.8967 35.0815 10.1981C34.984 7.82439 33.0596 7.56229 31.1063 7.71733V13.2437Z" fill="white"/>
<path d="M120.735 9.55888H124.342V6.1515C124.772 5.64575 125.552 5.94477 126.144 5.87463V14.897H124.342V11.2127H120.735V14.897H118.934V5.87463C119.526 5.94477 120.309 5.64575 120.735 6.1515V9.55888Z" fill="white"/>
<path d="M111.72 5.8754V9.55964C112.68 8.85454 113.983 6.01199 115.049 5.86801C115.525 5.80526 116.096 5.92708 116.59 5.87909L113.893 9.8402L116.955 14.8091C116.958 14.9457 115.633 14.942 115.41 14.9125C114.294 14.7574 113.474 11.974 112.532 11.2209C112.532 11.4941 111.72 12.1622 111.72 12.2324V14.9014H109.918V5.87909H111.72V5.8754Z" fill="white"/>
<path d="M71.1162 5.90018L74.5678 14.8967L72.6073 14.8745L71.7408 13.0878L68.4119 13.1653L67.8704 14.8745L65.9062 14.893L69.3146 5.98509L71.1126 5.89648L71.1162 5.90018ZM70.4194 8.63936C69.95 8.55446 70.1414 8.7095 70.0439 8.90147C69.6828 9.62503 69.4734 10.6292 69.1593 11.4007H71.322L70.4194 8.63936Z" fill="white"/>
<path d="M136.427 14.9005L134.618 14.8156L133.792 13.0843C132.896 13.1249 131.784 12.9403 130.921 13.051C130.011 13.1655 130.242 14.1659 129.766 14.8193L127.957 14.9042L131.38 5.9705C131.907 5.84129 132.831 5.68993 133.171 6.17353L136.431 14.9042L136.427 14.9005ZM133.181 11.4009C133.311 11.2754 132.322 8.46973 132.102 8.63954L131.199 11.4009H133.181Z" fill="white"/>
<path d="M96.3918 14.904C94.6082 15.1033 94.3519 14.867 93.8861 13.1763L90.5609 13.0914L89.6907 14.8707L87.918 14.9003C88.3404 13.7854 90.875 6.25448 91.3407 5.96653C91.6404 5.78195 92.8283 5.78195 93.0557 6.05882L96.3918 14.9003V14.904ZM93.146 11.4043L92.1567 8.64296L90.9833 11.4043H93.146Z" fill="white"/>
<path d="M40.6669 5.87479V11.6743C40.6669 11.9512 41.2012 12.863 41.5009 13.0328C42.8693 13.8192 44.4543 12.863 44.4543 11.3052V5.87109L45.9635 5.89693C46.1982 5.95969 46.2198 6.12212 46.2595 6.33255C46.4726 7.50648 46.2848 11.4713 45.9563 12.6526C45.2414 15.2183 41.3168 15.7388 39.7642 13.8856C39.5296 13.6051 38.8652 12.1542 38.8652 11.8589V5.87479H40.6669Z" fill="white"/>
<path d="M144.184 5.87694V7.71906H140.036V9.56118H143.823V11.4033H140.036V14.903H138.234V5.87694H144.184Z" fill="white"/>
<path d="M82.5031 5.87695V7.71907H79.9794V14.903H78.1741V7.71907H75.6504V5.87695H82.5031Z" fill="white"/>
<path d="M99.8153 5.87463V12.9662L100.086 13.2431H103.964V14.9007H98.0137V6.1515C98.4433 5.64575 99.2232 5.94477 99.8153 5.87463Z" fill="white"/>
<path d="M150.855 5.87695V12.9686C150.855 13.0904 150.205 14.1462 150.017 14.3234C148.895 15.3829 145.974 15.2684 145.461 13.5445L146.616 12.5145C147.266 13.5629 148.887 13.6035 149.061 12.2413C149.295 10.3992 148.844 8.08085 149.075 6.17967L149.346 5.90279L150.855 5.87695Z" fill="white"/>
<path d="M154.999 5.87695H153.197V14.8993H154.999V5.87695Z" fill="white"/>
</svg>
