<svg width="13" height="14" viewBox="0 0 13 14" fill="none" xmlns="http://www.w3.org/2000/svg">
<mask id="path-1-inside-1_3574_37148" fill="white">
<path d="M12.5186 11.5098C12.4971 11.6337 12.4828 11.7532 12.46 11.8711C12.4091 12.1339 12.3382 12.3915 12.2451 12.6426C12.2013 12.7606 12.1525 12.8771 12.1074 12.9902C12.0978 12.9937 12.0937 12.9952 12.0898 12.9961C11.9218 13.0318 11.753 13.0677 11.585 13.1035C11.2666 13.1713 10.9483 13.239 10.6299 13.3066C10.3032 13.3761 9.97611 13.4455 9.64941 13.5146C9.39614 13.5683 9.1429 13.622 8.88965 13.6758C8.63883 13.729 8.38749 13.7825 8.13672 13.8359C7.9186 13.8824 7.70041 13.9285 7.48242 13.9756C7.4534 13.9818 7.42508 13.9918 7.39648 14H7.37402C7.38002 13.9176 7.38716 13.8348 7.39941 13.7529C7.42722 13.567 7.46468 13.383 7.5127 13.2012C7.56194 13.0148 7.62057 12.8307 7.69141 12.6514C7.72141 12.5754 7.75526 12.5008 7.78516 12.4248C7.79339 12.4041 7.8054 12.395 7.82617 12.3906C8.02679 12.3488 8.22726 12.3062 8.42773 12.2637C8.68125 12.2099 8.93498 12.1554 9.18848 12.1016C9.51103 12.033 9.8337 11.965 10.1562 11.8965C10.4749 11.8288 10.7937 11.7601 11.1123 11.6924C11.4348 11.6238 11.7575 11.5559 12.0801 11.4873C12.2251 11.4565 12.3701 11.4249 12.5186 11.3945C12.5219 11.4315 12.5218 11.4682 12.5186 11.5098ZM5.89844 0.00390625C5.90053 0.00904635 5.90137 0.0103596 5.90137 0.0117188C5.90134 2.2529 5.90042 4.49417 5.90039 6.73535V6.77637C6.3924 6.67182 6.88041 6.5689 7.37012 6.46484V1.99609C7.369 1.97873 7.37345 1.96486 7.38574 1.95117C7.4768 1.85027 7.56402 1.74531 7.6582 1.64746C7.74865 1.5535 7.84389 1.4636 7.94141 1.37695C8.20781 1.14025 8.49617 0.932874 8.80566 0.755859C8.8182 0.748715 8.83176 0.743313 8.84961 0.734375V6.14941C8.8694 6.14579 8.88613 6.14312 8.90234 6.13965C9.08796 6.09992 9.27329 6.05889 9.45898 6.01953C9.78181 5.95112 10.105 5.88405 10.4277 5.81543C10.7464 5.74767 11.0651 5.67818 11.3838 5.61035C11.6766 5.54803 11.9698 5.48692 12.2627 5.4248C12.3494 5.40642 12.4359 5.38722 12.5225 5.36816C12.5225 5.40444 12.5228 5.4409 12.5195 5.48242C12.4981 5.60798 12.4839 5.72925 12.4609 5.84863C12.4106 6.11017 12.3387 6.36637 12.2461 6.61621C12.2019 6.73535 12.1526 6.85258 12.1064 6.96875C11.0168 7.20032 9.93293 7.43111 8.85059 7.66113V9.16016C8.86531 9.15788 8.87764 9.15682 8.88965 9.1543C9.04555 9.12134 9.20159 9.08801 9.35742 9.05469C9.74111 8.97264 10.125 8.89033 10.5088 8.80859C10.9127 8.72257 11.3167 8.63737 11.7207 8.55176L12.5225 8.38184C12.5225 8.40707 12.5222 8.43265 12.5195 8.46387C12.5152 8.49746 12.5156 8.5254 12.5117 8.55273C12.4863 8.73229 12.4544 8.91078 12.4111 9.08691C12.3386 9.38237 12.241 9.66971 12.1182 9.94824C12.1074 9.97258 12.0937 9.98491 12.0684 9.99023C11.8932 10.0267 11.718 10.0644 11.543 10.1016C11.2204 10.17 10.8977 10.2381 10.5752 10.3066C10.2823 10.3689 9.98922 10.4318 9.69629 10.4941C9.43866 10.5489 9.18052 10.6036 8.92285 10.6582C8.69375 10.7067 8.46441 10.7549 8.23535 10.8037C8.01854 10.8499 7.80175 10.8961 7.58496 10.9424C7.5148 10.9574 7.44392 10.9718 7.36914 10.9873V7.97559C6.87685 8.0802 6.38914 8.18423 5.90039 8.28809V9.91504C5.90036 9.95932 5.89922 10.0039 5.89453 10.0479C5.8846 10.141 5.85944 10.2308 5.81055 10.3105C5.75043 10.4085 5.68422 10.5032 5.62012 10.5986C5.43365 10.8763 5.2461 11.154 5.05957 11.4316C4.9828 11.5459 4.89994 11.655 4.7959 11.7471C4.6215 11.9013 4.42132 12.0037 4.19434 12.0527C3.88692 12.1191 3.57911 12.1836 3.27148 12.249C2.91617 12.3246 2.56036 12.4009 2.20508 12.4766C1.85941 12.5502 1.51366 12.6237 1.16797 12.6973C0.815458 12.7723 0.462959 12.8473 0.110352 12.9219C0.0740253 12.9296 0.036699 12.9335 0 12.9395C2.43603e-07 12.928 0.000197963 12.9161 0.00292969 12.8994C0.0127027 12.8437 0.0186817 12.7926 0.0263672 12.7422C0.0570053 12.5413 0.0955336 12.3422 0.147461 12.1455C0.217708 11.8796 0.308649 11.6206 0.419922 11.3691C0.428719 11.3493 0.43892 11.3393 0.460938 11.335C0.583215 11.3106 0.705216 11.2848 0.827148 11.2588C1.17153 11.1852 1.5159 11.1103 1.86035 11.0371C2.18309 10.9685 2.50634 10.9015 2.8291 10.833C3.08272 10.7792 3.33626 10.7239 3.58984 10.6699C3.85432 10.6136 4.11926 10.558 4.38379 10.502C4.39673 10.4992 4.40943 10.4953 4.4209 10.4922V8.60254C3.17966 8.86627 1.94118 9.12946 0.698242 9.39355C0.755596 8.83151 0.897696 8.29907 1.12695 7.79102C2.22709 7.5572 3.32505 7.32414 4.42285 7.09082V1.26172C4.42066 1.24259 4.42783 1.22804 4.44043 1.21387C4.52172 1.12288 4.59963 1.02784 4.68457 0.94043C4.78319 0.838962 4.88533 0.7405 4.99023 0.645508C5.23889 0.42036 5.50981 0.224946 5.79883 0.0546875C5.82822 0.0373722 5.85698 0.0183845 5.88574 0C5.88933 1.60231e-06 5.8928 0.000245958 5.89844 0.00390625Z"/>
</mask>
<path d="M12.5186 11.5098C12.4971 11.6337 12.4828 11.7532 12.46 11.8711C12.4091 12.1339 12.3382 12.3915 12.2451 12.6426C12.2013 12.7606 12.1525 12.8771 12.1074 12.9902C12.0978 12.9937 12.0937 12.9952 12.0898 12.9961C11.9218 13.0318 11.753 13.0677 11.585 13.1035C11.2666 13.1713 10.9483 13.239 10.6299 13.3066C10.3032 13.3761 9.97611 13.4455 9.64941 13.5146C9.39614 13.5683 9.1429 13.622 8.88965 13.6758C8.63883 13.729 8.38749 13.7825 8.13672 13.8359C7.9186 13.8824 7.70041 13.9285 7.48242 13.9756C7.4534 13.9818 7.42508 13.9918 7.39648 14H7.37402C7.38002 13.9176 7.38716 13.8348 7.39941 13.7529C7.42722 13.567 7.46468 13.383 7.5127 13.2012C7.56194 13.0148 7.62057 12.8307 7.69141 12.6514C7.72141 12.5754 7.75526 12.5008 7.78516 12.4248C7.79339 12.4041 7.8054 12.395 7.82617 12.3906C8.02679 12.3488 8.22726 12.3062 8.42773 12.2637C8.68125 12.2099 8.93498 12.1554 9.18848 12.1016C9.51103 12.033 9.8337 11.965 10.1562 11.8965C10.4749 11.8288 10.7937 11.7601 11.1123 11.6924C11.4348 11.6238 11.7575 11.5559 12.0801 11.4873C12.2251 11.4565 12.3701 11.4249 12.5186 11.3945C12.5219 11.4315 12.5218 11.4682 12.5186 11.5098ZM5.89844 0.00390625C5.90053 0.00904635 5.90137 0.0103596 5.90137 0.0117188C5.90134 2.2529 5.90042 4.49417 5.90039 6.73535V6.77637C6.3924 6.67182 6.88041 6.5689 7.37012 6.46484V1.99609C7.369 1.97873 7.37345 1.96486 7.38574 1.95117C7.4768 1.85027 7.56402 1.74531 7.6582 1.64746C7.74865 1.5535 7.84389 1.4636 7.94141 1.37695C8.20781 1.14025 8.49617 0.932874 8.80566 0.755859C8.8182 0.748715 8.83176 0.743313 8.84961 0.734375V6.14941C8.8694 6.14579 8.88613 6.14312 8.90234 6.13965C9.08796 6.09992 9.27329 6.05889 9.45898 6.01953C9.78181 5.95112 10.105 5.88405 10.4277 5.81543C10.7464 5.74767 11.0651 5.67818 11.3838 5.61035C11.6766 5.54803 11.9698 5.48692 12.2627 5.4248C12.3494 5.40642 12.4359 5.38722 12.5225 5.36816C12.5225 5.40444 12.5228 5.4409 12.5195 5.48242C12.4981 5.60798 12.4839 5.72925 12.4609 5.84863C12.4106 6.11017 12.3387 6.36637 12.2461 6.61621C12.2019 6.73535 12.1526 6.85258 12.1064 6.96875C11.0168 7.20032 9.93293 7.43111 8.85059 7.66113V9.16016C8.86531 9.15788 8.87764 9.15682 8.88965 9.1543C9.04555 9.12134 9.20159 9.08801 9.35742 9.05469C9.74111 8.97264 10.125 8.89033 10.5088 8.80859C10.9127 8.72257 11.3167 8.63737 11.7207 8.55176L12.5225 8.38184C12.5225 8.40707 12.5222 8.43265 12.5195 8.46387C12.5152 8.49746 12.5156 8.5254 12.5117 8.55273C12.4863 8.73229 12.4544 8.91078 12.4111 9.08691C12.3386 9.38237 12.241 9.66971 12.1182 9.94824C12.1074 9.97258 12.0937 9.98491 12.0684 9.99023C11.8932 10.0267 11.718 10.0644 11.543 10.1016C11.2204 10.17 10.8977 10.2381 10.5752 10.3066C10.2823 10.3689 9.98922 10.4318 9.69629 10.4941C9.43866 10.5489 9.18052 10.6036 8.92285 10.6582C8.69375 10.7067 8.46441 10.7549 8.23535 10.8037C8.01854 10.8499 7.80175 10.8961 7.58496 10.9424C7.5148 10.9574 7.44392 10.9718 7.36914 10.9873V7.97559C6.87685 8.0802 6.38914 8.18423 5.90039 8.28809V9.91504C5.90036 9.95932 5.89922 10.0039 5.89453 10.0479C5.8846 10.141 5.85944 10.2308 5.81055 10.3105C5.75043 10.4085 5.68422 10.5032 5.62012 10.5986C5.43365 10.8763 5.2461 11.154 5.05957 11.4316C4.9828 11.5459 4.89994 11.655 4.7959 11.7471C4.6215 11.9013 4.42132 12.0037 4.19434 12.0527C3.88692 12.1191 3.57911 12.1836 3.27148 12.249C2.91617 12.3246 2.56036 12.4009 2.20508 12.4766C1.85941 12.5502 1.51366 12.6237 1.16797 12.6973C0.815458 12.7723 0.462959 12.8473 0.110352 12.9219C0.0740253 12.9296 0.036699 12.9335 0 12.9395C2.43603e-07 12.928 0.000197963 12.9161 0.00292969 12.8994C0.0127027 12.8437 0.0186817 12.7926 0.0263672 12.7422C0.0570053 12.5413 0.0955336 12.3422 0.147461 12.1455C0.217708 11.8796 0.308649 11.6206 0.419922 11.3691C0.428719 11.3493 0.43892 11.3393 0.460938 11.335C0.583215 11.3106 0.705216 11.2848 0.827148 11.2588C1.17153 11.1852 1.5159 11.1103 1.86035 11.0371C2.18309 10.9685 2.50634 10.9015 2.8291 10.833C3.08272 10.7792 3.33626 10.7239 3.58984 10.6699C3.85432 10.6136 4.11926 10.558 4.38379 10.502C4.39673 10.4992 4.40943 10.4953 4.4209 10.4922V8.60254C3.17966 8.86627 1.94118 9.12946 0.698242 9.39355C0.755596 8.83151 0.897696 8.29907 1.12695 7.79102C2.22709 7.5572 3.32505 7.32414 4.42285 7.09082V1.26172C4.42066 1.24259 4.42783 1.22804 4.44043 1.21387C4.52172 1.12288 4.59963 1.02784 4.68457 0.94043C4.78319 0.838962 4.88533 0.7405 4.99023 0.645508C5.23889 0.42036 5.50981 0.224946 5.79883 0.0546875C5.82822 0.0373722 5.85698 0.0183845 5.88574 0C5.88933 1.60231e-06 5.8928 0.000245958 5.89844 0.00390625Z" fill="#333A3B"/>
<path d="M12.5186 11.5098L12.6175 11.5269L12.6182 11.5176L12.5186 11.5098ZM12.46 11.8711L12.5581 11.8901V11.8901L12.46 11.8711ZM12.2451 12.6426L12.3389 12.6773V12.6773L12.2451 12.6426ZM12.1074 12.9902L12.141 13.0844L12.1836 13.0693L12.2003 13.0272L12.1074 12.9902ZM12.0898 12.9961L12.1106 13.0939L12.1123 13.0935L12.0898 12.9961ZM11.585 13.1035L11.5641 13.0057L11.585 13.1035ZM10.6299 13.3066L10.6507 13.4045L10.6299 13.3066ZM9.64941 13.5146L9.6287 13.4168H9.6287L9.64941 13.5146ZM8.88965 13.6758L8.86889 13.578L8.88965 13.6758ZM8.13672 13.8359L8.11588 13.7381H8.11588L8.13672 13.8359ZM7.48242 13.9756L7.50352 14.0733H7.50352L7.48242 13.9756ZM7.39648 14V14.1H7.41061L7.42418 14.0961L7.39648 14ZM7.37402 14L7.27429 13.9927L7.26649 14.1H7.37402V14ZM7.39941 13.7529L7.30051 13.7381L7.30051 13.7381L7.39941 13.7529ZM7.5127 13.2012L7.41601 13.1756L7.41601 13.1756L7.5127 13.2012ZM7.69141 12.6514L7.5984 12.6146L7.5984 12.6146L7.69141 12.6514ZM7.78516 12.4248L7.6922 12.3879L7.69211 12.3882L7.78516 12.4248ZM7.82617 12.3906L7.84658 12.4885L7.84659 12.4885L7.82617 12.3906ZM8.42773 12.2637L8.40697 12.1659L8.42773 12.2637ZM9.18848 12.1016L9.16769 12.0037L9.18848 12.1016ZM10.1562 11.8965L10.1355 11.7987H10.1355L10.1562 11.8965ZM11.1123 11.6924L11.0915 11.5946H11.0915L11.1123 11.6924ZM12.0801 11.4873L12.1009 11.5851L12.0801 11.4873ZM12.5186 11.3945L12.6181 11.3854L12.6079 11.2742L12.4985 11.2966L12.5186 11.3945ZM5.89844 0.00390625L5.99105 -0.0338108L5.97921 -0.062882L5.95288 -0.0799723L5.89844 0.00390625ZM5.90137 0.0117188L5.80137 0.0116478V0.0117174L5.90137 0.0117188ZM5.90039 6.73535L5.80039 6.73535V6.73535H5.90039ZM5.90039 6.77637H5.80039V6.89985L5.92118 6.87418L5.90039 6.77637ZM7.37012 6.46484L7.3909 6.56266L7.47012 6.54583V6.46484H7.37012ZM7.37012 1.99609H7.47032L7.46991 1.98967L7.37012 1.99609ZM7.38574 1.95117L7.3115 1.88417L7.31136 1.88434L7.38574 1.95117ZM7.6582 1.64746L7.58616 1.57811L7.58616 1.57811L7.6582 1.64746ZM7.94141 1.37695L7.87499 1.3022L7.87498 1.3022L7.94141 1.37695ZM8.80566 0.755859L8.75615 0.668976L8.75602 0.669054L8.80566 0.755859ZM8.84961 0.734375H8.94961V0.572452L8.80483 0.644962L8.84961 0.734375ZM8.84961 6.14941H8.74961V6.2694L8.86763 6.24778L8.84961 6.14941ZM8.90234 6.13965L8.92327 6.23743H8.92327L8.90234 6.13965ZM9.45898 6.01953L9.43825 5.9217V5.9217L9.45898 6.01953ZM10.4277 5.81543L10.4069 5.71762L10.4277 5.81543ZM11.3838 5.61035L11.363 5.51254L11.3838 5.61035ZM12.2627 5.4248L12.2834 5.52263L12.2834 5.52263L12.2627 5.4248ZM12.5225 5.36816H12.6225V5.24375L12.501 5.2705L12.5225 5.36816ZM12.5195 5.48242L12.6185 5.49934L12.6192 5.4902L12.5195 5.48242ZM12.4609 5.84863L12.5591 5.86754L12.5591 5.86754L12.4609 5.84863ZM12.2461 6.61621L12.3399 6.65096L12.3399 6.65096L12.2461 6.61621ZM12.1064 6.96875L12.1272 7.06657L12.1796 7.05544L12.1994 7.0057L12.1064 6.96875ZM8.85059 7.66113L8.8298 7.56332L8.75059 7.58015V7.66113H8.85059ZM8.85059 9.16016H8.75059V9.27683L8.86589 9.25898L8.85059 9.16016ZM8.88965 9.1543L8.91023 9.25216L8.91033 9.25213L8.88965 9.1543ZM9.35742 9.05469L9.33651 8.9569L9.35742 9.05469ZM10.5088 8.80859L10.488 8.71079L10.5088 8.80859ZM11.7207 8.55176L11.7 8.45393H11.7L11.7207 8.55176ZM12.5225 8.38184H12.6225V8.25842L12.5017 8.28401L12.5225 8.38184ZM12.5195 8.46387L12.6188 8.47656L12.6192 8.47253L12.5195 8.46387ZM12.5117 8.55273L12.6107 8.56677L12.6107 8.56677L12.5117 8.55273ZM12.4111 9.08691L12.5082 9.11076V9.11076L12.4111 9.08691ZM12.1182 9.94824L12.2096 9.98879L12.2097 9.98858L12.1182 9.94824ZM12.0684 9.99023L12.0888 10.0881L12.0889 10.0881L12.0684 9.99023ZM11.543 10.1016L11.5222 10.0037H11.5222L11.543 10.1016ZM10.5752 10.3066L10.5544 10.2088H10.5544L10.5752 10.3066ZM9.69629 10.4941L9.7171 10.592H9.7171L9.69629 10.4941ZM8.92285 10.6582L8.90212 10.5604L8.92285 10.6582ZM8.23535 10.8037L8.25618 10.9015L8.23535 10.8037ZM7.58496 10.9424L7.56409 10.8446L7.56409 10.8446L7.58496 10.9424ZM7.36914 10.9873H7.26914V11.1102L7.38949 11.0852L7.36914 10.9873ZM7.36914 7.97559H7.46914V7.8521L7.34835 7.87777L7.36914 7.97559ZM5.90039 8.28809L5.8796 8.19027L5.80039 8.2071V8.28809H5.90039ZM5.90039 9.91504L6.00039 9.91511V9.91504H5.90039ZM5.89453 10.0479L5.99397 10.0585L5.99397 10.0585L5.89453 10.0479ZM5.81055 10.3105L5.89577 10.3629L5.89581 10.3628L5.81055 10.3105ZM5.62012 10.5986L5.5371 10.5429L5.5371 10.5429L5.62012 10.5986ZM5.05957 11.4316L4.97656 11.3759L5.05957 11.4316ZM4.7959 11.7471L4.86215 11.822L4.86216 11.822L4.7959 11.7471ZM4.19434 12.0527L4.21544 12.1505H4.21545L4.19434 12.0527ZM3.27148 12.249L3.25069 12.1512H3.25069L3.27148 12.249ZM2.20508 12.4766L2.22592 12.5744H2.22592L2.20508 12.4766ZM1.16797 12.6973L1.14716 12.5995H1.14716L1.16797 12.6973ZM0.110352 12.9219L0.0896683 12.824H0.0896672L0.110352 12.9219ZM0 12.9395L-0.1 12.9395L-0.100002 13.0569L0.0159138 13.0382L0 12.9395ZM0.00292969 12.8994L-0.0955747 12.8821L-0.0957598 12.8833L0.00292969 12.8994ZM0.0263672 12.7422L-0.0724892 12.7271L-0.07249 12.7271L0.0263672 12.7422ZM0.147461 12.1455L0.0507774 12.12L0.0507749 12.12L0.147461 12.1455ZM0.419922 11.3691L0.328516 11.3286L0.328475 11.3287L0.419922 11.3691ZM0.460938 11.335L0.480464 11.433H0.480465L0.460938 11.335ZM0.827148 11.2588L0.806256 11.161H0.806255L0.827148 11.2588ZM1.86035 11.0371L1.88115 11.1349H1.88115L1.86035 11.0371ZM2.8291 10.833L2.84987 10.9308L2.8291 10.833ZM3.58984 10.6699L3.56902 10.5721H3.56902L3.58984 10.6699ZM4.38379 10.502L4.40452 10.5998L4.40468 10.5997L4.38379 10.502ZM4.4209 10.4922L4.4472 10.5887L4.5209 10.5686V10.4922H4.4209ZM4.4209 8.60254H4.5209V8.47906L4.40011 8.50472L4.4209 8.60254ZM0.698242 9.39355L0.598759 9.3834L0.584832 9.51988L0.719026 9.49137L0.698242 9.39355ZM1.12695 7.79102L1.10616 7.6932L1.05663 7.70373L1.0358 7.74988L1.12695 7.79102ZM4.42285 7.09082L4.44364 7.18864L4.52285 7.1718V7.09082H4.42285ZM4.42285 1.26172H4.52351L4.5222 1.25033L4.42285 1.26172ZM4.44043 1.21387L4.36585 1.14724L4.36569 1.14743L4.44043 1.21387ZM4.68457 0.94043L4.61286 0.870733L4.61286 0.870737L4.68457 0.94043ZM4.99023 0.645508L4.92311 0.57138L4.92311 0.571381L4.99023 0.645508ZM5.79883 0.0546875L5.74807 -0.031475L5.74807 -0.0314736L5.79883 0.0546875ZM5.88574 0L5.88579 -0.1L5.85654 -0.100013L5.83189 -0.0842606L5.88574 0ZM12.5186 11.5098L12.42 11.4927C12.397 11.6261 12.3849 11.7328 12.3618 11.8521L12.46 11.8711L12.5581 11.8901C12.5807 11.7736 12.5973 11.6413 12.6171 11.5268L12.5186 11.5098ZM12.46 11.8711L12.3618 11.8521C12.3119 12.1098 12.2424 12.3622 12.1514 12.6078L12.2451 12.6426L12.3389 12.6773C12.4339 12.4209 12.5063 12.1579 12.5581 11.8901L12.46 11.8711ZM12.2451 12.6426L12.1514 12.6078C12.1081 12.7244 12.0605 12.8378 12.0145 12.9532L12.1074 12.9902L12.2003 13.0272C12.2445 12.9164 12.2946 12.7969 12.3389 12.6773L12.2451 12.6426ZM12.1074 12.9902L12.0739 12.896C12.0682 12.898 12.066 12.8988 12.0642 12.8995C12.0627 12.9 12.0644 12.8993 12.0673 12.8987L12.0898 12.9961L12.1123 13.0935C12.1235 13.091 12.1355 13.0864 12.141 13.0844L12.1074 12.9902ZM12.0898 12.9961L12.0691 12.8983C11.901 12.934 11.7322 12.9699 11.5641 13.0057L11.585 13.1035L11.6058 13.2013C11.7738 13.1655 11.9426 13.1296 12.1106 13.0939L12.0898 12.9961ZM11.585 13.1035L11.5641 13.0057C11.2458 13.0735 10.9275 13.1412 10.6091 13.2088L10.6299 13.3066L10.6507 13.4045C10.969 13.3368 11.2874 13.2691 11.6058 13.2013L11.585 13.1035ZM10.6299 13.3066L10.6091 13.2088C10.2825 13.2782 9.95537 13.3476 9.6287 13.4168L9.64941 13.5146L9.67013 13.6125C9.99685 13.5433 10.324 13.4739 10.6507 13.4045L10.6299 13.3066ZM9.64941 13.5146L9.6287 13.4168C9.3754 13.4705 9.12213 13.5242 8.86889 13.578L8.88965 13.6758L8.91041 13.7736C9.16367 13.7199 9.41688 13.6661 9.67013 13.6125L9.64941 13.5146ZM8.88965 13.6758L8.86889 13.578C8.61804 13.6312 8.36666 13.6847 8.11588 13.7381L8.13672 13.8359L8.15756 13.9337C8.40832 13.8803 8.65963 13.8268 8.91041 13.7736L8.88965 13.6758ZM8.13672 13.8359L8.11588 13.7381C7.89797 13.7846 7.67949 13.8308 7.46133 13.8778L7.48242 13.9756L7.50352 14.0733C7.72134 14.0263 7.93923 13.9803 8.15756 13.9337L8.13672 13.8359ZM7.48242 13.9756L7.46133 13.8778C7.42811 13.885 7.38992 13.8978 7.36878 13.9039L7.39648 14L7.42418 14.0961C7.46023 14.0857 7.4787 14.0787 7.50352 14.0733L7.48242 13.9756ZM7.39648 14V13.9H7.37402V14V14.1H7.39648V14ZM7.37402 14L7.47376 14.0073C7.47971 13.9255 7.48664 13.8458 7.49831 13.7677L7.39941 13.7529L7.30051 13.7381C7.28769 13.8239 7.28032 13.9097 7.27429 13.9927L7.37402 14ZM7.39941 13.7529L7.49831 13.7677C7.52561 13.5853 7.56234 13.4048 7.60938 13.2267L7.5127 13.2012L7.41601 13.1756C7.36701 13.3612 7.32884 13.5488 7.30051 13.7381L7.39941 13.7529ZM7.5127 13.2012L7.60938 13.2267C7.65777 13.0435 7.71523 12.8632 7.78441 12.6881L7.69141 12.6514L7.5984 12.6146C7.52591 12.7981 7.4661 12.986 7.41601 13.1756L7.5127 13.2012ZM7.69141 12.6514L7.78441 12.6881C7.79888 12.6515 7.81436 12.615 7.8304 12.5771C7.84628 12.5396 7.86271 12.5008 7.87821 12.4614L7.78516 12.4248L7.69211 12.3882C7.6777 12.4248 7.66226 12.4613 7.64624 12.4991C7.63038 12.5365 7.61393 12.5753 7.5984 12.6146L7.69141 12.6514ZM7.78516 12.4248L7.87811 12.4617C7.87785 12.4623 7.87427 12.4708 7.86419 12.479C7.85442 12.487 7.84596 12.4886 7.84658 12.4885L7.82617 12.3906L7.80576 12.2927C7.78561 12.2969 7.76076 12.3053 7.73773 12.3241C7.7144 12.3431 7.7007 12.3665 7.6922 12.3879L7.78516 12.4248ZM7.82617 12.3906L7.84659 12.4885C8.04741 12.4466 8.24806 12.404 8.4485 12.3615L8.42773 12.2637L8.40697 12.1659C8.20647 12.2084 8.00617 12.2509 7.80576 12.2927L7.82617 12.3906ZM8.42773 12.2637L8.4485 12.3615C8.70156 12.3078 8.95648 12.2531 9.20926 12.1994L9.18848 12.1016L9.16769 12.0037C8.91347 12.0578 8.66094 12.1119 8.40697 12.1659L8.42773 12.2637ZM9.18848 12.1016L9.20926 12.1994C9.53497 12.1302 9.85111 12.0636 10.177 11.9943L10.1562 11.8965L10.1355 11.7987C9.81629 11.8665 9.48709 11.9359 9.16769 12.0037L9.18848 12.1016ZM10.1562 11.8965L10.177 11.9943C10.4945 11.9269 10.816 11.8576 11.1331 11.7902L11.1123 11.6924L11.0915 11.5946C10.7714 11.6626 10.4553 11.7307 10.1355 11.7987L10.1562 11.8965ZM11.1123 11.6924L11.1331 11.7902C11.461 11.7205 11.7727 11.6549 12.1009 11.5851L12.0801 11.4873L12.0593 11.3895C11.7424 11.4569 11.4087 11.5271 11.0915 11.5946L11.1123 11.6924ZM12.0801 11.4873L12.1009 11.5851C12.2465 11.5542 12.3907 11.5228 12.5386 11.4925L12.5186 11.3945L12.4985 11.2966C12.3496 11.3271 12.2037 11.3588 12.0593 11.3895L12.0801 11.4873ZM12.5186 11.3945L12.419 11.4037C12.4218 11.434 12.4218 11.465 12.4189 11.502L12.5186 11.5098L12.6182 11.5176C12.6219 11.4714 12.6221 11.429 12.6181 11.3854L12.5186 11.3945ZM5.89844 0.00390625L5.80582 0.0416233C5.80668 0.0437171 5.80739 0.0454016 5.80791 0.0466043C5.80866 0.0483575 5.80839 0.0477148 5.80825 0.0473865C5.80813 0.0470754 5.80647 0.0431556 5.80495 0.0377455C5.80313 0.0313123 5.80136 0.0223735 5.80137 0.0116478L5.90137 0.0117188L6.00137 0.0117897C6.00138 -0.0106007 5.99369 -0.0275554 5.99312 -0.0289257C5.99272 -0.0299044 5.99235 -0.0307597 5.99215 -0.0312186C5.99205 -0.0314687 5.99194 -0.0317215 5.99186 -0.0318974C5.99178 -0.0320944 5.99171 -0.0322456 5.99165 -0.0323957C5.99142 -0.0329273 5.99125 -0.0333346 5.99105 -0.0338108L5.89844 0.00390625ZM5.90137 0.0117188L5.80137 0.0117174C5.80134 2.24958 5.80042 4.49744 5.80039 6.73535L5.90039 6.73535L6.00039 6.73535C6.00042 4.4909 6.00134 2.25622 6.00137 0.0117201L5.90137 0.0117188ZM5.90039 6.73535H5.80039V6.77637H5.90039H6.00039V6.73535H5.90039ZM5.90039 6.77637L5.92118 6.87418C6.16714 6.82192 6.4121 6.77006 6.65683 6.71825C6.90154 6.66645 7.146 6.6147 7.3909 6.56266L7.37012 6.46484L7.34933 6.36703C7.10452 6.41905 6.86013 6.47078 6.61541 6.52259C6.3707 6.57439 6.12565 6.62627 5.87961 6.67855L5.90039 6.77637ZM7.37012 6.46484H7.47012V1.99609H7.37012H7.27012V6.46484H7.37012ZM7.37012 1.99609L7.46991 1.98967C7.47003 1.99146 7.47006 1.99718 7.46754 2.00456C7.465 2.012 7.46144 2.01655 7.46013 2.01801L7.38574 1.95117L7.31136 1.88434C7.28062 1.91855 7.26752 1.95901 7.27032 2.00252L7.37012 1.99609ZM7.38574 1.95117L7.45998 2.01817C7.55513 1.91274 7.63711 1.81358 7.73025 1.71681L7.6582 1.64746L7.58616 1.57811C7.49093 1.67704 7.39847 1.78781 7.3115 1.88417L7.38574 1.95117ZM7.6582 1.64746L7.73025 1.71681C7.8185 1.62513 7.91178 1.53705 8.00783 1.45171L7.94141 1.37695L7.87498 1.3022C7.77599 1.39016 7.6788 1.48187 7.58616 1.57811L7.6582 1.64746ZM7.94141 1.37695L8.00783 1.45171C8.26909 1.21957 8.55184 1.01624 8.85531 0.842664L8.80566 0.755859L8.75602 0.669054C8.4405 0.849511 8.14652 1.06093 7.87499 1.3022L7.94141 1.37695ZM8.80566 0.755859L8.85518 0.842742C8.85766 0.841325 8.86103 0.839638 8.868 0.836378C8.87429 0.833437 8.8839 0.829039 8.89439 0.823788L8.84961 0.734375L8.80483 0.644962C8.79747 0.648648 8.79138 0.65142 8.78329 0.655201C8.77589 0.658662 8.7662 0.663249 8.75615 0.668976L8.80566 0.755859ZM8.84961 0.734375H8.74961V6.14941H8.84961H8.94961V0.734375H8.84961ZM8.84961 6.14941L8.86763 6.24778C8.88434 6.24472 8.9052 6.2413 8.92327 6.23743L8.90234 6.13965L8.88142 6.04186C8.86707 6.04493 8.85445 6.04686 8.83159 6.05105L8.84961 6.14941ZM8.90234 6.13965L8.92327 6.23743C9.11039 6.19738 9.29357 6.15681 9.47972 6.11736L9.45898 6.01953L9.43825 5.9217C9.25302 5.96096 9.06552 6.00246 8.88141 6.04186L8.90234 6.13965ZM9.45898 6.01953L9.47972 6.11736C9.80122 6.04922 10.1265 5.98171 10.4485 5.91324L10.4277 5.81543L10.4069 5.71762C10.0834 5.78639 9.7624 5.85301 9.43825 5.9217L9.45898 6.01953ZM10.4277 5.81543L10.4485 5.91324C10.7638 5.84622 11.09 5.77511 11.4046 5.70816L11.3838 5.61035L11.363 5.51254C11.0402 5.58125 10.7291 5.64913 10.4069 5.71762L10.4277 5.81543ZM11.3838 5.61035L11.4046 5.70816C11.6978 5.64575 11.9897 5.58494 12.2834 5.52263L12.2627 5.4248L12.2419 5.32698C11.95 5.3889 11.6554 5.45031 11.363 5.51254L11.3838 5.61035ZM12.2627 5.4248L12.2834 5.52263C12.3706 5.50414 12.4576 5.48483 12.544 5.46582L12.5225 5.36816L12.501 5.2705C12.4142 5.28961 12.3282 5.30869 12.2419 5.32698L12.2627 5.4248ZM12.5225 5.36816H12.4225C12.4225 5.40551 12.4227 5.43778 12.4198 5.47465L12.5195 5.48242L12.6192 5.4902C12.6228 5.44401 12.6225 5.40337 12.6225 5.36816H12.5225ZM12.5195 5.48242L12.421 5.46558C12.3978 5.60088 12.386 5.70891 12.3627 5.82973L12.4609 5.84863L12.5591 5.86754C12.5818 5.74958 12.5983 5.61509 12.6181 5.49927L12.5195 5.48242ZM12.4609 5.84863L12.3627 5.82972C12.3134 6.0858 12.243 6.3367 12.1523 6.58147L12.2461 6.61621L12.3399 6.65096C12.4343 6.39603 12.5077 6.13455 12.5591 5.86754L12.4609 5.84863ZM12.2461 6.61621L12.1523 6.58146C12.1087 6.69921 12.0607 6.81311 12.0135 6.9318L12.1064 6.96875L12.1994 7.0057C12.2446 6.89205 12.2952 6.7715 12.3399 6.65096L12.2461 6.61621ZM12.1064 6.96875L12.0857 6.87093C11.5408 6.98672 10.9974 7.10231 10.455 7.21771C9.91251 7.33311 9.37096 7.44831 8.8298 7.56332L8.85059 7.66113L8.87137 7.75895C9.41256 7.64393 9.95413 7.52873 10.4966 7.41333C11.0391 7.29794 11.5824 7.18235 12.1272 7.06657L12.1064 6.96875ZM8.85059 7.66113H8.75059V9.16016H8.85059H8.95059V7.66113H8.85059ZM8.85059 9.16016L8.86589 9.25898C8.87085 9.25821 8.89568 9.25522 8.91023 9.25216L8.88965 9.1543L8.86907 9.05644C8.85959 9.05843 8.85977 9.05754 8.83528 9.06133L8.85059 9.16016ZM8.88965 9.1543L8.91033 9.25213C9.06636 9.21915 9.2225 9.1858 9.37833 9.15248L9.35742 9.05469L9.33651 8.9569C9.18069 8.99022 9.02475 9.02353 8.86896 9.05646L8.88965 9.1543ZM9.35742 9.05469L9.37833 9.15248C9.76209 9.07042 10.1459 8.98813 10.5296 8.9064L10.5088 8.80859L10.488 8.71079C10.1042 8.79253 9.72013 8.87487 9.33651 8.9569L9.35742 9.05469ZM10.5088 8.80859L10.5296 8.9064C10.9334 8.82039 11.3373 8.73523 11.7414 8.64958L11.7207 8.55176L11.7 8.45393C11.2961 8.53952 10.8919 8.62475 10.488 8.71079L10.5088 8.80859ZM11.7207 8.55176L11.7414 8.64958L12.5432 8.47966L12.5225 8.38184L12.5017 8.28401L11.7 8.45393L11.7207 8.55176ZM12.5225 8.38184H12.4225C12.4225 8.40637 12.4222 8.42845 12.4199 8.45521L12.5195 8.46387L12.6192 8.47253C12.6223 8.43686 12.6225 8.40776 12.6225 8.38184H12.5225ZM12.5195 8.46387L12.4203 8.45119C12.4177 8.47155 12.4166 8.48992 12.4157 8.50428C12.4147 8.5196 12.414 8.52951 12.4127 8.5387L12.5117 8.55273L12.6107 8.56677C12.6133 8.54862 12.6144 8.53089 12.6153 8.51702C12.6162 8.50217 12.617 8.48977 12.6187 8.47655L12.5195 8.46387ZM12.5117 8.55273L12.4127 8.5387C12.3876 8.71595 12.3563 8.89102 12.314 9.06307L12.4111 9.08691L12.5082 9.11076C12.5525 8.93054 12.5849 8.74863 12.6107 8.56677L12.5117 8.55273ZM12.4111 9.08691L12.314 9.06307C12.2429 9.3529 12.1471 9.63472 12.0267 9.9079L12.1182 9.94824L12.2097 9.98858C12.3348 9.7047 12.4343 9.41184 12.5082 9.11076L12.4111 9.08691ZM12.1182 9.94824L12.0268 9.90769C12.025 9.91156 12.0266 9.90648 12.0337 9.90039C12.0372 9.89741 12.0408 9.89526 12.0438 9.89386C12.0467 9.89254 12.0483 9.89226 12.0478 9.89237L12.0684 9.99023L12.0889 10.0881C12.1138 10.0829 12.1401 10.0726 12.1637 10.0523C12.1867 10.0327 12.2005 10.0093 12.2096 9.98879L12.1182 9.94824ZM12.0684 9.99023L12.048 9.89234C11.8726 9.92889 11.6968 9.96668 11.5222 10.0037L11.543 10.1016L11.5637 10.1994C11.7391 10.1622 11.9139 10.1246 12.0888 10.0881L12.0684 9.99023ZM11.543 10.1016L11.5222 10.0037C11.1999 10.0721 10.8769 10.1403 10.5544 10.2088L10.5752 10.3066L10.596 10.4045C10.9186 10.3359 11.2409 10.2679 11.5637 10.1994L11.543 10.1016ZM10.5752 10.3066L10.5544 10.2088C10.2627 10.2709 9.96696 10.3343 9.67548 10.3963L9.69629 10.4941L9.7171 10.592C10.0115 10.5293 10.3019 10.467 10.596 10.4045L10.5752 10.3066ZM9.69629 10.4941L9.67548 10.3963C9.4179 10.4511 9.15981 10.5058 8.90212 10.5604L8.92285 10.6582L8.94358 10.756C9.20123 10.7014 9.45942 10.6468 9.7171 10.592L9.69629 10.4941ZM8.92285 10.6582L8.90212 10.5604C8.67328 10.6089 8.4436 10.6571 8.21453 10.7059L8.23535 10.8037L8.25618 10.9015C8.48522 10.8528 8.71421 10.8046 8.94358 10.756L8.92285 10.6582ZM8.23535 10.8037L8.21453 10.7059C7.99769 10.7521 7.78088 10.7983 7.56409 10.8446L7.58496 10.9424L7.60583 11.0402C7.82262 10.9939 8.03939 10.9477 8.25618 10.9015L8.23535 10.8037ZM7.58496 10.9424L7.56409 10.8446C7.49426 10.8595 7.42417 10.8737 7.34879 10.8894L7.36914 10.9873L7.38949 11.0852C7.46368 11.0698 7.53534 11.0552 7.60583 11.0402L7.58496 10.9424ZM7.36914 10.9873H7.46914V7.97559H7.36914H7.26914V10.9873H7.36914ZM7.36914 7.97559L7.34835 7.87777C7.10219 7.93008 6.85717 7.98224 6.61261 8.03431C6.36805 8.08638 6.12396 8.13834 5.8796 8.19027L5.90039 8.28809L5.92118 8.3859C6.16557 8.33397 6.40971 8.28199 6.65426 8.22993C6.89882 8.17786 7.1438 8.1257 7.38993 8.0734L7.36914 7.97559ZM5.90039 8.28809H5.80039V9.91504H5.90039H6.00039V8.28809H5.90039ZM5.90039 9.91504L5.80039 9.91497C5.80036 9.95786 5.79924 9.99838 5.79509 10.0372L5.89453 10.0479L5.99397 10.0585C5.9992 10.0094 6.00036 9.96079 6.00039 9.91511L5.90039 9.91504ZM5.89453 10.0479L5.7951 10.0372C5.78631 10.1196 5.76456 10.1942 5.72528 10.2583L5.81055 10.3105L5.89581 10.3628C5.95432 10.2673 5.98288 10.1623 5.99397 10.0585L5.89453 10.0479ZM5.81055 10.3105L5.72532 10.2582C5.66663 10.3538 5.60261 10.4453 5.5371 10.5429L5.62012 10.5986L5.70314 10.6544C5.76583 10.561 5.83423 10.4631 5.89577 10.3629L5.81055 10.3105ZM5.62012 10.5986L5.5371 10.5429C5.35013 10.8213 5.16379 11.0972 4.97656 11.3759L5.05957 11.4316L5.14258 11.4874C5.3284 11.2108 5.51717 10.9313 5.70314 10.6544L5.62012 10.5986ZM5.05957 11.4316L4.97656 11.3759C4.90161 11.4875 4.8243 11.5884 4.72964 11.6722L4.7959 11.7471L4.86216 11.822C4.97557 11.7216 5.06399 11.6044 5.14258 11.4874L5.05957 11.4316ZM4.7959 11.7471L4.72965 11.6722C4.56784 11.8153 4.38314 11.9097 4.17323 11.955L4.19434 12.0527L4.21545 12.1505C4.4595 12.0978 4.67515 11.9874 4.86215 11.822L4.7959 11.7471ZM4.19434 12.0527L4.17323 11.955C3.86601 12.0213 3.55871 12.0857 3.25069 12.1512L3.27148 12.249L3.29228 12.3468C3.59951 12.2815 3.90784 12.2169 4.21544 12.1505L4.19434 12.0527ZM3.27148 12.249L3.25069 12.1512C2.89543 12.2267 2.53927 12.3031 2.18424 12.3788L2.20508 12.4766L2.22592 12.5744C2.58146 12.4986 2.9369 12.4224 3.29228 12.3468L3.27148 12.249ZM2.20508 12.4766L2.18424 12.3788C1.83859 12.4524 1.49287 12.5259 1.14716 12.5995L1.16797 12.6973L1.18878 12.7951C1.53444 12.7215 1.88023 12.648 2.22592 12.5744L2.20508 12.4766ZM1.16797 12.6973L1.14716 12.5995C0.794619 12.6745 0.442197 12.7495 0.0896683 12.824L0.110352 12.9219L0.131035 13.0197C0.483722 12.9452 0.836297 12.8701 1.18878 12.7951L1.16797 12.6973ZM0.110352 12.9219L0.0896672 12.824C0.0559145 12.8312 0.0284847 12.8336 -0.0159138 12.8407L0 12.9395L0.0159138 13.0382C0.0449133 13.0335 0.0921361 13.0279 0.131036 13.0197L0.110352 12.9219ZM0 12.9395L0.1 12.9395C0.1 12.9342 0.100054 12.9308 0.100259 12.9274C0.100454 12.9242 0.100822 12.9204 0.101619 12.9156L0.00292969 12.8994L-0.0957598 12.8833C-0.099756 12.9077 -0.0999997 12.9257 -0.1 12.9395L0 12.9395ZM0.00292969 12.8994L0.101428 12.9167C0.11133 12.8602 0.118316 12.8026 0.125224 12.7573L0.0263672 12.7422L-0.07249 12.7271C-0.0809527 12.7826 -0.0859247 12.8271 -0.0955683 12.8821L0.00292969 12.8994ZM0.0263672 12.7422L0.125224 12.7573C0.155471 12.559 0.193347 12.3634 0.244147 12.171L0.147461 12.1455L0.0507749 12.12C-0.00227942 12.3209 -0.0414605 12.5237 -0.0724892 12.7271L0.0263672 12.7422ZM0.147461 12.1455L0.244144 12.171C0.313038 11.9102 0.402226 11.6563 0.511369 11.4096L0.419922 11.3691L0.328475 11.3287C0.215073 11.585 0.122377 11.8489 0.0507774 12.12L0.147461 12.1455ZM0.419922 11.3691L0.511328 11.4097C0.512718 11.4066 0.51005 11.414 0.500764 11.422C0.490591 11.4308 0.48118 11.4329 0.480464 11.433L0.460938 11.335L0.441411 11.2369C0.418677 11.2414 0.393157 11.2507 0.37018 11.2705C0.34809 11.2896 0.335923 11.3119 0.328516 11.3286L0.419922 11.3691ZM0.460938 11.335L0.480465 11.433C0.603453 11.4085 0.726011 11.3827 0.848042 11.3566L0.827148 11.2588L0.806255 11.161C0.68442 11.187 0.562976 11.2127 0.44141 11.2369L0.460938 11.335ZM0.827148 11.2588L0.848041 11.3566C1.19321 11.2828 1.53645 11.2082 1.88115 11.1349L1.86035 11.0371L1.83956 10.9393C1.49535 11.0125 1.14985 11.0876 0.806256 11.161L0.827148 11.2588ZM1.86035 11.0371L1.88115 11.1349C2.20678 11.0657 2.52356 11.0001 2.84987 10.9308L2.8291 10.833L2.80833 10.7352C2.48913 10.803 2.15941 10.8713 1.83956 10.9393L1.86035 11.0371ZM2.8291 10.833L2.84987 10.9308C3.10245 10.8772 3.35878 10.8214 3.61067 10.7677L3.58984 10.6699L3.56902 10.5721C3.31373 10.6265 3.063 10.6811 2.80833 10.7352L2.8291 10.833ZM3.58984 10.6699L3.61067 10.7677C3.87515 10.7114 4.13966 10.6559 4.40452 10.5998L4.38379 10.502L4.36306 10.4041C4.09886 10.4601 3.83348 10.5158 3.56902 10.5721L3.58984 10.6699ZM4.38379 10.502L4.40468 10.5997C4.42124 10.5962 4.43962 10.5907 4.4472 10.5887L4.4209 10.4922L4.3946 10.3957C4.37924 10.3999 4.37221 10.4022 4.3629 10.4042L4.38379 10.502ZM4.4209 10.4922H4.5209V8.60254H4.4209H4.3209V10.4922H4.4209ZM4.4209 8.60254L4.40011 8.50472C3.15882 8.76847 1.92045 9.03163 0.677458 9.29574L0.698242 9.39355L0.719026 9.49137C1.96191 9.22729 3.20051 8.96408 4.44168 8.70036L4.4209 8.60254ZM0.698242 9.39355L0.797726 9.40371C0.854007 8.85216 0.993358 8.3302 1.2181 7.83215L1.12695 7.79102L1.0358 7.74988C0.802034 8.26793 0.657184 8.81086 0.598759 9.3834L0.698242 9.39355ZM1.12695 7.79102L1.14774 7.88883C1.6978 7.77192 2.24732 7.65521 2.79655 7.53855C3.34578 7.42189 3.89473 7.3053 4.44364 7.18864L4.42285 7.09082L4.40206 6.99301C3.85317 7.10967 3.30423 7.22626 2.755 7.34291C2.20577 7.45957 1.65624 7.57629 1.10616 7.6932L1.12695 7.79102ZM4.42285 7.09082H4.52285V1.26172H4.42285H4.32285V7.09082H4.42285ZM4.42285 1.26172L4.5222 1.25033C4.52296 1.25697 4.52209 1.26513 4.51905 1.2728C4.51645 1.27936 4.51363 1.28204 4.51517 1.2803L4.44043 1.21387L4.36569 1.14743C4.34166 1.17446 4.31698 1.2162 4.3235 1.27311L4.42285 1.26172ZM4.44043 1.21387L4.51501 1.28049C4.60034 1.18497 4.67303 1.09579 4.75628 1.01012L4.68457 0.94043L4.61286 0.870737C4.52622 0.959882 4.4431 1.06078 4.36585 1.14725L4.44043 1.21387ZM4.68457 0.94043L4.75628 1.01013C4.85339 0.910216 4.95399 0.81323 5.05735 0.719635L4.99023 0.645508L4.92311 0.571381C4.81666 0.667771 4.71299 0.767709 4.61286 0.870733L4.68457 0.94043ZM4.99023 0.645508L5.05735 0.719636C5.30053 0.499449 5.56587 0.307983 5.84959 0.140849L5.79883 0.0546875L5.74807 -0.0314736C5.45375 0.14191 5.17725 0.34127 4.92311 0.57138L4.99023 0.645508ZM5.79883 0.0546875L5.84958 0.14085C5.88106 0.122309 5.91253 0.101557 5.9396 0.0842606L5.88574 0L5.83189 -0.0842606C5.80142 -0.0647875 5.77539 -0.0475643 5.74807 -0.031475L5.79883 0.0546875ZM5.88574 0L5.8857 0.1C5.8851 0.0999997 5.8768 0.100096 5.86645 0.0974375C5.85599 0.0947523 5.84837 0.0906269 5.84399 0.0877848L5.89844 0.00390625L5.95288 -0.0799723C5.94287 -0.0864747 5.93069 -0.0925524 5.9162 -0.0962753C5.90181 -0.0999716 5.88997 -0.0999981 5.88579 -0.1L5.88574 0Z" fill="#EFEDE9" mask="url(#path-1-inside-1_3574_37148)"/>
</svg>
