<svg width="119" height="46" viewBox="0 0 119 46" fill="none" xmlns="http://www.w3.org/2000/svg">
<g clip-path="url(#clip0_3801_16162)">
<path d="M48.8312 15.8834L49.9523 17.7902C51.1008 19.3716 53.2849 21.1803 55.0315 22.0235C56.5492 22.7582 58.2206 22.9472 59.6733 23.7378C60.4594 23.1081 61.3823 23.1851 62.2437 22.8737C65.7848 21.5862 68.1809 19.3436 70.1702 16.1423C70.2419 15.7995 70.0984 15.9324 69.9582 15.8449C69.1994 15.3901 68.3654 15.6385 68.4509 14.4C68.5158 13.4694 69.0559 13.8367 69.6575 14.0571C69.989 14.1796 71.5271 14.9878 71.7596 15.1767C72.5252 15.803 71.7015 16.7756 71.3357 17.3354C68.3244 21.9465 64.9269 24.2556 59.5297 25.2702C55.0726 24.1962 51.8562 22.8807 48.9337 19.1826C48.5543 18.7033 46.9615 16.5482 46.9376 16.1493C46.9068 15.6805 47.0538 15.3236 47.4058 15.0368C47.8092 14.7079 50.2907 13.3644 50.5197 14.0781C50.8581 15.1242 49.6276 15.6875 48.8312 15.8869V15.8834Z" fill="#213B66"/>
<path d="M70.3396 9.07154C68.6579 6.23065 66.5045 4.04401 63.4522 2.76001C62.396 2.31569 61.4799 2.16524 60.4374 1.82938C60.1742 1.74541 59.9418 1.39555 59.6957 1.42004C59.4769 1.44103 59.1386 1.81188 58.807 1.90984C58.0345 2.13726 57.2586 2.21073 56.4656 2.48362C53.1535 3.61718 50.5182 6.02773 48.6553 8.98757C49.4962 9.49837 51.0582 9.96369 50.3712 11.2687C49.9679 11.5661 47.271 10.1561 47.0728 9.72928C46.8506 9.25347 46.9224 8.93509 47.1411 8.48377C47.7154 7.32223 50.0294 4.61429 51.0412 3.74663C53.6218 1.52849 56.4793 0.818272 59.6786 -0.00390625C64.9629 0.89874 68.3947 3.3128 71.3274 7.79454C71.7888 8.50126 72.5169 9.33044 71.5974 10.1001C71.2522 10.387 68.9587 11.5171 68.6169 11.2687C67.964 10.0826 69.3893 9.34094 70.3327 9.07154H70.3396Z" fill="#213B66"/>
<path d="M21.7691 37.3461C24.9821 37.7065 25.6965 41.1072 23.0714 42.839L24.7565 45.8968L22.8766 45.8128L21.3077 43.1434L19.8072 43.1049V45.8968H18.1016V37.3461C19.2774 37.4406 20.6207 37.2167 21.7726 37.3461H21.7691ZM19.8038 41.5375C20.8941 41.5305 23.0236 41.8559 22.9655 40.2255C22.9074 38.5951 20.8223 39.1584 19.8038 39.0954V41.5375Z" fill="#213B66"/>
<path d="M30.4723 37.3481C32.5163 37.593 33.7126 39.003 33.1281 41.1092C32.8376 42.1517 32.2599 42.2322 31.778 42.9914L33.4631 45.8988L31.5831 45.8148C30.4723 44.7092 30.4996 42.6206 28.5103 43.1069V45.8988H26.8047V37.3481C27.9737 37.4496 29.3341 37.2117 30.4757 37.3481H30.4723ZM28.5103 41.5395C29.4571 41.55 31.5148 41.7739 31.6002 40.4059C31.7096 38.6216 29.6485 39.1604 28.5103 39.0939V41.536V41.5395Z" fill="#213B66"/>
<path d="M0 45.9022V37.3516H2.98739C3.2164 37.3516 4.47083 37.6874 4.77504 37.7924C8.02562 38.9329 8.10082 43.9395 5.0143 45.3564C4.70668 45.4964 3.57872 45.9022 3.3292 45.9022H0ZM1.70562 44.3313C3.76671 44.2439 5.57487 44.0025 5.46891 41.445C5.37662 39.1953 3.55479 38.9469 1.70562 39.0939V44.3313Z" fill="#213B66"/>
<path d="M86.5572 40.8396H89.9718V37.6103C90.3786 37.131 91.1169 37.4144 91.6774 37.3479V45.8986H89.9718V42.407H86.5572V45.8986H84.8516V37.3479C85.4121 37.4144 86.1538 37.131 86.5572 37.6103V40.8396Z" fill="#213B66"/>
<path d="M78.0259 37.3487V40.8403C78.9351 40.1721 80.1691 37.4781 81.1774 37.3417C81.6286 37.2822 82.1686 37.3976 82.6369 37.3522L80.0836 41.1062L82.9821 45.8153C82.9855 45.9448 81.7311 45.9413 81.5192 45.9133C80.463 45.7664 79.6871 43.1284 78.795 42.4147C78.795 42.6736 78.0259 43.3068 78.0259 43.3733V45.9028H76.3203V37.3522H78.0259V37.3487Z" fill="#213B66"/>
<path d="M39.5846 37.3707L42.8523 45.8969L40.9963 45.8759L40.1759 44.1825L37.0245 44.256L36.5118 45.8759L34.6523 45.8934L37.879 37.4512L39.5812 37.3672L39.5846 37.3707ZM38.9249 39.9667C38.4806 39.8862 38.6617 40.0331 38.5694 40.2151C38.2276 40.9008 38.0294 41.8524 37.732 42.5836H39.7794L38.9249 39.9667Z" fill="#213B66"/>
<path d="M101.413 45.9016L99.7009 45.8211L98.9181 44.1802C98.0704 44.2187 97.0177 44.0438 96.2008 44.1488C95.3394 44.2572 95.5582 45.2053 95.107 45.8246L93.3945 45.9051L96.6349 37.4384C97.1339 37.3159 98.0089 37.1725 98.3302 37.6308L101.417 45.9051L101.413 45.9016ZM98.3405 42.5849C98.4635 42.4659 97.527 39.8069 97.3185 39.9679L96.464 42.5849H98.3405Z" fill="#213B66"/>
<path d="M63.5105 45.9046C61.822 46.0935 61.5793 45.8696 61.1383 44.2672L57.9903 44.1868L57.1666 45.8731L55.4883 45.9011C55.8882 44.8445 58.2877 37.7073 58.7286 37.4344C59.0123 37.2595 60.1369 37.2595 60.3522 37.5219L63.5105 45.9011V45.9046ZM60.4376 42.5879L59.5011 39.9709L58.3902 42.5879H60.4376Z" fill="#213B66"/>
<path d="M10.7564 37.3472V42.8436C10.7564 43.106 11.2623 43.9702 11.546 44.1311C12.8414 44.8763 14.3419 43.9702 14.3419 42.4937V37.3438L15.7707 37.3682C15.9929 37.4277 16.0134 37.5817 16.051 37.7811C16.2526 38.8936 16.0749 42.6512 15.7639 43.7707C15.0871 46.2023 11.3716 46.6956 9.90188 44.9393C9.67971 44.6734 9.05078 43.2984 9.05078 43.0185V37.3472H10.7564Z" fill="#213B66"/>
<path d="M108.758 37.3477V39.0935H104.831V40.8393H108.416V42.5851H104.831V45.9018H103.125V37.3477H108.758Z" fill="#213B66"/>
<path d="M53.909 15.5764C54.0663 15.7303 54.3636 16.4965 54.6371 16.8359C56.0829 18.6377 56.9033 17.9939 58.773 18.5432C59.0874 18.6342 59.4429 19.0295 59.6411 18.998C59.7881 18.9735 60.0787 18.6377 60.4 18.5432C62.1056 18.0429 63.1925 18.6062 64.5358 17.0108C65.4313 15.9472 65.363 14.8556 67.2703 15.5344C67.4959 15.8493 64.7375 18.8581 64.2555 19.1695C63.2199 19.8412 61.5894 19.9007 60.3726 20.0861C59.0259 20.2925 59.4155 20.1526 58.0859 19.9427C55.7992 19.5823 55.2387 19.7922 53.6151 17.882C53.3485 17.5671 51.8719 15.5624 52.0735 15.3559C52.5589 15.3909 53.5501 15.223 53.909 15.5729V15.5764Z" fill="#213B66"/>
<path d="M65.4389 9.89887C65.1654 9.66446 64.6732 8.58688 64.287 8.19853C63.0086 6.90754 61.7063 7.48481 60.3596 6.97751C60.0417 6.85856 59.6999 6.42823 59.5256 6.46671C59.406 6.4947 59.1565 6.84806 58.8146 6.97751C57.8473 7.34137 56.7536 7.05448 55.711 7.64225C54.2071 8.48892 54.3336 10.8365 52.0742 10.0318C52.9082 8.41545 54.3028 6.26029 56.1315 5.80197C56.8629 5.62004 57.8131 5.65153 58.5754 5.50809C58.9035 5.44511 59.2829 5.11974 59.5324 5.09875C59.823 5.07426 60.3425 5.4696 60.739 5.53957C61.491 5.67602 62.4481 5.63404 63.1829 5.83346C64.8954 6.29878 66.3002 8.45743 67.2675 9.86038C67.2504 10.2557 65.7943 10.1963 65.4423 9.89537L65.4389 9.89887Z" fill="#213B66"/>
<path d="M50.3625 37.3477V39.0935H47.9733V45.9018H46.2642V39.0935H43.875V37.3477H50.3625Z" fill="#213B66"/>
<path d="M66.7525 37.3479V44.0688L67.0088 44.3312H70.6798V45.9021H65.0469V37.6103C65.4536 37.131 66.1919 37.4144 66.7525 37.3479Z" fill="#213B66"/>
<path d="M115.071 37.3477V44.0685C115.071 44.184 114.456 45.1846 114.278 45.3525C113.215 46.3566 110.45 46.2482 109.965 44.6143L111.059 43.6382C111.674 44.6318 113.209 44.6703 113.373 43.3793C113.595 41.6335 113.168 39.4363 113.386 37.6345L113.643 37.3721L115.071 37.3477Z" fill="#213B66"/>
<path d="M62.8288 13.0888C61.6598 13.6975 60.5592 14.5687 59.8414 15.7093C58.8809 14.6912 57.9068 13.6905 56.6797 13.0048C57.7837 12.2456 58.9595 11.4969 59.6705 10.2969L62.8254 13.0888H62.8288Z" fill="#213B66"/>
<path d="M118.995 37.3477H117.289V45.8983H118.995V37.3477Z" fill="#213B66"/>
</g>
<defs>
<clipPath id="clip0_3801_16162">
<rect width="119" height="46" fill="white"/>
</clipPath>
</defs>
</svg>
