<svg width="20" height="20" viewBox="0 0 20 20" fill="none" xmlns="http://www.w3.org/2000/svg">
<g clip-path="url(#clip0_4910_17349)">
<path d="M10 12.5C11.3807 12.5 12.5 11.3807 12.5 10C12.5 8.61929 11.3807 7.5 10 7.5C8.61929 7.5 7.5 8.61929 7.5 10C7.5 11.3807 8.61929 12.5 10 12.5Z" stroke="white" stroke-width="1.2" stroke-miterlimit="1.5" stroke-linecap="round" stroke-linejoin="round"/>
<path d="M10.834 7.50065C10.834 7.50065 11.6673 5.83398 11.6673 4.16732C11.6673 2.50065 10.0007 0.833984 10.0007 0.833984C10.0007 0.833984 8.33398 2.50065 8.33398 4.16732C8.33398 5.83398 9.16732 7.50065 9.16732 7.50065" stroke="white" stroke-width="1.2" stroke-miterlimit="1.5" stroke-linecap="round" stroke-linejoin="round"/>
<path d="M7.50065 9.16602C7.50065 9.16602 5.83398 8.33268 4.16732 8.33268C2.50065 8.33268 0.833984 9.99935 0.833984 9.99935C0.833984 9.99935 2.50065 11.666 4.16732 11.666C5.83398 11.666 7.50065 10.8327 7.50065 10.8327" stroke="white" stroke-width="1.2" stroke-miterlimit="1.5" stroke-linecap="round" stroke-linejoin="round"/>
<path d="M10.834 12.4993C10.834 12.4993 11.6673 14.166 11.6673 15.8327C11.6673 17.4993 10.0007 19.166 10.0007 19.166C10.0007 19.166 8.33398 17.4993 8.33398 15.8327C8.33398 14.166 9.16732 12.4993 9.16732 12.4993" stroke="white" stroke-width="1.2" stroke-miterlimit="1.5" stroke-linecap="round" stroke-linejoin="round"/>
<path d="M12.4993 9.16602C12.4993 9.16602 14.166 8.33268 15.8327 8.33268C17.4993 8.33268 19.166 9.99935 19.166 9.99935C19.166 9.99935 17.4993 11.666 15.8327 11.666C14.166 11.666 12.4993 10.8327 12.4993 10.8327" stroke="white" stroke-width="1.2" stroke-miterlimit="1.5" stroke-linecap="round" stroke-linejoin="round"/>
<path d="M8.82166 7.64354C8.82166 7.64354 8.2324 5.87578 7.05389 4.69727C5.87538 3.51875 3.51836 3.51875 3.51836 3.51875C3.51836 3.51875 3.51836 5.87578 4.69687 7.05429C5.87538 8.2328 7.64314 8.82206 7.64314 8.82206" stroke="white" stroke-width="1.2" stroke-miterlimit="1.5" stroke-linecap="round" stroke-linejoin="round"/>
<path d="M7.64354 11.1783C7.64354 11.1783 5.87578 11.7676 4.69727 12.9461C3.51875 14.1246 3.51875 16.4816 3.51875 16.4816C3.51875 16.4816 5.87578 16.4816 7.05429 15.3031C8.2328 14.1246 8.82206 12.3569 8.82206 12.3569" stroke="white" stroke-width="1.2" stroke-miterlimit="1.5" stroke-linecap="round" stroke-linejoin="round"/>
<path d="M12.3565 11.1783C12.3565 11.1783 14.1242 11.7676 15.3027 12.9461C16.4812 14.1246 16.4812 16.4816 16.4812 16.4816C16.4812 16.4816 14.1242 16.4816 12.9457 15.3031C11.7672 14.1246 11.1779 12.3569 11.1779 12.3569" stroke="white" stroke-width="1.2" stroke-miterlimit="1.5" stroke-linecap="round" stroke-linejoin="round"/>
<path d="M11.1783 7.64354C11.1783 7.64354 11.7676 5.87578 12.9461 4.69727C14.1246 3.51875 16.4816 3.51875 16.4816 3.51875C16.4816 3.51875 16.4816 5.87578 15.3031 7.05429C14.1246 8.2328 12.3569 8.82206 12.3569 8.82206" stroke="white" stroke-width="1.2" stroke-miterlimit="1.5" stroke-linecap="round" stroke-linejoin="round"/>
</g>
<defs>
<clipPath id="clip0_4910_17349">
<rect width="20" height="20" fill="white"/>
</clipPath>
</defs>
</svg>
