<svg width="20" height="20" viewBox="0 0 20 20" fill="none" xmlns="http://www.w3.org/2000/svg">
<path d="M2.32331 6.96204L9.31501 3.4662C9.48392 3.38174 9.68275 3.38174 9.85167 3.4662L16.8434 6.96204C17.2856 7.18316 17.2856 7.81424 16.8434 8.03535L9.85167 11.5312C9.68275 11.6157 9.48392 11.6157 9.31501 11.5312L2.32331 8.03535C1.88108 7.81424 1.88108 7.18316 2.32331 6.96204Z" stroke="white" stroke-width="1.2" stroke-linecap="round" stroke-linejoin="round"/>
<path d="M18.7507 10.832L18.7507 7.91536L17.084 7.08203" stroke="white" stroke-width="1.2" stroke-linecap="round" stroke-linejoin="round"/>
<path d="M3.75 8.75V13.0494C3.75 13.8216 4.19459 14.5248 4.8922 14.8561L8.72553 16.6761C9.26836 16.9338 9.89831 16.9338 10.4411 16.6761L14.2745 14.8561C14.9721 14.5248 15.4167 13.8216 15.4167 13.0494V8.75" stroke="white" stroke-width="1.2" stroke-linecap="round" stroke-linejoin="round"/>
</svg>
