<svg width="119" height="160" viewBox="0 0 119 160" fill="none" xmlns="http://www.w3.org/2000/svg">
<path d="M131.22 0V35.2068H147.537V70.6352H180.394V105.842H229.243C229.243 105.842 229.568 106.138 229.568 106.167V139.985C210.368 139.615 193.179 153.73 189.292 172.398C188.686 175.28 188.582 178.088 188.331 181H169.427C169.619 168.496 165.037 155.947 157.174 146.34C142.231 128.027 117.06 121.361 94.8602 129.964C74.1825 137.96 59.7421 158.652 60.1264 181H41.3406C40.8085 181 41.0598 178.029 41.0154 177.453C39.3453 156.568 21.062 139.541 0 139.985V105.842H49.1742V70.6352H81.7057C81.7057 70.6352 82.0309 70.3396 82.0309 70.3101V35.2068H98.3484V0H131.205H131.22Z" fill="white" fill-opacity="0.6"/>
</svg>
