<svg width="20" height="20" viewBox="0 0 20 20" fill="none" xmlns="http://www.w3.org/2000/svg">
<path d="M15 16.6667L18.1576 13.5091C18.2701 13.3965 18.3333 13.2439 18.3333 13.0848V8.75C18.3333 8.05964 17.7737 7.5 17.0833 7.5C16.393 7.5 15.8333 8.05964 15.8333 8.75V12.5" stroke="white" stroke-width="1.2" stroke-linecap="round" stroke-linejoin="round"/>
<path d="M15.0007 13.3333L15.7158 12.6182C15.7915 12.5425 15.834 12.4399 15.834 12.3328C15.834 12.1799 15.7476 12.0401 15.6109 11.9718L15.4567 11.8947C14.6867 11.5097 13.7567 11.6606 13.148 12.2693L12.6698 12.7475C12.2947 13.1226 12.084 13.6313 12.084 14.1618V16.6667" stroke="white" stroke-width="1.2" stroke-linecap="round" stroke-linejoin="round"/>
<path d="M4.99935 16.6667L1.84175 13.5091C1.72923 13.3965 1.66602 13.2439 1.66602 13.0848V8.75C1.66602 8.05964 2.22566 7.5 2.91602 7.5C3.60637 7.5 4.16602 8.05964 4.16602 8.75V12.5" stroke="white" stroke-width="1.2" stroke-linecap="round" stroke-linejoin="round"/>
<path d="M4.99935 13.3333L4.28424 12.6182C4.20854 12.5425 4.16602 12.4399 4.16602 12.3328C4.16602 12.1799 4.2524 12.0401 4.38915 11.9718L4.54335 11.8947C5.31333 11.5097 6.24327 11.6606 6.85199 12.2693L7.33023 12.7475C7.7053 13.1226 7.91602 13.6313 7.91602 14.1618V16.6667" stroke="white" stroke-width="1.2" stroke-linecap="round" stroke-linejoin="round"/>
<path d="M11.3882 9.9987H8.61046V8.05425H6.66602V5.27648H8.61046V3.33203H11.3882V5.27648H13.3327V8.05425H11.3882V9.9987Z" stroke="white" stroke-width="1.5" stroke-linecap="round" stroke-linejoin="round"/>
</svg>
