<svg xmlns="http://www.w3.org/2000/svg" width="24" height="24" viewBox="0 0 24 24" fill="none">
  <path d="M14 17.5H17.5M21 17.5H17.5M17.5 17.5V14M17.5 17.5V21" stroke="#00646E" stroke-width="1.4" stroke-linecap="round" stroke-linejoin="round"/>
  <path d="M2 8.1V2.9C2 2.40294 2.40294 2 2.9 2H8.1C8.59706 2 9 2.40294 9 2.9V8.1C9 8.59706 8.59706 9 8.1 9H2.9C2.40294 9 2 8.59706 2 8.1Z" stroke="#00646E" stroke-width="1.4"/>
  <path d="M2 20.1V14.9C2 14.4029 2.40294 14 2.9 14H8.1C8.59706 14 9 14.4029 9 14.9V20.1C9 20.5971 8.59706 21 8.1 21H2.9C2.40294 21 2 20.5971 2 20.1Z" stroke="#00646E" stroke-width="1.4"/>
  <path d="M14 8.1V2.9C14 2.40294 14.4029 2 14.9 2H20.1C20.5971 2 21 2.40294 21 2.9V8.1C21 8.59706 20.5971 9 20.1 9H14.9C14.4029 9 14 8.59706 14 8.1Z" stroke="#00646E" stroke-width="1.4"/>
</svg>