<svg xmlns="http://www.w3.org/2000/svg" width="119" height="46" viewBox="0 0 119 46" fill="none">
  <g clip-path="url(#clip0_3574_36928)">
    <path d="M48.8292 15.8834L49.9503 17.7902C51.0988 19.3716 53.283 21.1803 55.0296 22.0235C56.5472 22.7582 58.2187 22.9472 59.6713 23.7378C60.4575 23.1081 61.3804 23.1851 62.2417 22.8737C65.7828 21.5862 68.1789 19.3436 70.1682 16.1423C70.24 15.7995 70.0964 15.9324 69.9563 15.8449C69.1975 15.3901 68.3635 15.6385 68.4489 14.4C68.5139 13.4694 69.0539 13.8367 69.6555 14.0571C69.9871 14.1796 71.5252 14.9878 71.7576 15.1767C72.5233 15.803 71.6995 16.7756 71.3338 17.3354C68.3225 21.9465 64.9249 24.2556 59.5278 25.2702C55.0706 24.1962 51.8542 22.8807 48.9318 19.1826C48.5524 18.7033 46.9595 16.5482 46.9356 16.1493C46.9049 15.6805 47.0518 15.3236 47.4039 15.0368C47.8072 14.7079 50.2887 13.3644 50.5177 14.0781C50.8561 15.1242 49.6256 15.6875 48.8292 15.8869V15.8834Z" fill="#213B66"/>
    <path d="M70.3415 9.07154C68.6598 6.23065 66.5064 4.04401 63.4541 2.76001C62.3979 2.31569 61.4819 2.16524 60.4394 1.82938C60.1762 1.74541 59.9437 1.39555 59.6976 1.42004C59.4789 1.44103 59.1405 1.81188 58.809 1.90984C58.0365 2.13726 57.2606 2.21073 56.4676 2.48362C53.1555 3.61718 50.5201 6.02773 48.6573 8.98757C49.4981 9.49837 51.0602 9.96369 50.3732 11.2687C49.9698 11.5661 47.273 10.1561 47.0747 9.72928C46.8526 9.25347 46.9243 8.93509 47.1431 8.48377C47.7173 7.32223 50.0314 4.61429 51.0431 3.74663C53.6237 1.52849 56.4812 0.818272 59.6806 -0.00390625C64.9649 0.89874 68.3966 3.3128 71.3293 7.79454C71.7908 8.50126 72.5188 9.33044 71.5994 10.1001C71.2541 10.387 68.9606 11.5171 68.6188 11.2687C67.966 10.0826 69.3913 9.34094 70.3347 9.07154H70.3415Z" fill="#213B66"/>
    <path d="M21.7691 37.3461C24.9821 37.7065 25.6965 41.1072 23.0714 42.839L24.7565 45.8968L22.8766 45.8128L21.3077 43.1434L19.8072 43.1049V45.8968H18.1016V37.3461C19.2774 37.4406 20.6207 37.2167 21.7726 37.3461H21.7691ZM19.8038 41.5375C20.8941 41.5305 23.0236 41.8559 22.9655 40.2255C22.9074 38.5951 20.8223 39.1584 19.8038 39.0954V41.5375Z" fill="#213B66"/>
    <path d="M30.4742 37.3481C32.5182 37.593 33.7146 39.003 33.1301 41.1092C32.8395 42.1517 32.2619 42.2322 31.7799 42.9914L33.465 45.8988L31.5851 45.8148C30.4742 44.7092 30.5016 42.6206 28.5123 43.1069V45.8988H26.8066V37.3481C27.9756 37.4496 29.336 37.2117 30.4776 37.3481H30.4742ZM28.5123 41.5395C29.4591 41.55 31.5167 41.7739 31.6022 40.4059C31.7116 38.6216 29.6505 39.1604 28.5123 39.0939V41.536V41.5395Z" fill="#213B66"/>
    <path d="M0 45.9003V37.3496H2.98739C3.2164 37.3496 4.47083 37.6855 4.77504 37.7904C8.02562 38.931 8.10082 43.9375 5.0143 45.3545C4.70668 45.4944 3.57872 45.9003 3.3292 45.9003H0ZM1.70562 44.3294C3.76671 44.2419 5.57487 44.0005 5.46891 41.443C5.37662 39.1934 3.55479 38.945 1.70562 39.0919V44.3294Z" fill="#213B66"/>
    <path d="M86.5591 40.8376H89.9738V37.6084C90.3805 37.1291 91.1188 37.4125 91.6794 37.346V45.8966H89.9738V42.405H86.5591V45.8966H84.8535V37.346C85.4141 37.4125 86.1558 37.1291 86.5591 37.6084V40.8376Z" fill="#213B66"/>
    <path d="M78.024 37.3467V40.8383C78.9332 40.1701 80.1671 37.4762 81.1754 37.3397C81.6266 37.2802 82.1667 37.3957 82.6349 37.3502L80.0816 41.1042L82.9802 45.8134C82.9836 45.9428 81.7292 45.9393 81.5172 45.9114C80.4611 45.7644 79.6852 43.1264 78.793 42.4127C78.793 42.6716 78.024 43.3049 78.024 43.3713V45.9009H76.3184V37.3502H78.024V37.3467Z" fill="#213B66"/>
    <path d="M39.5846 37.3707L42.8523 45.8969L40.9963 45.8759L40.1759 44.1825L37.0245 44.256L36.5118 45.8759L34.6523 45.8934L37.879 37.4512L39.5812 37.3672L39.5846 37.3707ZM38.9249 39.9667C38.4806 39.8862 38.6617 40.0331 38.5694 40.2151C38.2276 40.9008 38.0294 41.8524 37.732 42.5836H39.7794L38.9249 39.9667Z" fill="#213B66"/>
    <path d="M101.413 45.9016L99.7009 45.8211L98.9181 44.1802C98.0704 44.2187 97.0177 44.0438 96.2008 44.1488C95.3394 44.2572 95.5582 45.2053 95.107 45.8246L93.3945 45.9051L96.6349 37.4384C97.1339 37.3159 98.0089 37.1725 98.3302 37.6308L101.417 45.9051L101.413 45.9016ZM98.3405 42.5849C98.4635 42.4659 97.527 39.8069 97.3185 39.9679L96.464 42.5849H98.3405Z" fill="#213B66"/>
    <path d="M63.5105 45.9026C61.822 46.0916 61.5793 45.8677 61.1383 44.2653L57.9903 44.1848L57.1666 45.8712L55.4883 45.8992C55.8882 44.8426 58.2877 37.7054 58.7286 37.4325C59.0123 37.2575 60.1369 37.2575 60.3522 37.5199L63.5105 45.8992V45.9026ZM60.4376 42.5859L59.5011 39.969L58.3902 42.5859H60.4376Z" fill="#213B66"/>
    <path d="M10.7564 37.3472V42.8436C10.7564 43.106 11.2623 43.9702 11.546 44.1311C12.8414 44.8763 14.3419 43.9702 14.3419 42.4937V37.3438L15.7707 37.3682C15.9929 37.4277 16.0134 37.5817 16.051 37.7811C16.2526 38.8936 16.0749 42.6512 15.7639 43.7707C15.0871 46.2023 11.3716 46.6956 9.90188 44.9393C9.67971 44.6734 9.05078 43.2984 9.05078 43.0185V37.3472H10.7564Z" fill="#213B66"/>
    <path d="M108.756 37.3477V39.0935H104.829V40.8393H108.414V42.5851H104.829V45.9018H103.123V37.3477H108.756Z" fill="#213B66"/>
    <path d="M53.909 15.5764C54.0663 15.7303 54.3636 16.4965 54.6371 16.8359C56.0829 18.6377 56.9033 17.9939 58.773 18.5432C59.0874 18.6342 59.4429 19.0295 59.6411 18.998C59.7881 18.9735 60.0787 18.6377 60.4 18.5432C62.1056 18.0429 63.1925 18.6062 64.5358 17.0108C65.4313 15.9472 65.363 14.8556 67.2703 15.5344C67.4959 15.8493 64.7375 18.8581 64.2555 19.1695C63.2199 19.8412 61.5894 19.9007 60.3726 20.0861C59.0259 20.2925 59.4155 20.1526 58.0859 19.9427C55.7992 19.5823 55.2387 19.7922 53.6151 17.882C53.3485 17.5671 51.8719 15.5624 52.0735 15.3559C52.5589 15.3909 53.5501 15.223 53.909 15.5729V15.5764Z" fill="#213B66"/>
    <path d="M65.4389 9.89692C65.1654 9.66251 64.6732 8.58493 64.287 8.19658C63.0086 6.90559 61.7063 7.48286 60.3596 6.97556C60.0417 6.85661 59.6999 6.42627 59.5256 6.46476C59.406 6.49275 59.1565 6.84611 58.8146 6.97556C57.8473 7.33942 56.7536 7.05253 55.711 7.6403C54.2071 8.48697 54.3336 10.8345 52.0742 10.0299C52.9082 8.4135 54.3028 6.25834 56.1315 5.80002C56.8629 5.61809 57.8131 5.64958 58.5754 5.50613C58.9035 5.44316 59.2829 5.11779 59.5324 5.09679C59.823 5.0723 60.3425 5.46765 60.739 5.53762C61.491 5.67407 62.4481 5.63208 63.1829 5.83151C64.8954 6.29682 66.3002 8.45548 67.2675 9.85843C67.2504 10.2538 65.7943 10.1943 65.4423 9.89342L65.4389 9.89692Z" fill="#213B66"/>
    <path d="M50.3644 37.3477V39.0935H47.9752V45.9018H46.2662V39.0935H43.877V37.3477H50.3644Z" fill="#213B66"/>
    <path d="M66.7544 37.346V44.0668L67.0108 44.3292H70.6818V45.9001H65.0488V37.6084C65.4556 37.1291 66.1939 37.4125 66.7544 37.346Z" fill="#213B66"/>
    <path d="M115.071 37.3477V44.0685C115.071 44.184 114.456 45.1846 114.278 45.3525C113.215 46.3566 110.45 46.2482 109.965 44.6143L111.059 43.6382C111.674 44.6318 113.209 44.6703 113.373 43.3793C113.595 41.6335 113.168 39.4363 113.386 37.6345L113.643 37.3721L115.071 37.3477Z" fill="#213B66"/>
    <path d="M62.8268 13.0868C61.6579 13.6956 60.5572 14.5668 59.8394 15.7073C58.879 14.6892 57.9048 13.6886 56.6777 13.0029C57.7818 12.2437 58.9576 11.495 59.6685 10.2949L62.8234 13.0868H62.8268Z" fill="#213B66"/>
    <path d="M118.997 37.3477H117.291V45.8983H118.997V37.3477Z" fill="#213B66"/>
  </g>
  <defs>
    <clipPath id="clip0_3574_36928">
      <rect width="119" height="46" fill="white"/>
    </clipPath>
  </defs>
</svg>