<svg width="20" height="20" viewBox="0 0 20 20" fill="none" xmlns="http://www.w3.org/2000/svg">
<path d="M1.66602 10.0013C1.66602 14.6037 5.39698 18.3346 9.99935 18.3346C14.6017 18.3346 18.3327 14.6037 18.3327 10.0013C18.3327 5.39893 14.6017 1.66797 9.99935 1.66797C5.39698 1.66797 1.66602 5.39893 1.66602 10.0013Z" stroke="#00646E" stroke-width="1.25" stroke-linecap="round" stroke-linejoin="round"/>
<path d="M10.834 1.70703C10.834 1.70703 13.334 4.99922 13.334 9.99922C13.334 14.9992 10.834 18.2914 10.834 18.2914" stroke="#00646E" stroke-width="1.25" stroke-linecap="round" stroke-linejoin="round"/>
<path d="M9.16601 18.2914C9.16601 18.2914 6.66602 14.9992 6.66602 9.99922C6.66602 4.99922 9.16602 1.70703 9.16602 1.70703" stroke="#00646E" stroke-width="1.25" stroke-linecap="round" stroke-linejoin="round"/>
<path d="M2.19141 12.918H17.8087" stroke="#00646E" stroke-width="1.25" stroke-linecap="round" stroke-linejoin="round"/>
<path d="M2.19141 7.08203H17.8087" stroke="#00646E" stroke-width="1.25" stroke-linecap="round" stroke-linejoin="round"/>
</svg>
