<svg width="62" height="35" viewBox="0 0 62 35" fill="none" xmlns="http://www.w3.org/2000/svg">
<g clip-path="url(#clip0_3981_41855)">
<path d="M61.8844 20.1892C61.8844 20.1892 61.8424 8.81915 61.8622 7.84802C61.8634 6.67108 60.349 5.30436 59.7155 5.27725C59.3655 5.26246 59.082 5.51263 59.082 5.83552C59.082 6.08446 59.0866 8.04151 59.0901 10.25C59.0855 10.4287 59.082 17.6751 59.082 17.6751C59.082 18.8952 60.5042 20.1596 61.8844 20.188M35.9835 5.29204L30.2024 5.2945C30.2024 5.2945 30.0438 5.35489 30.0438 5.46703C30.0449 6.80172 30.0543 15.4038 30.0543 15.4346C30.0543 15.5505 30.1733 15.7748 30.2841 15.7748C30.395 15.7674 31.7332 15.7797 33.2744 15.8019C34.2941 15.8302 34.4749 14.0913 34.4749 13.8646C34.4749 13.7487 34.3851 13.6551 34.2743 13.6551H32.7867C32.7867 13.6551 32.8007 9.26158 32.8007 8.72425C32.8369 8.04644 33.0819 7.89239 33.4529 7.84432C33.8951 7.84063 35.5448 7.84432 35.5448 7.84432C35.9135 7.84432 36.1842 8.12408 36.1842 8.51351C36.1842 8.51351 36.1678 16.6818 36.1667 17.6443H28.7441C28.3159 17.5901 27.9145 17.4582 27.6625 17.1489C27.4058 16.8334 27.3055 16.1765 27.3055 15.7896V8.29661C27.3335 7.54115 25.8681 5.29943 24.9943 5.29573H20.1653C18.7104 5.29573 18.3977 6.21633 18.3534 7.30946C18.3534 7.30946 18.3557 7.31193 18.3569 7.31316L18.3534 7.3107V13.3531C18.3534 14.5054 19.7557 15.7735 21.0905 15.8007C21.0905 15.8007 21.073 11.2827 21.0671 7.85542H24.0714C24.3211 7.94415 24.5007 8.20665 24.5007 8.51351C24.5007 8.51351 24.4926 16.7114 24.4926 17.6751H18.0547C17.3418 17.6899 16.3781 17.7158 15.9161 17.1501C15.6594 16.8346 15.5591 16.1778 15.5591 15.7908V6.9989C15.5591 6.07584 14.9361 5.29696 14.0622 5.29327L9.70689 5.2982C9.36738 5.30559 6.62562 8.11175 6.60695 8.46422V17.6739H5.05523C3.65168 17.6739 2.90849 17.6739 2.90849 16.386C2.89449 12.5213 2.91082 8.81792 2.93065 7.84679C2.93182 6.66985 1.41744 5.30313 0.783913 5.27601C0.433901 5.26123 0.150391 5.5114 0.150391 5.83429C0.150391 6.08323 0.155057 8.04027 0.158558 10.2487C0.153891 10.4274 0.150391 17.6739 0.150391 17.6739C0.150391 18.9075 1.75928 20.1892 3.15583 20.1892H9.34288C9.34288 15.4112 9.41288 10.2783 9.41288 8.72302C9.44905 8.0452 9.65322 7.89362 10.0242 7.84556C10.4664 7.84186 12.1173 7.84556 12.1173 7.84556C12.4872 7.84556 12.7567 8.12531 12.7567 8.51475C12.7567 8.51475 12.7392 16.8248 12.7392 17.6727C12.7392 18.3493 13.9525 20.188 16.2591 20.188H53.3838C53.6964 20.1757 56.3204 18.0103 56.3204 17.6813C56.3204 17.6813 56.3367 8.34714 56.346 7.86527C56.3472 6.68834 54.8328 5.32161 54.1993 5.2945C53.8493 5.27971 53.5658 5.52989 53.5658 5.85277C53.5658 6.10172 53.6264 17.6554 53.6264 17.6554H50.7143L50.7283 8.29908C50.7027 7.49063 49.2116 5.29696 48.3377 5.29327L43.5869 5.27601C42.132 5.27601 41.8217 6.2188 41.7773 7.31316C41.7773 7.31316 41.7797 7.31563 41.7808 7.31686L41.7773 7.31439L41.7855 13.3568C41.7855 14.5091 43.1716 15.7772 44.5063 15.8044L44.5028 7.87144L47.2854 7.84679C47.6541 7.84679 47.9247 8.12654 47.9247 8.51598C47.9247 8.51598 47.9084 16.6843 47.9072 17.6468H40.4263C39.9981 17.5926 39.5968 17.4607 39.3448 17.1514C39.0881 16.8359 38.9878 16.179 38.9878 15.792L38.9948 8.69098C38.9784 8.40506 36.2343 5.30806 35.9811 5.29327" fill="white"/>
<path d="M61.0223 29.699H60.8228V34.3303C60.8228 34.9169 61.2498 34.9933 61.6232 34.9933H61.8238V30.362C61.8238 29.7667 61.3956 29.699 61.0235 29.699M53.413 34.005L53.4212 34.8417C53.4212 34.8417 54.0687 35.0192 54.6077 35.0007C55.9203 34.9564 56.429 34.6791 56.429 33.4282V30.362C56.429 29.7667 56.093 29.6891 55.7196 29.699H55.4291V33.427C55.4291 34.4954 55.2168 34.7074 54.6509 34.7616C54.0489 34.7518 53.6405 34.4807 53.4142 34.0037M50.5009 29.699H47.0066V34.3303C47.0066 34.9268 47.4348 34.9933 47.807 34.9933H48.0065L48.003 32.0972H49.8686L49.8802 31.8594H48.0147L48.0193 29.8308H48.92C49.5384 29.8308 50.2093 29.9393 50.4998 30.362V29.699H50.5009ZM39.8256 30.4248L40.8756 33.0129H38.8432L39.8256 30.4248ZM39.7124 30.0909L37.8177 34.9995H38.0755L38.7417 33.252H40.9993L41.445 34.387C41.627 34.8294 41.8276 34.9921 42.2826 34.9921H42.782L40.8814 30.3028C40.6994 29.8604 40.4988 29.7076 40.0449 29.6977H39.5444L39.7124 30.0909ZM29.1782 29.6977H28.9775V34.3291C28.9775 34.9157 29.4057 34.9921 29.7779 34.9921H29.9774V32.2611H32.3248V34.3278C32.3248 34.9145 32.7518 34.9909 33.1333 34.9909H33.3247V30.3595C33.3247 29.7643 32.8977 29.6866 32.5243 29.6965H32.3236V32.022H29.9762V30.3595C29.9762 29.7643 29.5492 29.6965 29.177 29.6965M20.6134 29.6965H20.4127V34.3278C20.422 34.9145 20.8397 34.9909 21.2131 34.9909H21.4137V32.4447L22.6598 34.4141C22.8873 34.7789 22.997 34.9909 23.2875 34.9909H24.2243L22.1756 31.6461L23.8767 29.6953H23.6165L21.4149 32.1403L21.4126 30.3583C21.4032 29.7631 20.9856 29.6854 20.6122 29.6953M9.66734 29.6953H9.46783V34.3266C9.46783 34.9132 9.89485 34.9896 10.2682 34.9896H12.961L12.968 34.0715C12.6763 34.4942 11.9973 34.7579 11.3789 34.7579H10.4782L10.4677 30.3571C10.4677 29.7618 10.0407 29.6842 9.66734 29.694M4.79283 23.9437C4.79283 23.9437 5.39602 24.4342 5.58386 24.6338C5.7717 24.8322 6.23255 25.4645 6.23255 25.4645C6.23255 25.4645 6.6934 24.8322 6.88124 24.6338C7.00375 24.5044 7.29542 24.2567 7.4891 24.0953H21.5514C21.7439 24.2555 22.0368 24.5044 22.1593 24.6338C22.3471 24.8322 22.808 25.4645 22.808 25.4645C22.808 25.4645 23.2688 24.8322 23.4567 24.6338C23.5792 24.5044 23.8708 24.2567 24.0645 24.0953H61.8845V23.7748H24.0447C23.8557 23.6171 23.578 23.3817 23.4578 23.2535C23.27 23.0551 22.8091 22.4229 22.8091 22.4229C22.8091 22.4229 22.3483 23.0551 22.1604 23.2535C22.0426 23.378 21.7661 23.6134 21.5736 23.7748H7.46926C7.27675 23.6146 7.00025 23.378 6.88241 23.2535C6.69457 23.0551 6.23372 22.4229 6.23372 22.4229C6.23372 22.4229 5.77287 23.0551 5.58503 23.2535C5.39719 23.452 4.794 23.9437 4.794 23.9437M4.00297 24.6338C4.19081 24.4354 4.794 23.9437 4.794 23.9437C4.794 23.9437 4.19081 23.4532 4.00297 23.2535C3.81513 23.0551 3.35428 22.4229 3.35428 22.4229C3.35428 22.4229 2.89343 23.0551 2.70559 23.2535C2.51775 23.452 1.91457 23.9437 1.91457 23.9437C1.91457 23.9437 2.51659 24.4342 2.70559 24.6338C2.89343 24.8322 3.35428 25.4645 3.35428 25.4645C3.35428 25.4645 3.81513 24.8322 4.00297 24.6338ZM2.0079 30.4211L3.05794 33.0092H1.02554L2.0079 30.4211ZM1.89473 30.0872L0 35.0007H0.257842L0.924032 33.2532H3.18278L3.62846 34.3882C3.81047 34.8307 4.01114 34.9933 4.46616 34.9933H4.96667L3.06611 30.3041C2.8841 29.8616 2.68459 29.7088 2.22958 29.699H1.72906L1.89707 30.0921L1.89473 30.0872ZM62 1.41797H47.6098C47.4243 1.26516 47.0801 0.975545 46.9448 0.832587C46.757 0.634172 46.2961 0.00195312 46.2961 0.00195312C46.2961 0.00195312 45.8353 0.634172 45.6474 0.832587C45.5121 0.975545 45.1679 1.26516 44.9824 1.41797H35.7759C35.5916 1.26516 35.2462 0.975545 35.1109 0.832587C34.9231 0.634172 34.4622 0.00195312 34.4622 0.00195312C34.4622 0.00195312 34.0014 0.634172 33.8135 0.832587C33.6257 1.031 33.0225 1.52273 33.0225 1.52273C33.0225 1.52273 33.6257 2.01322 33.8135 2.21287C34.0014 2.41128 34.4622 3.0435 34.4622 3.0435C34.4622 3.0435 34.9231 2.41128 35.1109 2.21287C35.2182 2.10072 35.4539 1.89614 35.6406 1.73963H45.1154C45.3021 1.89614 45.5389 2.10072 45.6451 2.21287C45.8329 2.41128 46.2938 3.0435 46.2938 3.0435C46.2938 3.0435 46.7546 2.41128 46.9425 2.21287C47.0486 2.10072 47.2855 1.89614 47.4722 1.73963H61.9977V1.41921L62 1.41797Z" fill="white"/>
</g>
<defs>
<clipPath id="clip0_3981_41855">
<rect width="62" height="35" fill="white"/>
</clipPath>
</defs>
</svg>
