<svg width="137" height="77" viewBox="0 0 137 77" fill="none" xmlns="http://www.w3.org/2000/svg">
<g clip-path="url(#clip0_3922_9835)">
<mask id="mask0_3922_9835" style="mask-type:alpha" maskUnits="userSpaceOnUse" x="-1" y="0" width="138" height="78">
<path d="M135.871 44.4172C135.871 44.4172 135.779 19.403 135.823 17.2666C135.825 14.6773 132.5 11.6705 131.109 11.6109C130.341 11.5783 129.718 12.1287 129.718 12.8391C129.718 13.3867 129.729 17.6922 129.736 22.5508C129.726 22.944 129.718 38.8862 129.718 38.8862C129.718 41.5704 132.841 44.3521 135.871 44.4145M79.0041 11.6434L66.3114 11.6488C66.3114 11.6488 65.963 11.7817 65.963 12.0284C65.9656 14.9647 65.9861 33.8894 65.9861 33.9571C65.9861 34.212 66.2474 34.7054 66.4907 34.7054C66.7341 34.6892 69.6722 34.7163 73.0561 34.7651C75.2949 34.8274 75.6919 31.0019 75.6919 30.503C75.6919 30.2481 75.4947 30.0421 75.2513 30.0421H71.9853C71.9853 30.0421 72.0161 20.3764 72.0161 19.1943C72.0955 17.7031 72.6334 17.3642 73.448 17.2584C74.4188 17.2503 78.0409 17.2584 78.0409 17.2584C78.8504 17.2584 79.4447 17.8739 79.4447 18.7307C79.4447 18.7307 79.4088 36.7009 79.4062 38.8184H63.1094C62.1693 38.6991 61.2882 38.409 60.7349 37.7285C60.1713 37.0344 59.951 35.5893 59.951 34.738V18.2535C60.0125 16.5915 56.7951 11.6597 54.8765 11.6515H44.2741C41.0798 11.6515 40.3933 13.6769 40.296 16.0817C40.296 16.0817 40.3011 16.0872 40.3037 16.0899L40.296 16.0845V29.3778C40.296 31.9128 43.375 34.7027 46.3055 34.7624C46.3055 34.7624 46.2671 24.8229 46.2542 17.2828H52.8503C53.3985 17.478 53.793 18.0555 53.793 18.7307C53.793 18.7307 53.775 36.766 53.775 38.8862H39.6402C38.0751 38.9188 35.9592 38.9757 34.9449 37.7312C34.3813 37.0371 34.161 35.592 34.161 34.7407V15.3985C34.161 13.3678 32.7931 11.6542 30.8745 11.6461L21.3121 11.657C20.5667 11.6732 14.547 17.8468 14.506 18.6222V38.8835H11.0991C8.01751 38.8835 6.38578 38.8835 6.38578 36.0502C6.35504 27.5477 6.3909 19.4003 6.43445 17.2639C6.43701 14.6746 3.11208 11.6678 1.72114 11.6082C0.952664 11.5756 0.3302 12.126 0.3302 12.8364C0.3302 13.384 0.340447 17.6895 0.348131 22.5481C0.337885 22.9413 0.3302 38.8835 0.3302 38.8835C0.3302 41.5975 3.86262 44.4172 6.92883 44.4172H20.5129C20.5129 33.9056 20.6666 22.6132 20.6666 19.1916C20.746 17.7004 21.1943 17.3669 22.0089 17.2611C22.9797 17.253 26.6043 17.2611 26.6043 17.2611C27.4164 17.2611 28.0081 17.8766 28.0081 18.7334C28.0081 18.7334 27.9697 37.0154 27.9697 38.8808C27.9697 40.3693 30.6337 44.4145 35.698 44.4145H117.207C117.894 44.3874 123.655 39.6237 123.655 38.8998C123.655 38.8998 123.691 18.3646 123.711 17.3045C123.714 14.7153 120.389 11.7085 118.998 11.6488C118.23 11.6163 117.607 12.1667 117.607 12.877C117.607 13.4247 117.74 38.8428 117.74 38.8428H111.347L111.377 18.2589C111.321 16.4803 108.047 11.6542 106.129 11.6461L95.6979 11.6082C92.5036 11.6082 91.8222 13.6823 91.7249 16.0899C91.7249 16.0899 91.73 16.0953 91.7326 16.098L91.7249 16.0926L91.7428 29.3859C91.7428 31.921 94.786 34.7109 97.7164 34.7705L97.7087 17.3181L103.818 17.2639C104.628 17.2639 105.222 17.8793 105.222 18.7361C105.222 18.7361 105.186 36.7064 105.183 38.8239H88.7586C87.8185 38.7046 86.9373 38.4145 86.384 37.7339C85.8204 37.0398 85.6001 35.5947 85.6001 34.7434L85.6155 19.1211C85.5796 18.4921 79.5548 11.6786 78.9989 11.6461" fill="black"/>
<path d="M133.978 65.3361H133.54V75.5251C133.54 76.8156 134.478 76.9837 135.297 76.9837H135.738V66.7948C135.738 65.4852 134.798 65.3361 133.981 65.3361M117.272 74.8093L117.29 76.6502C117.29 76.6502 118.711 77.0407 119.895 77C122.776 76.9024 123.893 76.2923 123.893 73.5404V66.7948C123.893 65.4852 123.156 65.3144 122.336 65.3361H121.698V73.5377C121.698 75.8884 121.232 76.3547 119.989 76.474C118.668 76.4523 117.771 75.8558 117.274 74.8066M110.878 65.3361H103.206V75.5251C103.206 76.8373 104.146 76.9837 104.963 76.9837H105.401L105.394 70.6122H109.49L109.515 70.089H105.419L105.429 65.6262H107.407C108.765 65.6262 110.238 65.8648 110.875 66.7948V65.3361H110.878ZM87.4395 66.9331L89.7449 72.6267H85.2826L87.4395 66.9331ZM87.191 66.1983L83.031 76.9973H83.5971L85.0598 73.1527H90.0164L90.9949 75.6498C91.3946 76.6231 91.8351 76.981 92.8342 76.981H93.9305L89.7577 66.6646C89.3581 65.6913 88.9175 65.3551 87.921 65.3334H86.8221L87.191 66.1983ZM64.0625 65.3334H63.6219V75.5223C63.6219 76.8129 64.562 76.981 65.3791 76.981H65.8172V70.9728H70.9711V75.5196C70.9711 76.8102 71.9086 76.9783 72.7462 76.9783H73.1663V66.7894C73.1663 65.4798 72.2288 65.309 71.4091 65.3307H70.9685V70.4468H65.8146V66.7894C65.8146 65.4798 64.8771 65.3307 64.0599 65.3307M45.2579 65.3307H44.8173V75.5196C44.8378 76.8102 45.7549 76.9783 46.5746 76.9783H47.0151V71.3768L49.7509 75.7094C50.2504 76.512 50.4912 76.9783 51.129 76.9783H53.186L48.6879 69.6199L52.4226 65.328H51.8514L47.0177 70.7071L47.0126 66.7866C46.9921 65.4771 46.075 65.3063 45.2553 65.328M21.2251 65.328H20.7871V75.5169C20.7871 76.8075 21.7247 76.9756 22.5444 76.9756H28.4565L28.4719 74.9557C27.8315 75.8857 26.3406 76.4659 24.983 76.4659H23.0054L22.9824 66.7839C22.9824 65.4744 22.0448 65.3036 21.2251 65.3253M10.5229 52.6745C10.5229 52.6745 11.8472 53.7536 12.2596 54.1928C12.672 54.6293 13.6838 56.0202 13.6838 56.0202C13.6838 56.0202 14.6957 54.6293 15.1081 54.1928C15.3771 53.9081 16.0174 53.3632 16.4427 53.008H47.3174C47.7401 53.3604 48.383 53.9081 48.652 54.1928C49.0644 54.6293 50.0762 56.0202 50.0762 56.0202C50.0762 56.0202 51.0881 54.6293 51.5005 54.1928C51.7694 53.9081 52.4098 53.3632 52.8351 53.008H135.871V52.3031H52.7915C52.3765 51.956 51.7669 51.4382 51.503 51.1562C51.0906 50.7197 50.0788 49.3288 50.0788 49.3288C50.0788 49.3288 49.067 50.7197 48.6546 51.1562C48.3958 51.43 47.7887 51.9479 47.3661 52.3031H16.3991C15.9765 51.9506 15.3694 51.43 15.1106 51.1562C14.6982 50.7197 13.6864 49.3288 13.6864 49.3288C13.6864 49.3288 12.6746 50.7197 12.2622 51.1562C11.8498 51.5927 10.5254 52.6745 10.5254 52.6745M8.78866 54.1928C9.20108 53.7563 10.5254 52.6745 10.5254 52.6745C10.5254 52.6745 9.20108 51.5954 8.78866 51.1562C8.37625 50.7197 7.36442 49.3288 7.36442 49.3288C7.36442 49.3288 6.3526 50.7197 5.94019 51.1562C5.52777 51.5927 4.20343 52.6745 4.20343 52.6745C4.20343 52.6745 5.52521 53.7536 5.94019 54.1928C6.3526 54.6293 7.36442 56.0202 7.36442 56.0202C7.36442 56.0202 8.37625 54.6293 8.78866 54.1928ZM4.40836 66.9249L6.71378 72.6186H2.25151L4.40836 66.9249ZM4.15989 66.1902L-0.00012207 77H0.565987L2.02865 73.1554H6.98787L7.9664 75.6525C8.366 76.6258 8.80659 76.9837 9.80561 76.9837H10.9045L6.73171 66.6674C6.33211 65.694 5.89408 65.3578 4.89506 65.3361H3.79614L4.16501 66.201L4.15989 66.1902ZM136.125 3.11793H104.53C104.123 2.78174 103.367 2.14459 103.07 1.83008C102.658 1.39357 101.646 0.00268555 101.646 0.00268555C101.646 0.00268555 100.634 1.39357 100.222 1.83008C99.9246 2.14459 99.1689 2.78174 98.7617 3.11793H78.5482C78.1435 2.78174 77.3853 2.14459 77.0881 1.83008C76.6757 1.39357 75.6639 0.00268555 75.6639 0.00268555C75.6639 0.00268555 74.652 1.39357 74.2396 1.83008C73.8272 2.26659 72.5029 3.34839 72.5029 3.34839C72.5029 3.34839 73.8272 4.42748 74.2396 4.8667C74.652 5.30322 75.6639 6.6941 75.6639 6.6941C75.6639 6.6941 76.6757 5.30322 77.0881 4.8667C77.3238 4.61998 77.8412 4.1699 78.2511 3.82557H99.0537C99.4635 4.1699 99.9835 4.61998 100.217 4.8667C100.629 5.30322 101.641 6.6941 101.641 6.6941C101.641 6.6941 102.653 5.30322 103.065 4.8667C103.298 4.61998 103.818 4.1699 104.228 3.82557H136.12V3.12064L136.125 3.11793Z" fill="black"/>
</mask>
<g mask="url(#mask0_3922_9835)">
<path d="M135.871 44.4172C135.871 44.4172 135.779 19.403 135.823 17.2666C135.825 14.6773 132.5 11.6705 131.109 11.6109C130.341 11.5783 129.718 12.1287 129.718 12.8391C129.718 13.3867 129.729 17.6922 129.736 22.5508C129.726 22.944 129.718 38.8862 129.718 38.8862C129.718 41.5704 132.841 44.3521 135.871 44.4145M79.0041 11.6434L66.3114 11.6488C66.3114 11.6488 65.963 11.7817 65.963 12.0284C65.9656 14.9647 65.9861 33.8894 65.9861 33.9571C65.9861 34.212 66.2474 34.7054 66.4907 34.7054C66.7341 34.6892 69.6722 34.7163 73.0561 34.7651C75.2949 34.8274 75.6919 31.0019 75.6919 30.503C75.6919 30.2481 75.4947 30.0421 75.2513 30.0421H71.9853C71.9853 30.0421 72.0161 20.3764 72.0161 19.1943C72.0955 17.7031 72.6334 17.3642 73.448 17.2584C74.4188 17.2503 78.0409 17.2584 78.0409 17.2584C78.8504 17.2584 79.4447 17.8739 79.4447 18.7307C79.4447 18.7307 79.4088 36.7009 79.4062 38.8184H63.1094C62.1693 38.6991 61.2882 38.409 60.7349 37.7285C60.1713 37.0344 59.951 35.5893 59.951 34.738V18.2535C60.0125 16.5915 56.7951 11.6597 54.8765 11.6515H44.2741C41.0798 11.6515 40.3933 13.6769 40.296 16.0817C40.296 16.0817 40.3011 16.0872 40.3037 16.0899L40.296 16.0845V29.3778C40.296 31.9128 43.375 34.7027 46.3055 34.7624C46.3055 34.7624 46.2671 24.8229 46.2542 17.2828H52.8503C53.3985 17.478 53.793 18.0555 53.793 18.7307C53.793 18.7307 53.775 36.766 53.775 38.8862H39.6402C38.0751 38.9188 35.9592 38.9757 34.9449 37.7312C34.3813 37.0371 34.161 35.592 34.161 34.7407V15.3985C34.161 13.3678 32.7931 11.6542 30.8745 11.6461L21.3121 11.657C20.5667 11.6732 14.547 17.8468 14.506 18.6222V38.8835H11.0991C8.01751 38.8835 6.38578 38.8835 6.38578 36.0502C6.35504 27.5477 6.3909 19.4003 6.43445 17.2639C6.43701 14.6746 3.11208 11.6678 1.72114 11.6082C0.952664 11.5756 0.3302 12.126 0.3302 12.8364C0.3302 13.384 0.340447 17.6895 0.348131 22.5481C0.337885 22.9413 0.3302 38.8835 0.3302 38.8835C0.3302 41.5975 3.86262 44.4172 6.92883 44.4172H20.5129C20.5129 33.9056 20.6666 22.6132 20.6666 19.1916C20.746 17.7004 21.1943 17.3669 22.0089 17.2611C22.9797 17.253 26.6043 17.2611 26.6043 17.2611C27.4164 17.2611 28.0081 17.8766 28.0081 18.7334C28.0081 18.7334 27.9697 37.0154 27.9697 38.8808C27.9697 40.3693 30.6337 44.4145 35.698 44.4145H117.207C117.894 44.3874 123.655 39.6237 123.655 38.8998C123.655 38.8998 123.691 18.3646 123.711 17.3045C123.714 14.7153 120.389 11.7085 118.998 11.6488C118.23 11.6163 117.607 12.1667 117.607 12.877C117.607 13.4247 117.74 38.8428 117.74 38.8428H111.347L111.377 18.2589C111.321 16.4803 108.047 11.6542 106.129 11.6461L95.6979 11.6082C92.5036 11.6082 91.8222 13.6823 91.7249 16.0899C91.7249 16.0899 91.73 16.0953 91.7326 16.098L91.7249 16.0926L91.7428 29.3859C91.7428 31.921 94.786 34.7109 97.7164 34.7705L97.7087 17.3181L103.818 17.2639C104.628 17.2639 105.222 17.8793 105.222 18.7361C105.222 18.7361 105.186 36.7064 105.183 38.8239H88.7586C87.8185 38.7046 86.9373 38.4145 86.384 37.7339C85.8204 37.0398 85.6001 35.5947 85.6001 34.7434L85.6155 19.1211C85.5796 18.4921 79.5548 11.6786 78.9989 11.6461" fill="#A0805C"/>
<path d="M133.978 65.3361H133.54V75.5251C133.54 76.8156 134.478 76.9837 135.297 76.9837H135.738V66.7948C135.738 65.4852 134.798 65.3361 133.981 65.3361M117.272 74.8093L117.29 76.6502C117.29 76.6502 118.711 77.0407 119.895 77C122.776 76.9024 123.893 76.2923 123.893 73.5404V66.7948C123.893 65.4852 123.156 65.3144 122.336 65.3361H121.698V73.5377C121.698 75.8884 121.232 76.3547 119.989 76.474C118.668 76.4523 117.771 75.8558 117.274 74.8066M110.878 65.3361H103.206V75.5251C103.206 76.8373 104.146 76.9837 104.963 76.9837H105.401L105.394 70.6122H109.49L109.515 70.089H105.419L105.429 65.6262H107.407C108.765 65.6262 110.238 65.8648 110.875 66.7948V65.3361H110.878ZM87.4395 66.9331L89.7449 72.6267H85.2826L87.4395 66.9331ZM87.191 66.1983L83.031 76.9973H83.5971L85.0598 73.1527H90.0164L90.9949 75.6498C91.3946 76.6231 91.8351 76.981 92.8342 76.981H93.9305L89.7577 66.6646C89.3581 65.6913 88.9175 65.3551 87.921 65.3334H86.8221L87.191 66.1983ZM64.0625 65.3334H63.6219V75.5223C63.6219 76.8129 64.562 76.981 65.3791 76.981H65.8172V70.9728H70.9711V75.5196C70.9711 76.8102 71.9086 76.9783 72.7462 76.9783H73.1663V66.7894C73.1663 65.4798 72.2288 65.309 71.4091 65.3307H70.9685V70.4468H65.8146V66.7894C65.8146 65.4798 64.8771 65.3307 64.0599 65.3307M45.2579 65.3307H44.8173V75.5196C44.8378 76.8102 45.7549 76.9783 46.5746 76.9783H47.0151V71.3768L49.7509 75.7094C50.2504 76.512 50.4912 76.9783 51.129 76.9783H53.186L48.6879 69.6199L52.4226 65.328H51.8514L47.0177 70.7071L47.0126 66.7866C46.9921 65.4771 46.075 65.3063 45.2553 65.328M21.2251 65.328H20.7871V75.5169C20.7871 76.8075 21.7247 76.9756 22.5444 76.9756H28.4565L28.4719 74.9557C27.8315 75.8857 26.3406 76.4659 24.983 76.4659H23.0054L22.9824 66.7839C22.9824 65.4744 22.0448 65.3036 21.2251 65.3253M10.5229 52.6745C10.5229 52.6745 11.8472 53.7536 12.2596 54.1928C12.672 54.6293 13.6838 56.0202 13.6838 56.0202C13.6838 56.0202 14.6957 54.6293 15.1081 54.1928C15.3771 53.9081 16.0174 53.3632 16.4427 53.008H47.3174C47.7401 53.3604 48.383 53.9081 48.652 54.1928C49.0644 54.6293 50.0762 56.0202 50.0762 56.0202C50.0762 56.0202 51.0881 54.6293 51.5005 54.1928C51.7694 53.9081 52.4098 53.3632 52.8351 53.008H135.871V52.3031H52.7915C52.3765 51.956 51.7669 51.4382 51.503 51.1562C51.0906 50.7197 50.0788 49.3288 50.0788 49.3288C50.0788 49.3288 49.067 50.7197 48.6546 51.1562C48.3958 51.43 47.7887 51.9479 47.3661 52.3031H16.3991C15.9765 51.9506 15.3694 51.43 15.1106 51.1562C14.6982 50.7197 13.6864 49.3288 13.6864 49.3288C13.6864 49.3288 12.6746 50.7197 12.2622 51.1562C11.8498 51.5927 10.5254 52.6745 10.5254 52.6745M8.78866 54.1928C9.20108 53.7563 10.5254 52.6745 10.5254 52.6745C10.5254 52.6745 9.20108 51.5954 8.78866 51.1562C8.37625 50.7197 7.36442 49.3288 7.36442 49.3288C7.36442 49.3288 6.3526 50.7197 5.94019 51.1562C5.52777 51.5927 4.20343 52.6745 4.20343 52.6745C4.20343 52.6745 5.52521 53.7536 5.94019 54.1928C6.3526 54.6293 7.36442 56.0202 7.36442 56.0202C7.36442 56.0202 8.37625 54.6293 8.78866 54.1928ZM4.40836 66.9249L6.71378 72.6186H2.25151L4.40836 66.9249ZM4.15989 66.1902L-0.00012207 77H0.565987L2.02865 73.1554H6.98787L7.9664 75.6525C8.366 76.6258 8.80659 76.9837 9.80561 76.9837H10.9045L6.73171 66.6674C6.33211 65.694 5.89408 65.3578 4.89506 65.3361H3.79614L4.16501 66.201L4.15989 66.1902ZM136.125 3.11793H104.53C104.123 2.78174 103.367 2.14459 103.07 1.83008C102.658 1.39357 101.646 0.00268555 101.646 0.00268555C101.646 0.00268555 100.634 1.39357 100.222 1.83008C99.9246 2.14459 99.1689 2.78174 98.7617 3.11793H78.5482C78.1435 2.78174 77.3853 2.14459 77.0881 1.83008C76.6757 1.39357 75.6639 0.00268555 75.6639 0.00268555C75.6639 0.00268555 74.652 1.39357 74.2396 1.83008C73.8272 2.26659 72.5029 3.34839 72.5029 3.34839C72.5029 3.34839 73.8272 4.42748 74.2396 4.8667C74.652 5.30322 75.6639 6.6941 75.6639 6.6941C75.6639 6.6941 76.6757 5.30322 77.0881 4.8667C77.3238 4.61998 77.8412 4.1699 78.2511 3.82557H99.0537C99.4635 4.1699 99.9835 4.61998 100.217 4.8667C100.629 5.30322 101.641 6.6941 101.641 6.6941C101.641 6.6941 102.653 5.30322 103.065 4.8667C103.298 4.61998 103.818 4.1699 104.228 3.82557H136.12V3.12064L136.125 3.11793Z" fill="#A0805C"/>
<rect x="-22" y="-19" width="164" height="104" fill="#00646E"/>
</g>
</g>
<defs>
<clipPath id="clip0_3922_9835">
<rect width="136.125" height="77" fill="white"/>
</clipPath>
</defs>
</svg>
