<svg width="202" height="68" viewBox="0 0 202 68" fill="none" xmlns="http://www.w3.org/2000/svg">
<path d="M100.147 1.09344C100.279 0.493972 101.203 -0.100699 101.853 0.0143988C102.567 9.4476 102.288 18.9911 102.347 28.4866L112.234 3.84619C112.982 3.70711 113.573 6.00426 113.07 6.57975C110.304 14.1426 107.112 21.5952 104.541 29.206C106.521 27.8872 117.806 15.0874 118.818 15.0778C119.829 15.0682 119.526 17.2311 119.052 17.7106C114.761 22.0795 110.382 26.3765 106.247 30.8797L118.143 26.6163C119.991 26.8321 118.417 28.7744 117.405 29.2588L107.958 32.563C107.933 32.9131 108.837 32.985 109.082 33.009C111.179 33.2152 114.36 32.2369 113.813 35.4309L104.536 35.1911C105.602 30.2946 98.4026 28.7984 97.7428 33.7044C97.6255 34.582 98.4124 35.4356 97.0879 35.4356H89.2777C88.5739 35.4356 88.9307 33.6516 89.9473 33.2248C90.9639 32.798 92.7136 33.1337 93.8866 33.0138C94.1358 32.9898 95.0351 32.9179 95.0107 32.5678L85.0744 29.0286C84.356 28.8511 83.4469 27.0143 84.0383 26.5875C84.5564 26.2135 94.6539 30.4913 96.1299 30.8797L96.4769 30.5392L83.9161 17.725C83.3296 16.9673 83.574 15.9842 83.5398 15.1018L84.6492 15.332C88.9209 19.1877 92.9189 24.7028 97.3323 28.266C97.606 28.4866 97.7281 28.8463 98.1876 28.7408L89.7518 6.50302C89.3901 5.86998 89.7958 4.00924 90.5044 3.86057C91.0812 3.74068 91.5846 5.48632 91.7801 5.95151C94.6881 12.9197 96.8875 20.3483 99.7173 27.3644C99.82 27.6186 99.7858 28.0742 100.143 28.0215V1.09344H100.147ZM98.3146 28.9662V29.206C98.471 29.1245 98.471 29.0477 98.3146 28.9662Z" fill="white"/>
<path d="M15.1875 51.4571C15.7789 51.577 17.4602 51.2653 17.8316 51.4955C18.2275 51.7401 20.3194 57.212 21.1698 57.917C21.4875 58.0704 23.809 52.1573 24.3369 51.6921C24.8256 51.2653 27.1472 51.342 27.1472 51.8168V63.1827H24.4639V56.9626C23.6086 57.5525 22.9537 60.0607 22.3917 60.5546C21.8736 61.0102 20.5637 60.7656 19.8648 60.7513L17.8707 57.2024V63.1827H15.1875V51.4571Z" fill="white"/>
<path d="M77.4395 51.4574C78.3436 51.5868 80.0396 51.1696 80.7532 51.678L85.2497 58.8763V51.817C85.2497 51.2703 87.4441 51.4909 87.9329 51.4574V63.1829L84.8098 63.1302L80.1227 55.5241V63.1829H77.4395V51.4574Z" fill="white"/>
<path d="M49.0001 51.4587C52.9443 52.0581 53.6383 57.2663 50.0998 58.9927L52.5386 63.1794C51.7957 63.0547 50.1878 63.4144 49.6061 63.0643C49.2151 62.8293 47.8027 59.7457 47.6169 59.6306C47.2797 59.4196 45.9747 59.6929 45.4567 59.5922V63.1794H42.7734V51.4539C44.6893 51.6601 47.1624 51.1757 49.0001 51.4539V51.4587ZM45.4616 57.1991C51.2728 57.9185 51.4487 53.0077 45.4616 53.8517V57.1991Z" fill="white"/>
<path d="M140.423 56.0019H145.306V51.4555H147.75V63.1811H145.306V58.3949H140.423V63.1811H137.74V51.4555C138.229 51.4891 140.423 51.2637 140.423 51.8152V56.0019Z" fill="white"/>
<path d="M128.221 51.46V56.0064C129.199 55.3638 131.1 51.9348 131.887 51.5847C132.674 51.2346 133.954 51.5751 134.815 51.4648C135.254 51.8437 131.129 55.7858 131.164 56.6107C131.203 57.6513 134.854 61.7133 135.308 63.0657C134.585 63.2 133.001 63.3678 132.376 63.0657C131.75 62.7636 129.712 58.6488 129.326 58.644C129.165 58.8598 128.226 59.6272 128.226 59.7183V63.1856H125.543V51.46H128.226H128.221Z" fill="white"/>
<path d="M32.5172 51.459V58.9979C32.5172 60.7195 35.4204 61.7506 36.6814 60.4462C36.8769 60.2448 37.3998 58.9547 37.3998 58.7581V51.459H40.0831V58.2785C40.0831 58.5327 39.7263 60.0913 39.609 60.4462C38.3431 64.3595 32.0089 64.5178 30.3374 60.6476C30.225 60.3886 29.8242 59.1513 29.8242 58.9979V51.459H32.5074H32.5172Z" fill="white"/>
<path d="M70.8183 51.4911L75.2463 63.1831C74.7478 63.092 72.7928 63.3318 72.5875 63.1543C72.4214 63.0105 72.2552 61.26 71.6736 61.0634C71.2288 60.9147 67.3188 60.9819 67.1624 61.1785C66.9083 61.5046 66.5466 63.0728 66.4244 63.1495C66.0872 63.3653 64.3423 63.0632 63.7754 63.1783L68.1986 51.4863H70.8231L70.8183 51.4911ZM70.8476 58.6368C71.0235 58.4737 69.6795 54.8242 69.3862 55.0496L68.1644 58.6368H70.8476Z" fill="white"/>
<path d="M161.665 63.1811C159.192 63.3537 158.762 63.3873 158.098 61.0134C157.384 61.1621 153.64 60.8456 153.391 61.0566C153.283 61.1477 153.005 62.831 152.638 63.0708C152.145 63.3969 150.61 63.0708 149.945 63.1811C150.688 61.7759 153.968 51.9687 154.574 51.5658C154.935 51.3261 156.851 51.3404 157.149 51.6953L161.665 63.1811ZM156.05 55.0475C155.649 54.6399 155.639 55.1722 155.541 55.3832C155.087 56.3664 154.838 57.642 154.344 58.6347H157.272C156.871 58.1839 156.182 55.1866 156.05 55.0475Z" fill="white"/>
<path d="M102.791 51.4946L107.224 63.177C106.564 63.0811 105.318 63.3832 104.775 63.0619C104.233 62.7406 104.326 61.2922 103.641 61.0621C103.192 60.9134 99.267 60.9757 99.1351 61.1628C97.9914 62.8029 99.4234 63.5894 95.748 63.1722L100.161 51.8303C100.65 51.1637 102.004 51.485 102.786 51.4898L102.791 51.4946ZM102.83 58.6354C103.099 58.3669 101.647 54.8372 101.369 55.0482L100.147 58.6354H102.83Z" fill="white"/>
<path d="M172.164 51.459V53.8521H166.548V56.2451H171.675V58.6382H166.548V63.1845H163.865V51.459H172.164Z" fill="white"/>
<path d="M112.105 51.4599V60.7924H117.354C117.892 60.7924 117.701 62.7346 117.721 63.1854H109.422V51.8196C109.422 51.2729 111.616 51.4935 112.105 51.4599Z" fill="white"/>
<path d="M61.8139 51.459V59.9522C61.8139 60.1345 61.2861 61.4149 61.1346 61.6787C59.3164 64.8007 53.8376 63.0503 54.2725 61.4389C54.3752 61.06 55.5873 59.981 56.0565 60.0577C56.2227 60.0865 56.3595 61.0408 57.5423 61.0408C58.1043 61.0408 59.1307 60.4845 59.1307 59.9522V51.459H61.8139Z" fill="white"/>
<path d="M181.196 51.459V60.4318C181.196 60.7099 180.331 62.211 180.033 62.47C178.019 64.2348 173.137 63.1414 173.987 61.2806C174.051 61.1416 175.141 60.1105 175.248 60.0913C175.698 60.0146 176.431 61.5204 177.775 60.9114C177.897 60.8538 178.513 60.2448 178.513 60.1968V51.4638H181.196V51.459Z" fill="white"/>
<path d="M186.81 51.459H184.127V63.1845H186.81V51.459Z" fill="white"/>
<path d="M98.3145 28.9688C98.4709 29.0503 98.4709 29.127 98.3145 29.2085V28.9688Z" fill="white"/>
</svg>
