<svg width="123" height="46" viewBox="0 0 123 46" fill="none" xmlns="http://www.w3.org/2000/svg">
<g clip-path="url(#clip0_3801_16185)">
<path d="M60.891 0.792513C60.9856 0.358026 61.6476 -0.0729854 62.1135 0.0104361C62.6249 6.84752 62.4252 13.7646 62.4672 20.6468L69.5534 2.78768C70.0893 2.68688 70.5131 4.35183 70.1523 4.76894C68.1698 10.2504 65.8825 15.652 64.04 21.1682C65.4586 20.2123 73.5465 10.9352 74.2716 10.9282C74.9967 10.9213 74.7795 12.4889 74.4397 12.8365C71.3643 16.003 68.2258 19.1174 65.2625 22.3813L73.7882 19.2912C75.1123 19.4476 73.9844 20.8554 73.2593 21.2064L66.4884 23.6013C66.4709 23.8551 67.1189 23.9072 67.2941 23.9246C68.7968 24.0741 71.0771 23.365 70.6848 25.6799L64.0365 25.5061C64.8001 21.9572 59.6405 20.8728 59.1676 24.4286C59.0836 25.0647 59.6475 25.6834 58.6983 25.6834H53.1008C52.5964 25.6834 52.8521 24.3904 53.5807 24.081C54.3093 23.7717 55.5633 24.015 56.4039 23.9281C56.5826 23.9107 57.2271 23.8586 57.2096 23.6048L50.0884 21.0396C49.5735 20.911 48.922 19.5797 49.3458 19.2704C49.7171 18.9993 56.9539 22.0998 58.0117 22.3813L58.2604 22.1345L49.2583 12.8469C48.8379 12.2977 49.0131 11.5852 48.9886 10.9456L49.7837 11.1124C52.8451 13.9071 55.7104 17.9043 58.8734 20.4869C59.0696 20.6468 59.1571 20.9075 59.4864 20.8311L53.4406 4.71332C53.1814 4.2545 53.4721 2.90586 53.98 2.7981C54.3933 2.71121 54.7541 3.97643 54.8942 4.31359C56.9784 9.36407 58.5546 14.7482 60.5827 19.8335C60.6563 20.0177 60.6318 20.3479 60.8875 20.3097V0.792513H60.891ZM59.5775 20.9944V21.1682C59.6895 21.1091 59.6895 21.0535 59.5775 20.9944Z" fill="#4D486C"/>
<path d="M0 37.2972C0.423836 37.3841 1.62879 37.1582 1.895 37.325C2.17873 37.5023 3.67792 41.4683 4.2874 41.9792C4.51508 42.0904 6.1789 37.8047 6.5572 37.4675C6.90748 37.1582 8.57129 37.2138 8.57129 37.5579V45.7958H6.64827V41.2875C6.03528 41.7151 5.56591 43.5329 5.16309 43.891C4.7918 44.2212 3.85305 44.0439 3.35216 44.0335L1.92302 41.4613V45.7958H0V37.2972Z" fill="#4D486C"/>
<path d="M44.6172 37.2942C45.2652 37.388 46.4807 37.0856 46.9921 37.4541L50.2146 42.6714V37.5549C50.2146 37.1586 51.7874 37.3185 52.1376 37.2942V45.7927L49.8994 45.7545L46.5402 40.2417V45.7927H44.6172V37.2942Z" fill="#4D486C"/>
<path d="M24.2321 37.2982C27.0588 37.7327 27.5562 41.5075 25.0202 42.7588L26.7681 45.7933C26.2357 45.7029 25.0832 45.9636 24.6664 45.7098C24.3862 45.5395 23.3739 43.3045 23.2408 43.2211C22.9991 43.0682 22.0639 43.2663 21.6926 43.1933V45.7933H19.7695V37.2947C21.1426 37.4442 22.915 37.0931 24.2321 37.2947V37.2982ZM21.6961 41.4588C25.8609 41.9802 25.987 38.4209 21.6961 39.0327V41.4588Z" fill="#4D486C"/>
<path d="M89.7551 40.5894H93.2543V37.2943H95.0057V45.7929H93.2543V42.3239H89.7551V45.7929H87.832V37.2943C88.1823 37.3186 89.7551 37.1553 89.7551 37.555V40.5894Z" fill="#4D486C"/>
<path d="M81.0094 37.2972V40.5923C81.7099 40.1266 83.0725 37.6413 83.6365 37.3876C84.2004 37.1338 85.1181 37.3806 85.7346 37.3007C86.0499 37.5753 83.0935 40.4324 83.118 41.0303C83.1461 41.7846 85.7626 44.7287 86.0884 45.7089C85.57 45.8062 84.4351 45.9278 83.9867 45.7089C83.5384 45.4899 82.0777 42.5076 81.801 42.5041C81.6854 42.6605 81.0129 43.2166 81.0129 43.2827V45.7958H79.0898V37.2972H81.0129H81.0094Z" fill="#4D486C"/>
<path d="M12.4222 37.2969V42.761C12.4222 44.0088 14.5029 44.7561 15.4066 43.8107C15.5467 43.6647 15.9215 42.7297 15.9215 42.5872V37.2969H17.8445V42.2396C17.8445 42.4238 17.5888 43.5535 17.5047 43.8107C16.5975 46.647 12.0579 46.7617 10.86 43.9567C10.7794 43.769 10.4922 42.8722 10.4922 42.761V37.2969H12.4152H12.4222Z" fill="#4D486C"/>
<path d="M39.8678 37.3199L43.0413 45.7941C42.684 45.7281 41.2829 45.9019 41.1358 45.7733C41.0167 45.669 40.8976 44.4003 40.4808 44.2578C40.162 44.15 37.3598 44.1987 37.2477 44.3412C37.0656 44.5776 36.8064 45.7142 36.7188 45.7698C36.4771 45.9262 35.2266 45.7072 34.8203 45.7906L37.9903 37.3164H39.8713L39.8678 37.3199ZM39.8888 42.499C40.0149 42.3808 39.0517 39.7356 38.8415 39.899L37.9658 42.499H39.8888Z" fill="#4D486C"/>
<path d="M104.978 45.7935C103.205 45.9187 102.897 45.943 102.421 44.2224C101.909 44.3302 99.2262 44.1008 99.0476 44.2537C98.9705 44.3197 98.7709 45.5398 98.5082 45.7136C98.1544 45.9499 97.0545 45.7136 96.5781 45.7935C97.1105 44.7751 99.4609 37.6669 99.8953 37.3749C100.154 37.2011 101.528 37.2115 101.741 37.4687L104.978 45.7935ZM100.953 39.8984C100.666 39.6029 100.659 39.9888 100.589 40.1417C100.263 40.8543 100.084 41.7789 99.7306 42.4984H101.829C101.542 42.1716 101.048 39.9992 100.953 39.8984Z" fill="#4D486C"/>
<path d="M62.7819 37.3243L65.9589 45.7916C65.486 45.7221 64.5928 45.9411 64.204 45.7082C63.8152 45.4753 63.8817 44.4256 63.3914 44.2587C63.0691 44.151 60.2564 44.1962 60.1618 44.3317C59.3421 45.5205 60.3685 46.0905 57.7344 45.7881L60.8974 37.5676C61.2477 37.0845 62.2179 37.3174 62.7784 37.3208L62.7819 37.3243ZM62.8099 42.4999C63.0026 42.3053 61.9622 39.747 61.7626 39.9L60.8869 42.4999H62.8099Z" fill="#4D486C"/>
<path d="M112.502 37.2969V39.0313H108.478V40.7658H112.152V42.5003H108.478V45.7954H106.555V37.2969H112.502Z" fill="#4D486C"/>
<path d="M69.4621 37.2971V44.0612H73.2241C73.6094 44.0612 73.4728 45.469 73.4868 45.7957H67.5391V37.5578C67.5391 37.1616 69.1118 37.3215 69.4621 37.2971Z" fill="#4D486C"/>
<path d="M33.4145 37.2969V43.4527C33.4145 43.5848 33.0362 44.5128 32.9276 44.704C31.6246 46.9668 27.698 45.6981 28.0097 44.5302C28.0833 44.2556 28.952 43.4735 29.2883 43.5292C29.4074 43.55 29.5054 44.2417 30.3531 44.2417C30.7559 44.2417 31.4915 43.8385 31.4915 43.4527V37.2969H33.4145Z" fill="#4D486C"/>
<path d="M118.975 37.2969V43.8003C118.975 44.0019 118.355 45.0898 118.142 45.2775C116.699 46.5567 113.199 45.7642 113.809 44.4155C113.854 44.3147 114.635 43.5674 114.713 43.5535C115.035 43.4979 115.56 44.5893 116.523 44.1479C116.611 44.1062 117.052 43.6647 117.052 43.63V37.3003H118.975V37.2969Z" fill="#4D486C"/>
<path d="M123.001 37.2969H121.078V45.7954H123.001V37.2969Z" fill="#4D486C"/>
<path d="M59.5742 20.9961C59.6863 21.0552 59.6863 21.1108 59.5742 21.1699V20.9961Z" fill="#4D486C"/>
</g>
<defs>
<clipPath id="clip0_3801_16185">
<rect width="123" height="46" fill="white"/>
</clipPath>
</defs>
</svg>
