<svg xmlns="http://www.w3.org/2000/svg" width="141" height="46" viewBox="0 0 141 46" fill="none">
  <g clip-path="url(#clip0_3574_36972)">
    <path d="M0 37.3329L1.89581 37.3607C2.57788 38.7271 3.16901 40.177 3.93503 41.4983C4.03647 41.6756 3.92803 41.9329 4.28131 41.8425C4.66957 41.7416 6.08968 37.9135 6.55139 37.5033C6.96763 37.1347 7.99598 37.4128 8.56262 37.3329V45.8305H6.64233V41.3209L5.15926 43.9252L3.35789 44.0608L1.92379 41.4948V45.8305H0V37.3329Z" fill="#436178"/>
    <path d="M42.0191 37.3348C44.7929 37.7903 45.307 41.5628 42.8061 42.7936L44.5515 45.829L42.4528 45.7456C41.5714 44.553 41.3825 42.7867 39.4867 43.2282V45.829H37.5664V37.3313C38.9201 37.4878 40.7284 37.1193 42.0226 37.3313L42.0191 37.3348ZM39.4867 41.4967C40.4661 41.5106 42.6592 41.6393 42.5788 40.2207C42.4983 38.8021 40.4976 39.0837 39.4867 39.0663V41.4933V41.4967Z" fill="#436178"/>
    <path d="M50.7559 37.3348C53.1204 37.6685 54.0369 40.2484 52.5643 42.0773C52.3159 42.3868 51.7108 42.5745 51.7458 42.9396L53.4667 45.8324L51.368 45.749C50.2103 44.5807 50.3502 42.7275 48.2235 43.2317V45.8324H46.4746V37.3348C47.8073 37.4704 49.4687 37.154 50.7559 37.3348ZM51.1477 39.4592C50.5915 38.8716 48.986 39.1184 48.2235 39.0663L48.3005 41.3332C48.5768 41.7261 50.5461 41.4028 50.9413 41.1594C51.459 40.836 51.5359 39.8729 51.1477 39.4592Z" fill="#436178"/>
    <path d="M107.801 37.3359V40.6321H111.121V37.5967C111.582 37.1029 112.418 37.4159 113.041 37.3359V45.8336L111.404 45.844C111.327 45.8231 111.121 45.2738 111.121 45.2251V42.3636H107.801V45.8336H105.881V37.3359H107.801Z" fill="#436178"/>
    <path d="M19.801 44.7403C19.2029 44.0449 20.3257 43.5756 20.7069 43.061C21.5429 44.104 23.8969 45.0324 24.6455 43.4852C24.7434 42.4595 22.5223 42.456 21.7458 42.2022C20.7979 41.8892 19.8605 41.2842 19.7381 40.2029C19.3498 36.726 24.4811 36.3365 26.2055 38.6383L24.9008 39.9352C24.4426 38.979 21.6514 38.3532 21.6514 39.6779C21.6514 40.7349 24.1278 40.6549 24.9918 41.0617C26.2999 41.6806 26.8841 43.0957 26.2789 44.4274C25.3031 46.5866 21.1931 46.3571 19.801 44.7403Z" fill="#436178"/>
    <path d="M99.0687 37.3351V40.6313C99.7753 40.141 101.083 37.7002 101.692 37.4255C102.241 37.1787 103.172 37.4186 103.787 37.3386L101.048 41.0659L104.137 45.7459H102.038L99.8557 42.5436C99.7403 42.7001 99.0687 43.2564 99.0687 43.3224V45.8363H97.1484V37.3386H99.0687V37.3351Z" fill="#436178"/>
    <path d="M80.865 37.3616L84.2124 45.8279L82.2886 45.7445L81.4771 44.2946L78.2521 44.3676L77.7204 45.7966L75.8281 45.8245L78.9936 37.3477L80.8685 37.3546L80.865 37.3616ZM80.893 42.5353C80.8895 42.271 80.078 39.931 79.8471 40.1084L78.9727 42.5353H80.893Z" fill="#436178"/>
    <path d="M15.1797 37.3555L18.3452 45.8323L16.4529 45.8044L15.9212 44.3754L12.6962 44.3024L11.8847 45.7523L9.96094 45.8357L13.3083 37.3694L15.1832 37.3624L15.1797 37.3555ZM15.2006 42.5361L14.2423 40.1092L13.2804 42.5361H15.2006Z" fill="#436178"/>
    <path d="M59.7363 37.3555L62.9018 45.8323L61.006 45.8114L60.4778 44.3824L57.2494 44.2989L56.5953 45.8149L54.5176 45.8357L57.8615 37.3624H59.7398L59.7363 37.3555ZM59.7538 42.5361L58.7079 39.9354L57.8335 42.5361H59.7538Z" fill="#436178"/>
    <path d="M123.003 45.8318L121.076 45.7518L120.537 44.2915L117.169 44.2602L116.546 45.7518L114.619 45.8318L117.932 37.4141L119.775 37.5079L123.007 45.8318H123.003ZM118.984 40.1087C118.537 40.0392 118.712 40.1469 118.621 40.3521C118.316 41.0197 118.18 41.8854 117.764 42.5356H119.684L118.984 40.1087Z" fill="#436178"/>
    <path d="M32.8242 37.3594L35.9932 45.8327L34.0939 45.8118L33.5657 44.3828L30.3373 44.2994L29.6832 45.8153L27.6055 45.8362L30.9494 37.3629H32.8242V37.3594ZM32.8487 42.5365L31.8028 39.9358L30.9284 42.5365H32.8487Z" fill="#436178"/>
    <path d="M130.517 37.334V39.069H126.498V40.804H130.168V42.5355H126.498V45.8316H124.578V37.334H130.517Z" fill="#436178"/>
    <path d="M70.761 37.334V39.069H68.316V45.8316H66.3957V39.069H63.9473V37.334H70.761Z" fill="#436178"/>
    <path d="M87.5355 37.334V44.0966H91.2922C91.7714 44.5104 91.488 45.2614 91.5545 45.8316H85.6152V37.334H87.5355Z" fill="#436178"/>
    <path d="M136.982 37.3355V43.8374C136.982 44.0391 136.363 45.1273 136.149 45.3151C135.072 46.2678 132.274 46.2608 131.725 44.8909C131.508 44.3485 132.291 43.6392 132.732 43.601C133.11 43.5697 133.575 44.6232 134.533 44.1816C134.621 44.1399 135.062 43.6983 135.062 43.6636V37.332H136.982V37.3355Z" fill="#436178"/>
    <path d="M141 37.334H139.08V45.8316H141V37.334Z" fill="#436178"/>
    <path d="M71.2837 1.60841L71.644 2.37682C71.0703 9.4524 72.375 17.6441 71.6335 24.5876C71.6055 24.8344 71.5705 25.2412 71.3432 25.3803C71.0319 25.568 69.4858 25.7871 69.1011 25.7141C67.9923 25.495 69.1675 23.3602 70.4093 23.9756L70.0525 22.8595L70.2379 0.829579C70.2693 -0.161351 72.8857 -0.126582 73.1305 0.207205C73.7532 1.05906 72.1372 2.00131 71.2837 1.60841Z" fill="#436178"/>
    <path d="M77.4022 3.34332C77.4931 4.23342 76.5312 5.07832 75.6533 4.90447C75.6148 5.04007 75.8282 5.11309 75.8282 5.16176V22.5917C73.67 22.1466 74.4955 18.5411 74.436 16.7748C74.3136 13.0892 73.9044 8.44748 74.2472 4.80712C74.2786 4.48376 74.4885 3.33984 74.8663 3.33984H77.3987L77.4022 3.34332Z" fill="#436178"/>
    <path d="M66.2167 21.0321C66.2831 20.7643 65.9613 20.9312 65.8739 20.7331C65.3597 19.5926 65.8564 17.4786 65.8739 16.2687C65.9438 12.0476 65.8074 7.81967 65.8669 3.59866L66.1327 3.33789C66.6364 3.42829 67.2905 4.2871 67.2695 4.81212L67.2625 21.8074C67.231 22.8714 64.2054 22.7566 64.1215 22.329C63.9886 21.6649 65.5031 20.6531 66.2167 21.0286V21.0321Z" fill="#436178"/>
    <path d="M61.8507 7.85352C62.8511 7.88829 63.3443 8.55934 63.4317 9.49116C63.6451 11.8068 63.3198 14.5327 63.3478 16.8866L63.2079 17.1787L60.4551 17.3908C60.5565 16.4346 61.1162 15.5689 62.2005 15.8296C62.2739 15.781 61.8507 15.3255 61.8507 15.2246V7.85352Z" fill="#436178"/>
    <path d="M79.6734 18.0809C79.0018 17.8792 78.4072 17.528 78.2847 16.7701C77.928 14.5344 78.5261 11.4816 78.2778 9.15208C78.4456 8.27937 79.9252 8.24112 80.6283 8.37324C81.9435 8.62011 80.3974 10.449 79.3236 9.93092C79.3061 10.1082 79.6734 10.289 79.6734 10.3621V18.0809Z" fill="#436178"/>
    <path d="M83.5154 14.6158C81.4937 14.9009 82.1758 12.1054 81.9414 10.7981C82.2982 10.6277 83.5154 11.0937 83.5154 11.4066V14.6158Z" fill="#436178"/>
    <path d="M59.5806 15.136C57.0796 14.9517 58.4053 12.796 58.185 11.1479C58.5312 10.9671 59.5806 11.7529 59.5806 11.9268V15.136Z" fill="#436178"/>
  </g>
  <defs>
    <clipPath id="clip0_3574_36972">
      <rect width="141" height="46" fill="white"/>
    </clipPath>
  </defs>
</svg>