<svg width="20" height="20" viewBox="0 0 20 20" fill="none" xmlns="http://www.w3.org/2000/svg">
<path d="M9.99935 18.3346C14.6017 18.3346 18.3327 14.6037 18.3327 10.0013C18.3327 5.39893 14.6017 1.66797 9.99935 1.66797C5.39698 1.66797 1.66602 5.39893 1.66602 10.0013C1.66602 14.6037 5.39698 18.3346 9.99935 18.3346Z" stroke="white" stroke-width="1.2" stroke-linecap="round" stroke-linejoin="round"/>
<path d="M12.9167 13.3333C13.1468 13.3333 13.3333 13.1468 13.3333 12.9167C13.3333 12.6865 13.1468 12.5 12.9167 12.5C12.6865 12.5 12.5 12.6865 12.5 12.9167C12.5 13.1468 12.6865 13.3333 12.9167 13.3333Z" fill="white" stroke="white" stroke-width="1.2" stroke-linecap="round" stroke-linejoin="round"/>
<path d="M7.08464 7.5013C7.31475 7.5013 7.5013 7.31475 7.5013 7.08464C7.5013 6.85452 7.31475 6.66797 7.08464 6.66797C6.85452 6.66797 6.66797 6.85452 6.66797 7.08464C6.66797 7.31475 6.85452 7.5013 7.08464 7.5013Z" fill="white" stroke="white" stroke-width="1.2" stroke-linecap="round" stroke-linejoin="round"/>
<path d="M13.332 6.66797L6.66537 13.3346" stroke="white" stroke-width="1.2" stroke-linecap="round" stroke-linejoin="round"/>
</svg>
