<svg width="21" height="20" viewBox="0 0 21 20" fill="none" xmlns="http://www.w3.org/2000/svg">
<path d="M1.8999 7.16907C1.94209 7.07236 2.0888 6.8874 2.19895 6.8874H4.32603V2.32769C4.32603 2.30516 4.43336 2.1432 4.46758 2.11738C4.53039 2.06903 4.65085 2.03757 4.73054 2.02865C5.53956 1.93805 6.50701 2.09766 7.33337 2.02725C7.5382 1.99861 7.77163 2.24507 7.77163 2.43332V3.71865H9.1778V2.3629C9.1778 2.25117 9.41779 2.02114 9.54997 2.03147C10.3979 2.0709 11.3091 1.9681 12.1495 2.02678C12.3248 2.03898 12.6225 2.1601 12.6225 2.3629V3.71865H14.0286V2.43332C14.0286 2.19765 14.2569 2.04696 14.4669 2.02725C15.2994 1.94885 16.2556 2.08593 17.1016 2.03147C17.2254 2.02725 17.4738 2.2169 17.4738 2.32769V6.88693H19.6009C19.7274 6.88693 19.8357 7.07893 19.8999 7.1686V18.7169C19.7818 18.938 19.6721 18.9822 19.427 19H2.33769C2.10708 18.9793 2.00958 18.9164 1.8999 18.7169V7.16907ZM9.95026 2.80324V4.22941C9.95026 4.30405 9.71403 4.50967 9.61325 4.49042C8.90641 4.4538 8.13442 4.55004 7.43555 4.49511C7.30009 4.48432 6.99776 4.39418 6.99776 4.22941V2.85628L6.94526 2.80371H5.09942V18.2249H16.7004V2.80324H14.8545L14.802 2.85582V4.22894C14.802 4.30358 14.5658 4.5092 14.465 4.48995C13.7563 4.44348 12.9482 4.56271 12.2517 4.49511C12.1317 4.48338 11.8491 4.36226 11.8491 4.22941V2.80324H9.95026ZM4.32556 7.66198H2.6733V18.2245H4.32556V7.66198ZM19.1256 7.66198H17.4733V18.2245H19.1256V7.66198Z" fill="black"/>
<path d="M1.69971 7.12701L1.71631 7.08892C1.74868 7.01475 1.8111 6.92506 1.87939 6.85357C1.91449 6.81686 1.95745 6.77929 2.00537 6.74908C2.05078 6.72046 2.11802 6.68761 2.19873 6.68755V6.88775L2.15576 6.89556C2.05344 6.93251 1.93682 7.08447 1.8999 7.169V18.7169C2.00954 18.9163 2.107 18.9794 2.3374 19.0001H19.4272L19.5874 18.9795C19.7274 18.9493 19.8113 18.8828 19.8999 18.7169V7.169C19.8437 7.09046 19.7535 6.93332 19.647 6.89556L19.6011 6.88677V6.68658C19.7608 6.68668 19.8721 6.80156 19.9253 6.86333C19.9834 6.93086 20.0434 7.02448 20.063 7.05181L20.1001 7.10455V18.7667L20.0767 18.8116C20.0085 18.939 19.9285 19.0424 19.8091 19.1094C19.6953 19.1733 19.5684 19.19 19.4419 19.1993L19.4341 19.2002H2.32861L2.31982 19.1993C2.19174 19.1878 2.07203 19.1626 1.96533 19.0938C1.85817 19.0245 1.78664 18.9254 1.7251 18.8135L1.69971 18.7686V7.12701ZM4.32568 7.66216V18.2247H2.67334V7.66216H4.32568ZM19.1255 7.66216V18.2247H17.4731V7.66216H19.1255ZM17.6733 18.0245H18.9253V7.86236H17.6733V18.0245ZM2.87354 18.0245H4.12549V7.86236H2.87354V18.0245ZM17.4741 2.32818C17.4741 2.21752 17.2259 2.02755 17.1021 2.0313C16.2561 2.08575 15.2997 1.94907 14.4673 2.0274L14.3882 2.04107C14.2037 2.08626 14.0288 2.22733 14.0288 2.43365V3.7188H12.6226V2.36333C12.6226 2.18588 12.3946 2.07031 12.2202 2.03619L12.1499 2.02642C11.4145 1.97507 10.6246 2.04764 9.87061 2.04009L9.55029 2.0313C9.41811 2.02097 9.17822 2.25161 9.17822 2.36333V3.7188H7.77197V2.43365C7.77197 2.2688 7.59269 2.05868 7.41064 2.02837L7.3335 2.0274C6.50729 2.0978 5.53989 1.93788 4.73096 2.02837L4.59229 2.05865C4.54454 2.07365 4.49858 2.09315 4.46729 2.11724C4.43296 2.14329 4.32568 2.30567 4.32568 2.32818V6.88775H2.19873V6.68755H4.12646V2.32818C4.12646 2.29431 4.13469 2.26752 4.13721 2.25982C4.14107 2.24802 4.14574 2.23756 4.14893 2.23052C4.15535 2.21637 4.1628 2.20223 4.16943 2.19048C4.1832 2.16613 4.19996 2.13827 4.21729 2.11236C4.23475 2.08624 4.2545 2.05898 4.27295 2.03521C4.28565 2.01885 4.31334 1.98472 4.34521 1.96001V1.95904C4.40392 1.91384 4.47594 1.88504 4.53271 1.86724C4.59275 1.84842 4.65577 1.83603 4.7085 1.83013C5.13103 1.78283 5.591 1.80071 6.03467 1.82037C6.48472 1.84031 6.91859 1.86199 7.31592 1.82818V1.82915C7.50026 1.80766 7.66457 1.90442 7.76904 2.00591C7.87538 2.10936 7.97119 2.26659 7.97119 2.43365V3.51861H8.97803V2.36333C8.97803 2.27504 9.01995 2.19829 9.05029 2.1524C9.08547 2.09924 9.13133 2.04786 9.1792 2.00396C9.22703 1.96011 9.28322 1.9182 9.34229 1.88677C9.39494 1.85877 9.47218 1.82841 9.55811 1.83306L9.55908 1.83208L9.56201 1.83306C9.56316 1.83314 9.56476 1.83199 9.56592 1.83208L9.56494 1.83306C9.97768 1.85193 10.4068 1.83577 10.8462 1.82232C11.2841 1.80891 11.732 1.79706 12.1636 1.8272C12.2816 1.83544 12.4304 1.87778 12.5542 1.95122C12.6714 2.02081 12.8228 2.15499 12.8228 2.36333V3.51861H13.8286V2.43365C13.8286 2.24514 13.9216 2.09564 14.0405 1.99615C14.157 1.89883 14.3056 1.84161 14.4478 1.82818L14.7769 1.80767C15.109 1.79572 15.4514 1.80718 15.7866 1.82037C16.2389 1.83816 16.6781 1.85846 17.0884 1.83208L17.0952 1.83111V1.83208L17.1519 1.83501C17.207 1.84237 17.2575 1.8609 17.2964 1.87896C17.3528 1.90519 17.4085 1.94023 17.4575 1.97857C17.5061 2.01663 17.5542 2.06303 17.5923 2.11333C17.6254 2.15706 17.6733 2.23393 17.6733 2.32818V6.68658H19.6011V6.88677H17.4741V2.32818ZM14.8022 4.22857V2.85552L14.855 2.80376H16.7007V18.2247H5.09912V2.80376H6.94482L6.99756 2.8565V4.22954C6.99766 4.39427 7.3006 4.48437 7.43604 4.49517C8.13462 4.55 8.90624 4.45375 9.61279 4.49029C9.70101 4.50714 9.89346 4.35182 9.93994 4.26275L9.95068 4.22954V2.80376H11.8491V4.22954C11.8492 4.36228 12.1314 4.4833 12.2515 4.49517C12.948 4.56277 13.7566 4.44381 14.4653 4.49029C14.5536 4.50664 14.7447 4.35178 14.7915 4.26275L14.8022 4.22857ZM15.0024 4.22857C15.0024 4.28518 14.9819 4.33137 14.9692 4.35552C14.9547 4.38336 14.9364 4.40863 14.9194 4.42974C14.8852 4.47226 14.8416 4.51389 14.7974 4.54986C14.7533 4.58573 14.7015 4.62135 14.6479 4.64751C14.6077 4.66716 14.5344 4.69573 14.4517 4.68755V4.68951C14.1104 4.66715 13.7431 4.68455 13.3618 4.70025C12.9859 4.71573 12.596 4.72972 12.2319 4.69439C12.1369 4.68503 12.0092 4.63993 11.9067 4.58208C11.8539 4.55222 11.7966 4.51209 11.7495 4.46197C11.7045 4.41399 11.649 4.33496 11.6489 4.22954V3.00298H10.1499V4.22954C10.1499 4.28612 10.1293 4.33139 10.1167 4.35552C10.1022 4.3833 10.0848 4.40866 10.0679 4.42974C10.0336 4.47226 9.98998 4.51387 9.9458 4.54986C9.90168 4.58577 9.85002 4.6223 9.79639 4.64849C9.75666 4.66789 9.68443 4.69561 9.60303 4.68853V4.69048C9.26009 4.67272 8.89954 4.68655 8.52783 4.69927C8.16033 4.71185 7.78156 4.72285 7.41943 4.69439C7.32866 4.68712 7.19534 4.65621 7.07959 4.60064C7.02127 4.5726 6.95582 4.53283 6.90283 4.47759C6.84843 4.42081 6.79739 4.33702 6.79736 4.22954V3.00396H5.29932V18.0254H16.5005V3.00298H15.0024V4.22857Z" fill="black"/>
</svg>
