<svg width="14" height="16" viewBox="0 0 14 16" fill="none" xmlns="http://www.w3.org/2000/svg">
<path d="M13.583 12.9746C13.5278 13.2597 13.4517 13.5384 13.3516 13.8086C13.3206 13.8921 13.2875 13.9706 13.2539 14.0527C13.1075 14.084 12.9601 14.1157 12.8154 14.1465C12.4515 14.224 12.0874 14.3016 11.7236 14.3789C11.3506 14.4582 10.9769 14.5362 10.6035 14.6152C10.3153 14.6763 10.0234 14.7375 9.73438 14.7988C9.44819 14.8596 9.16002 14.9227 8.875 14.9834C8.72303 15.0158 8.56949 15.0475 8.41602 15.0801C8.44287 14.9279 8.47423 14.7763 8.51367 14.627C8.56738 14.4237 8.63111 14.2254 8.70703 14.0332C8.72248 13.9941 8.73924 13.9548 8.75781 13.9111C8.76046 13.9049 8.76193 13.898 8.76465 13.8916C8.95364 13.8521 9.14303 13.8136 9.33203 13.7734C9.618 13.7127 9.91645 13.6474 10.2012 13.5869C10.582 13.506 10.9261 13.4336 11.3076 13.3525C11.6717 13.2752 12.0365 13.1975 12.4004 13.1201C12.7692 13.0417 13.1381 12.9632 13.5068 12.8848C13.5382 12.8781 13.5693 12.8709 13.6006 12.8643C13.5949 12.8995 13.5905 12.936 13.583 12.9746ZM6.08203 7.5791L6.44434 7.50195C6.72549 7.44221 7.00557 7.38278 7.28516 7.32324C7.56482 7.26369 7.84427 7.20398 8.12402 7.14453L8.36133 7.09473V1.8291C8.44985 1.72857 8.51953 1.645 8.60645 1.55469C8.70256 1.45483 8.80617 1.35857 8.91406 1.2627C9.08501 1.1108 9.26503 0.97111 9.45215 0.841797V6.85156L9.80566 6.78613C9.80717 6.78586 9.85371 6.77798 9.875 6.77344C10.0892 6.7276 10.2994 6.68269 10.5117 6.6377C10.8775 6.56017 11.2509 6.48139 11.6182 6.40332C11.9723 6.32803 12.3588 6.24389 12.7109 6.16895C13.0093 6.10545 13.3022 6.04447 13.6006 5.98145C13.595 6.0164 13.5914 6.05248 13.584 6.09082C13.5294 6.37426 13.4533 6.6516 13.3535 6.9209C13.3223 7.00504 13.2889 7.08522 13.2549 7.16895C12.0631 7.42223 10.8745 7.67511 9.69043 7.92676L9.45312 7.97656V10.2832L9.79883 10.2295C9.80387 10.2287 9.8062 10.2281 9.81738 10.2266C9.8262 10.2253 9.84193 10.2234 9.85938 10.2197H9.86035C10.0378 10.1822 10.2171 10.1436 10.3955 10.1055C10.8343 10.0116 11.2725 9.91759 11.7109 9.82422C12.1724 9.72592 12.6347 9.62916 13.0967 9.53125C13.2493 9.4989 13.4021 9.46599 13.5547 9.43359C13.571 9.43013 13.5872 9.42631 13.6035 9.42285C13.5828 9.54284 13.5607 9.66131 13.5322 9.77734C13.4622 10.0625 13.368 10.3397 13.2549 10.6104C13.0923 10.6446 12.9297 10.6797 12.7686 10.7139C12.3999 10.7921 12.0305 10.8719 11.6621 10.9502C11.3275 11.0213 10.9917 11.0929 10.6572 11.1641C10.3631 11.2266 10.0685 11.2883 9.77441 11.3506C9.51442 11.4057 9.24959 11.4619 8.98828 11.5176C8.77977 11.562 8.569 11.6067 8.36035 11.6514V8.20898L7.99805 8.28613C7.71684 8.34589 7.43668 8.40455 7.15723 8.46387C6.87774 8.52319 6.59865 8.58322 6.31934 8.64258L6.08203 8.69238V10.7949L6.07715 10.915C6.06931 10.9884 6.04983 11.0462 6.02246 11.0908C5.95796 11.1959 5.88894 11.2963 5.8125 11.4102C5.59809 11.7295 5.38691 12.0422 5.17188 12.3623C5.08935 12.4851 5.01133 12.585 4.9209 12.665C4.75931 12.8079 4.57702 12.9014 4.36914 12.9463C4.01784 13.0221 3.66872 13.0946 3.31445 13.1699C2.90864 13.2562 2.50192 13.3433 2.09668 13.4297C1.70145 13.5139 1.30683 13.5974 0.911133 13.6816C0.607428 13.7463 0.303537 13.8096 0 13.874C0.0275633 13.7204 0.0584251 13.5684 0.0976562 13.4199C0.163998 13.1689 0.247003 12.9242 0.34668 12.6855C0.446945 12.665 0.547137 12.6452 0.646484 12.624C1.04154 12.5396 1.43326 12.4548 1.82715 12.3711C2.20395 12.291 2.55583 12.2191 2.93457 12.1387C3.22021 12.078 3.52033 12.0115 3.80371 11.9512C4.10575 11.8869 4.40843 11.8239 4.71094 11.7598V11.7588C4.73481 11.7537 4.75733 11.7477 4.77051 11.7441L4.99121 11.6846V8.9248L4.62891 9.00195C3.34384 9.275 2.07519 9.54372 0.791992 9.81641C0.864023 9.40586 0.979989 9.01053 1.14062 8.62793C1.71847 8.50511 2.29602 8.38344 2.87305 8.26074C3.50071 8.12728 4.12856 7.99368 4.75586 7.86035L4.99316 7.81055V0.987305C5.0695 0.900209 5.13288 0.824363 5.20703 0.748047C5.31488 0.63707 5.42747 0.529398 5.54297 0.424805C5.71276 0.271062 5.89321 0.13009 6.08203 0V7.5791Z" fill="white"/>
</svg>
