<svg width="54" height="54" viewBox="0 0 54 54" fill="none" xmlns="http://www.w3.org/2000/svg">
<path d="M26.6466 4.44141C14.4116 4.44141 4.44141 14.4116 4.44141 26.6466C4.44141 38.8817 14.4116 48.8519 26.6466 48.8519C38.8817 48.8519 48.8519 38.8817 48.8519 26.6466C48.8519 14.4116 38.8817 4.44141 26.6466 4.44141ZM37.2607 21.5394L24.6704 34.1298C24.3595 34.4407 23.9376 34.6183 23.4935 34.6183C23.0494 34.6183 22.6275 34.4407 22.3166 34.1298L16.0325 27.8457C15.3886 27.2018 15.3886 26.1359 16.0325 25.492C16.6765 24.848 17.7423 24.848 18.3863 25.492L23.4935 30.5992L34.907 19.1857C35.5509 18.5417 36.6168 18.5417 37.2607 19.1857C37.9047 19.8296 37.9047 20.8733 37.2607 21.5394Z" fill="#00646E"/>
</svg>
