<svg width="21" height="20" viewBox="0 0 21 20" fill="none" xmlns="http://www.w3.org/2000/svg">
<path d="M12.1667 16.9001V12.2667C12.1667 11.9354 12.4354 11.6667 12.7667 11.6667H17.4001C17.7315 11.6667 18.0001 11.9354 18.0001 12.2667V16.9001C18.0001 17.2315 17.7315 17.5001 17.4001 17.5001H12.7667C12.4354 17.5001 12.1667 17.2315 12.1667 16.9001Z" stroke="black" stroke-width="1.2"/>
<path d="M3 16.9001V12.2667C3 11.9354 3.26863 11.6667 3.6 11.6667H8.23333C8.5647 11.6667 8.83333 11.9354 8.83333 12.2667V16.9001C8.83333 17.2315 8.5647 17.5001 8.23333 17.5001H3.6C3.26863 17.5001 3 17.2315 3 16.9001Z" stroke="black" stroke-width="1.2"/>
<path d="M12.1667 7.73333V3.1C12.1667 2.76863 12.4354 2.5 12.7667 2.5H17.4001C17.7315 2.5 18.0001 2.76863 18.0001 3.1V7.73333C18.0001 8.0647 17.7315 8.33333 17.4001 8.33333H12.7667C12.4354 8.33333 12.1667 8.0647 12.1667 7.73333Z" stroke="black" stroke-width="1.2"/>
<path d="M3 7.73333V3.1C3 2.76863 3.26863 2.5 3.6 2.5H8.23333C8.5647 2.5 8.83333 2.76863 8.83333 3.1V7.73333C8.83333 8.0647 8.5647 8.33333 8.23333 8.33333H3.6C3.26863 8.33333 3 8.0647 3 7.73333Z" stroke="black" stroke-width="1.2"/>
</svg>
