<svg width="20" height="20" viewBox="0 0 20 20" fill="none" xmlns="http://www.w3.org/2000/svg">
<path d="M2.5 12.5C4.56897 12.5 6.12069 10 6.12069 10C6.12069 10 7.67241 12.5 9.74138 12.5C11.8103 12.5 13.8793 10 13.8793 10C13.8793 10 15.9483 12.5 17.5 12.5" stroke="white" stroke-width="1.2" stroke-linecap="round" stroke-linejoin="round"/>
<path d="M2.5 16.666C4.56897 16.666 6.12069 14.166 6.12069 14.166C6.12069 14.166 7.67241 16.666 9.74138 16.666C11.8103 16.666 13.8793 14.166 13.8793 14.166C13.8793 14.166 15.9483 16.666 17.5 16.666" stroke="white" stroke-width="1.2" stroke-linecap="round" stroke-linejoin="round"/>
<path d="M15.8327 8.33333C15.8327 5.11167 13.221 2.5 9.99935 2.5C6.77769 2.5 4.16602 5.11167 4.16602 8.33333" stroke="white" stroke-width="1.2" stroke-linecap="round" stroke-linejoin="round"/>
</svg>
